<svg width="532" height="54" viewBox="0 0 532 54" fill="none" xmlns="http://www.w3.org/2000/svg">
<path d="M0.934961 26.7255C0.934961 41.5005 12.635 53.2755 27.335 53.2755C41.81 53.2755 53.66 41.4255 53.66 26.9505C53.66 12.4755 41.885 0.775486 27.26 0.775486C12.635 0.775486 0.934961 12.3255 0.934961 26.7255ZM17.51 26.9505C17.51 21.6255 21.935 17.3505 27.335 17.3505C32.735 17.3505 37.16 21.7005 37.16 27.0255C37.16 32.4255 32.735 36.9255 27.335 36.9255C21.935 36.9255 17.51 32.4255 17.51 26.9505ZM77.5516 11.3505C77.5516 7.82548 76.9516 5.95049 75.3016 4.22549C73.8016 2.65048 71.4766 1.60048 69.2266 1.60048C66.8266 1.60048 64.2766 2.87549 62.7016 4.82549C61.2766 6.70049 60.9766 7.90049 60.9766 12.6255V30.2505C60.9766 36.8505 61.9516 40.3755 65.0266 44.5755C69.0016 49.9755 75.3766 53.2755 82.0516 53.2755C87.9766 53.2755 93.8266 50.5755 97.8766 45.9255C101.477 41.8755 103.127 37.0005 103.127 30.2505V12.4755C103.127 7.97549 102.752 6.47548 101.177 4.60049C99.6766 2.80049 97.1266 1.60048 94.7266 1.60048C92.2516 1.60048 89.9266 2.80049 88.3516 4.75048C86.8516 6.55049 86.5516 7.67549 86.5516 11.3505V31.3005C86.5516 34.7505 84.9016 36.8505 82.0516 36.8505C79.2016 36.8505 77.5516 34.6755 77.5516 31.0755V11.3505ZM144.852 32.7255C148.677 28.4505 150.177 24.7755 150.177 19.9755C150.177 11.8755 144.777 4.90049 137.052 2.72549C134.877 2.20049 133.077 1.97548 129.027 1.97548H122.127C118.152 1.97548 116.502 2.50049 114.627 4.15049C112.677 5.87549 111.927 7.90049 111.927 11.5005V42.3255C111.927 45.4755 112.527 47.6505 113.877 49.3755C115.377 51.2505 117.852 52.3755 120.327 52.3755C124.902 52.3755 128.427 48.7755 128.427 44.0505V37.2255L135.252 48.5505C136.752 51.0255 139.152 52.3755 142.077 52.3755C146.727 52.3755 150.327 48.8505 150.327 44.2755C150.327 42.5505 149.802 40.6005 148.752 38.9505L144.852 32.7255ZM128.427 17.2755C129.177 17.3505 129.777 17.3505 130.152 17.3505C132.627 17.2755 133.977 18.2505 133.977 20.0505C133.977 21.8505 132.702 22.7505 130.227 22.6755C129.927 22.6755 129.552 22.6755 129.102 22.6755H128.427V17.2755ZM198.885 37.9755H201.66C206.535 37.9755 209.91 36.9255 213.285 34.3755C217.86 30.9255 220.56 25.6005 220.56 20.0505C220.56 14.5005 217.935 9.17549 213.51 5.80048C209.685 2.87549 206.235 1.97548 198.21 1.97548H191.31C188.235 1.97548 186.285 2.72549 184.56 4.45049C182.835 6.25049 182.31 7.90049 182.31 11.5005V40.7505C182.31 45.7755 182.46 46.6005 183.735 48.6255C185.235 50.9505 187.86 52.3755 190.635 52.3755C195.585 52.3755 198.885 48.5505 198.885 42.8505V37.9755ZM198.885 17.2755C199.41 17.2755 200.085 17.2755 200.385 17.2755C202.86 17.2755 204.36 18.2505 204.36 19.9005C204.36 22.1505 202.86 22.9005 198.885 22.6755V17.2755ZM260.754 32.7255C264.579 28.4505 266.079 24.7755 266.079 19.9755C266.079 11.8755 260.679 4.90049 252.954 2.72549C250.779 2.20049 248.979 1.97548 244.929 1.97548H238.029C234.054 1.97548 232.404 2.50049 230.529 4.15049C228.579 5.87549 227.829 7.90049 227.829 11.5005V42.3255C227.829 45.4755 228.429 47.6505 229.779 49.3755C231.279 51.2505 233.754 52.3755 236.229 52.3755C240.804 52.3755 244.329 48.7755 244.329 44.0505V37.2255L251.154 48.5505C252.654 51.0255 255.054 52.3755 257.979 52.3755C262.629 52.3755 266.229 48.8505 266.229 44.2755C266.229 42.5505 265.704 40.6005 264.654 38.9505L260.754 32.7255ZM244.329 17.2755C245.079 17.3505 245.679 17.3505 246.054 17.3505C248.529 17.2755 249.879 18.2505 249.879 20.0505C249.879 21.8505 248.604 22.7505 246.129 22.6755C245.829 22.6755 245.454 22.6755 245.004 22.6755H244.329V17.2755ZM273.021 26.7255C273.021 41.5005 284.721 53.2755 299.421 53.2755C313.896 53.2755 325.746 41.4255 325.746 26.9505C325.746 12.4755 313.971 0.775486 299.346 0.775486C284.721 0.775486 273.021 12.3255 273.021 26.7255ZM289.596 26.9505C289.596 21.6255 294.021 17.3505 299.421 17.3505C304.821 17.3505 309.246 21.7005 309.246 27.0255C309.246 32.4255 304.821 36.9255 299.421 36.9255C294.021 36.9255 289.596 32.4255 289.596 26.9505ZM381.513 37.4505C381.513 33.1755 377.613 29.3505 373.263 29.3505C371.163 29.3505 368.913 30.3255 367.562 31.7505L365.838 33.5505C363.888 35.6505 361.188 36.8505 358.488 36.8505C353.088 36.8505 348.738 32.5005 348.738 27.1005C348.738 21.6255 353.088 17.3505 358.563 17.3505C361.263 17.3505 363.888 18.4005 365.688 20.3505L368.088 22.9755C369.213 24.1755 371.313 25.0005 373.263 25.0005C377.838 25.0005 381.513 21.2505 381.513 16.7505C381.513 13.4505 379.488 10.0755 375.438 6.85048C370.638 2.87549 364.788 0.775486 358.713 0.775486C344.088 0.775486 332.162 12.5505 332.162 27.1005C332.162 41.5755 344.013 53.2755 358.638 53.2755C365.013 53.2755 371.238 50.8755 376.113 46.6755C379.638 43.6005 381.513 40.4505 381.513 37.4505ZM405.199 36.5505V32.8005H411.124C413.749 32.8005 414.949 32.5005 416.224 31.5255C417.574 30.4005 418.399 28.6755 418.399 26.8005C418.399 23.2755 415.774 20.8755 411.724 20.8755H405.199V17.4255H413.449C416.524 17.4255 418.249 16.9005 419.749 15.6255C421.474 14.2005 422.449 11.9505 422.449 9.55048C422.449 6.10048 420.199 3.25049 416.749 2.35048C415.624 2.05049 415.174 1.97548 410.449 1.97548H400.549C395.674 1.97548 395.299 2.05049 393.424 2.80049C391.699 3.55049 390.124 5.05048 389.449 6.92549C388.774 8.50049 388.699 9.02549 388.699 13.2255V40.3755C388.699 43.8255 388.774 44.2755 388.999 45.3255C389.524 48.2505 391.174 50.2755 393.724 51.3255C395.149 51.8505 396.199 52.0005 400.024 52.0005H412.849C416.599 52.0005 418.024 51.6255 419.674 50.2755C421.324 48.8505 422.374 46.6005 422.374 44.2755C422.374 42.0255 421.399 39.9255 419.674 38.4255C417.949 37.0005 416.374 36.5505 412.774 36.5505H405.199ZM447.152 53.2755C453.302 53.2755 457.802 51.6255 461.177 48.2505C464.177 45.1755 465.902 40.8255 465.902 36.3255C465.902 31.6005 463.952 27.1005 460.877 24.5505C458.552 22.6005 454.502 20.5755 450.227 19.3005C446.327 18.0255 445.277 17.3505 445.277 15.8505C445.277 14.8005 446.177 13.9005 447.227 13.9005C448.127 13.9005 448.952 14.2755 450.677 15.7005C453.452 17.8005 455.252 18.5505 457.502 18.5505C461.252 18.5505 463.952 15.7005 463.952 11.7255C463.952 5.57549 456.902 0.775486 447.902 0.775486C437.027 0.775486 429.527 7.45049 429.527 17.2005C429.527 24.1755 433.127 28.9005 440.402 31.4505C441.752 31.9755 443.102 32.4255 444.452 32.8755C447.077 33.8505 447.302 34.0005 447.752 34.3005C448.652 34.9005 449.027 35.5005 449.027 36.4005C449.027 37.6755 448.202 38.5755 446.927 38.5755C445.727 38.5755 445.277 38.2755 441.677 35.5005C439.577 33.7755 437.852 33.1005 435.827 33.1005C431.627 33.1005 428.327 36.4005 428.327 40.6005C428.327 47.7255 436.502 53.2755 447.152 53.2755ZM490.986 53.2755C497.136 53.2755 501.636 51.6255 505.011 48.2505C508.011 45.1755 509.736 40.8255 509.736 36.3255C509.736 31.6005 507.786 27.1005 504.711 24.5505C502.386 22.6005 498.336 20.5755 494.061 19.3005C490.161 18.0255 489.111 17.3505 489.111 15.8505C489.111 14.8005 490.011 13.9005 491.061 13.9005C491.961 13.9005 492.786 14.2755 494.511 15.7005C497.286 17.8005 499.086 18.5505 501.336 18.5505C505.086 18.5505 507.786 15.7005 507.786 11.7255C507.786 5.57549 500.736 0.775486 491.736 0.775486C480.861 0.775486 473.361 7.45049 473.361 17.2005C473.361 24.1755 476.961 28.9005 484.236 31.4505C485.586 31.9755 486.936 32.4255 488.286 32.8755C490.911 33.8505 491.136 34.0005 491.586 34.3005C492.486 34.9005 492.861 35.5005 492.861 36.4005C492.861 37.6755 492.036 38.5755 490.761 38.5755C489.561 38.5755 489.111 38.2755 485.511 35.5005C483.411 33.7755 481.686 33.1005 479.661 33.1005C475.461 33.1005 472.161 36.4005 472.161 40.6005C472.161 47.7255 480.336 53.2755 490.986 53.2755ZM516.22 21.7755C516.22 26.1255 519.67 29.6505 524.02 29.6505C528.295 29.6505 531.895 26.1255 531.895 21.8505C531.895 17.5755 528.295 13.9755 524.02 13.9755C519.67 13.9755 516.22 17.5005 516.22 21.7755ZM516.22 44.5005C516.22 48.8505 519.67 52.3755 524.02 52.3755C528.295 52.3755 531.895 48.8505 531.895 44.5005C531.895 40.2255 528.295 36.7005 524.02 36.7005C519.67 36.7005 516.22 40.1505 516.22 44.5005Z" fill="#1136EE"/>
</svg>
