<svg width="595" height="188" viewBox="0 0 595 188" fill="none" xmlns="http://www.w3.org/2000/svg">
<path d="M169.096 74.4147L27.8303 102.207L110.182 100.629L60.8726 117.518L119.119 123.653L88.9526 138.642L115.473 138.596L10.5999 187.932L166.235 167.293L145.01 147.345L158.114 86.7036L169.096 74.4147Z" fill="#ED1616"/>
<path d="M250.22 64.333L271.492 60.3737C274.992 59.728 277.57 59.3773 279.127 59.0848C283.777 58.3553 288.365 58.1346 292.603 58.8996C302.188 60.4626 307.177 67.7467 305.906 78.6603C304.812 87.9827 299.557 96.03 290.938 101.231L298.753 141.016L276.887 145.084L271.481 109.988C270.173 110.36 269.644 110.464 268.728 110.628C268.472 110.68 267.685 110.818 266.407 110.928L265.492 111.092L261.121 148.007L239.768 151.972L250.236 64.3318L250.22 64.333ZM270.415 95.1445C279.245 93.508 283.782 89.4509 284.602 82.6219C284.856 80.5206 284.557 78.6548 283.73 77.1367C281.932 74.1273 279.315 73.716 271.914 75.0855L269.714 75.49L267.34 95.5965C269.146 95.3834 269.789 95.2714 270.447 95.1421L270.415 95.1445Z" fill="#ED1616"/>
<path d="M221.562 69.6604L214.001 132.225C213.576 135.771 213.685 137.943 214.277 139.364C215.173 141.382 218.132 142.24 221.376 141.646C224.892 140.999 227.815 138.914 229.306 135.925C230.446 133.922 230.722 132.584 231.363 127.314L238.66 66.4774L256.288 63.2069L249.353 121.414L248.78 126.272C248.243 130.737 246.815 135.251 244.522 139.519C239.728 148.753 229.757 155.501 217.524 157.776C206.334 159.861 197.418 156.752 194.327 149.622C192.247 144.746 192.075 141.943 193.576 129.727L200.402 73.5952L221.546 69.6616L221.562 69.6604Z" fill="#ED1616"/>
<path d="M177.421 76.1822C197.392 72.4642 207.149 87.0975 203.651 115.894C200.174 144.542 186.282 163.568 166.23 167.292C146.177 171.016 136.549 156.357 140.105 127.687C143.684 98.8845 157.448 79.8839 177.405 76.1833L177.421 76.1822ZM168.299 151.488C174.801 150.281 179.074 140.369 181.559 119.994C184.218 99.33 182.222 90.7048 175.48 91.9612C168.865 93.192 164.721 103.078 162.197 123.586C159.65 144.226 161.524 152.746 168.299 151.488Z" fill="#ED1616"/>
<path d="M237.088 139.312C236.032 141.342 234.724 143.26 233.211 145.046L232.626 149.97L251.506 146.462L255.756 110.793C255.836 110.104 256.455 109.44 257.13 109.326L258.045 109.162C258.045 109.162 258.126 109.156 258.175 109.152C259.405 109.062 260.126 108.912 260.383 108.861C261.266 108.699 261.748 108.615 263.007 108.247C263.612 108.072 264.122 108.36 264.211 108.923L269.457 143.152L288.706 139.568L281.212 101.289C281.106 100.727 281.461 100.018 282.07 99.6643C290.128 94.7972 295.142 87.2393 296.188 78.3761C297.393 68.1182 292.685 61.1227 283.594 59.6376C279.819 58.9691 275.543 59.0205 270.477 59.8292C269.881 59.9215 269.078 60.0614 268.13 60.2281C266.715 60.4615 264.961 60.7358 262.874 61.1158L248.939 63.7102L241.551 125.53C240.983 130.241 239.5 134.889 237.122 139.326L237.088 139.312ZM257.588 95.2984L259.978 75.1908C260.058 74.5015 260.677 73.8381 261.352 73.7238L263.552 73.3193C270.6 72.0081 274.117 72.0445 276.323 75.7402C277.261 77.4455 277.59 79.5043 277.323 81.867C276.44 89.4002 271.202 94.1105 261.763 95.8727C261.105 96.0021 260.414 96.1175 258.575 96.333C257.929 96.4126 257.506 95.9553 257.572 95.2996L257.588 95.2984Z" fill="#F36A9F"/>
<path d="M284.646 57.1203C280.656 56.4023 276.137 56.4714 270.78 57.3176C270.17 57.4272 269.397 57.5486 268.465 57.698C267.033 57.9325 265.264 58.208 263.145 58.6066L247.973 61.4214C248.647 61.2909 249.135 61.7434 249.055 62.4327L262.99 59.8382C266.491 59.1925 269.069 58.8418 270.626 58.5493C275.275 57.8198 279.864 57.5991 284.086 58.3653C293.67 59.9283 298.645 67.2297 297.373 78.1272C296.279 87.4495 291.008 95.498 282.404 100.698L290.187 140.485L268.321 144.553L262.931 109.456C261.623 109.828 261.094 109.932 260.179 110.096C259.922 110.148 259.135 110.286 257.857 110.396L256.942 110.56L252.555 147.476L231.202 151.441L231.776 146.599C231.338 147.054 230.883 147.51 230.411 147.952L229.966 151.678C229.886 152.367 230.375 152.82 231.049 152.689L252.402 148.724C253.076 148.593 253.694 147.93 253.792 147.256L258.028 111.62C259.11 111.509 259.785 111.394 260.042 111.343C260.683 111.215 261.165 111.131 261.853 110.967L267.093 145.114C267.179 145.629 267.623 145.922 268.169 145.817L290.035 141.749C290.42 141.672 290.808 141.416 291.091 141.054C291.357 140.693 291.474 140.278 291.414 139.908L283.816 101.083C292.253 95.6188 297.497 87.4258 298.608 77.8906C299.943 66.5167 294.707 58.7462 284.645 57.1041L284.646 57.1203Z" fill="#ED1616"/>
<path d="M276.103 82.086C276.356 79.9847 276.057 78.1189 275.231 76.6008C273.433 73.5913 270.816 73.1801 263.414 74.5496L261.214 74.9541L258.824 95.0618C260.631 94.8486 261.273 94.7367 261.931 94.6074C270.762 92.9709 275.299 88.9138 276.119 82.0848L276.103 82.086ZM262.298 75.9816L263.277 75.7963C270.807 74.4011 272.658 75.0147 274.121 77.4465C274.852 78.7763 275.118 80.4166 274.883 82.3214C274.387 86.4581 272.505 91.4444 262.085 93.3757C261.603 93.4597 261.139 93.5587 260.204 93.6757L262.298 75.9816Z" fill="#ED1616"/>
<path d="M262.854 61.0848C264.942 60.7048 266.694 60.4143 268.11 60.1971C269.06 60.0466 269.863 59.9066 270.457 59.7982C275.525 59.0056 279.8 58.938 283.575 59.6066C292.665 61.0917 297.374 68.0872 296.169 78.3451C295.123 87.2083 290.11 94.7824 282.051 99.6333C281.459 100.002 281.087 100.696 281.193 101.258L288.687 139.537L269.438 143.121L264.192 108.892C264.102 108.329 263.593 108.041 262.987 108.215C261.727 108.568 261.247 108.668 260.363 108.83C260.123 108.88 259.384 109.015 258.155 109.121C258.123 109.123 258.075 109.127 258.026 109.13L257.11 109.295C256.436 109.425 255.818 110.089 255.737 110.762L251.487 146.431L232.606 149.939L233.191 145.015C232.741 145.536 232.275 146.058 231.807 146.564L231.233 151.406L252.586 147.441L256.972 110.525L257.888 110.361C259.167 110.268 259.953 110.113 260.209 110.062C261.125 109.897 261.638 109.795 262.961 109.422L268.352 144.518L290.218 140.45L282.435 100.663C291.054 95.462 296.309 87.4147 297.403 78.0923C298.675 67.1949 293.701 59.8934 284.116 58.3304C279.896 57.5804 275.306 57.7849 270.656 58.5145C269.099 58.807 266.521 59.1577 263.021 59.8034L249.086 62.3978L248.933 63.6457L262.868 61.0512L262.854 61.0848Z" fill="#ED1616"/>
<path d="M258.59 96.315C260.429 96.0995 261.12 95.984 261.778 95.8547C271.219 94.1087 276.455 89.3822 277.338 81.849C277.621 79.4851 277.292 77.4263 276.338 75.7222C274.132 72.0265 270.615 71.9901 263.567 73.3013L261.367 73.7057C260.693 73.8362 260.074 74.4997 259.993 75.1728L257.603 95.2804C257.521 95.9373 257.959 96.3772 258.606 96.3138L258.59 96.315ZM261.214 74.9536L263.414 74.5491C270.815 73.1796 273.433 73.5908 275.23 76.6003C276.073 78.1172 276.356 79.9842 276.102 82.0855C275.298 88.9133 270.745 92.9716 261.915 94.6081C261.273 94.7362 260.614 94.8493 258.807 95.0624L261.198 74.9548L261.214 74.9536Z" fill="#ED1616"/>
<path d="M231.274 66.9511L224.098 126.542C223.457 131.812 223.166 133.396 221.854 135.721C220.163 139.082 216.733 141.578 212.735 142.325C208.93 143.025 205.677 141.928 204.627 139.58C203.935 137.906 203.828 135.538 204.277 131.876L211.701 70.5587L193.03 74.0354L191.99 82.5402C196.553 89.5462 198.156 100.592 196.399 115.105C194.892 127.468 191.422 138.135 186.362 146.623C186.548 147.163 186.766 147.7 187.004 148.285C189.904 155.022 198.401 157.966 209.173 155.96C218.148 154.297 225.713 150.263 230.847 144.568L240.359 65.2473L231.273 66.935L231.274 66.9511Z" fill="#F36A9F"/>
<path d="M239.061 125.956L246.464 64.1348L242.82 64.8074L233.717 140.827C234.171 140.127 234.591 139.413 234.976 138.669C237.167 134.571 238.547 130.289 239.059 125.939L239.061 125.956Z" fill="#F36A9F"/>
<path d="M240.362 65.2634L230.85 144.584C231.346 144.027 231.81 143.473 232.256 142.887L241.582 65.028L240.346 65.2646L240.362 65.2634Z" fill="#F36A9F"/>
<path d="M241.581 65.0443L232.255 142.903C232.776 142.231 233.263 141.544 233.716 140.844L242.818 64.824L241.583 65.0605L241.581 65.0443Z" fill="#F36A9F"/>
<path d="M209.024 157.239C197.834 159.324 188.918 156.216 185.843 149.085C185.705 148.753 185.568 148.438 185.449 148.137C185.142 148.615 184.85 149.076 184.542 149.538C184.583 149.649 184.623 149.76 184.68 149.869C187.911 157.363 197.184 160.674 208.871 158.487C217.347 156.909 224.884 153.154 230.444 147.948L230.633 146.307C225.268 151.727 217.725 155.612 209.024 157.239Z" fill="#ED1616"/>
<path d="M191.949 73.0398L213.077 69.1073L205.5 131.673C205.075 135.219 205.184 137.391 205.776 138.813C206.672 140.83 209.631 141.688 212.874 141.094C216.391 140.447 219.314 138.362 220.805 135.374C221.944 133.37 222.221 132.032 222.862 126.762L230.191 65.9232L240.497 64.0001C240.577 63.3109 241.196 62.6474 241.871 62.5331L230.328 64.6765C229.654 64.807 229.035 65.4705 228.954 66.1435L221.625 126.982C221.009 132.153 220.75 133.278 219.726 135.078C218.489 137.528 216.044 139.268 213.01 139.831C210.136 140.366 207.641 139.62 206.923 138.029C206.389 136.734 206.317 134.624 206.702 131.423L214.279 68.857C214.359 68.1677 213.886 67.714 213.196 67.8457L192.069 71.7781C191.395 71.9086 190.776 72.5721 190.695 73.2451L189.891 79.8452C190.261 80.2412 190.601 80.6558 190.941 81.0866L191.931 73.0086L191.949 73.0398Z" fill="#ED1616"/>
<path d="M240.297 125.735C239.76 130.2 238.332 134.714 236.039 138.982C235.297 140.403 234.42 141.768 233.44 143.06L233.21 145.03C234.723 143.243 236.031 141.326 237.087 139.296C239.465 134.859 240.965 130.21 241.516 125.5L248.904 63.6801L247.668 63.9167L240.854 120.878L240.264 125.737L240.297 125.735Z" fill="#ED1616"/>
<path d="M240.518 64.0317L241.753 63.7952L247.855 62.6669L249.09 62.4304C249.17 61.7411 248.682 61.2886 248.008 61.4191L241.907 62.5473C241.233 62.6778 240.614 63.3413 240.533 64.0144L240.518 64.0317Z" fill="#ED1616"/>
<path d="M232.023 144.823C231.572 145.328 231.121 145.833 230.634 146.307L230.445 147.949C230.917 147.507 231.372 147.051 231.811 146.596L232.023 144.823Z" fill="#ED1616"/>
<path d="M233.44 143.076C232.996 143.678 232.517 144.25 232.022 144.823L231.809 146.596C232.293 146.089 232.76 145.583 233.193 145.047L233.424 143.077L233.44 143.076Z" fill="#ED1616"/>
<path d="M247.684 63.9159L248.92 63.6793L249.057 62.4326L247.837 62.668L247.684 63.9159Z" fill="#ED1616"/>
<path d="M209.178 155.992C198.405 157.997 189.908 155.053 187.009 148.317C186.771 147.732 186.553 147.195 186.367 146.655C186.077 147.148 185.772 147.642 185.466 148.136C185.587 148.453 185.724 148.768 185.86 149.084C188.935 156.215 197.851 159.323 209.041 157.238C217.743 155.628 225.286 151.742 230.65 146.306L230.85 144.583C225.717 150.278 218.151 154.312 209.177 155.975L209.178 155.992Z" fill="#ED1616"/>
<path d="M193.033 74.0675L211.704 70.5908L204.28 131.909C203.831 135.57 203.938 137.938 204.63 139.612C205.68 141.96 208.933 143.057 212.738 142.357C216.736 141.61 220.166 139.114 221.857 135.753C223.169 133.428 223.475 131.827 224.101 126.574L231.277 66.9832L240.364 65.2956L240.517 64.0477L230.21 65.9708L222.881 126.81C222.256 132.062 221.963 133.402 220.824 135.421C219.316 138.395 216.393 140.479 212.894 141.141C209.635 141.753 206.691 140.878 205.796 138.86C205.203 137.423 205.094 135.266 205.519 131.721L213.096 69.155L191.969 73.0874L190.98 81.1654C191.339 81.6274 191.683 82.1067 191.997 82.6208L193.037 74.116L193.033 74.0675Z" fill="#ED1616"/>
<path d="M239.06 125.956C238.547 130.305 237.167 134.588 234.976 138.685C234.591 139.429 234.17 140.127 233.718 140.844L233.458 143.076C234.437 141.784 235.314 140.418 236.057 138.997C238.348 134.713 239.777 130.215 240.314 125.75L240.904 120.891L247.718 63.9296L246.482 64.1661L239.079 125.987L239.06 125.956Z" fill="#ED1616"/>
<path d="M230.85 144.6L230.65 146.323C231.135 145.832 231.588 145.343 232.039 144.838L232.274 142.918C231.828 143.503 231.364 144.058 230.868 144.615L230.85 144.6Z" fill="#ED1616"/>
<path d="M241.583 65.0443L241.737 63.7964L240.517 64.0318L240.363 65.2634L241.583 65.0443Z" fill="#ED1616"/>
<path d="M233.717 140.843C233.264 141.543 232.777 142.229 232.256 142.902L232.022 144.823C232.517 144.25 232.996 143.678 233.44 143.076L233.701 140.844L233.717 140.843Z" fill="#ED1616"/>
<path d="M242.818 64.8082L246.463 64.1356L247.684 63.9165L247.837 62.6686L241.736 63.7969L241.583 65.0447L242.818 64.8082Z" fill="#ED1616"/>
<path d="M183.872 129.41L189.468 83.6352C185.135 77.5399 178.175 75.1509 168.815 76.891C149.485 80.4809 136.398 98.7161 132.873 126.929C129.375 155.058 138.488 169.12 157.898 165.508C167.45 163.737 175.479 158.466 181.752 149.872C182.417 148.961 183.049 148.02 183.661 147.048C182.518 143.194 182.674 139.309 183.872 129.41ZM174.312 119.253C171.69 140.647 167.16 150.822 159.662 152.215C149.981 154.011 150.599 138.605 152.493 123.301C155.156 101.791 159.684 91.5834 167.165 90.1918C169.268 89.7944 171.009 90.237 172.319 91.4757C175.712 94.7106 176.339 103.533 174.312 119.253Z" fill="#F36A9F"/>
<path d="M191.441 87.0543L186.327 128.937C185.367 136.753 185.094 140.597 185.596 143.685C189.763 135.895 192.629 126.33 193.928 115.577C195.424 103.296 194.528 93.6798 191.441 87.0543Z" fill="#F36A9F"/>
<path d="M185.093 129.174L190.462 85.2059C190.146 84.6594 189.798 84.1315 189.453 83.636L183.857 129.411C182.643 139.311 182.503 143.194 183.646 147.049C183.967 146.537 184.286 146.01 184.605 145.466C183.805 142.09 183.994 138.204 185.093 129.174Z" fill="#F36A9F"/>
<path d="M191.442 87.0545C191.135 86.4098 190.814 85.7986 190.461 85.2059L185.092 129.174C183.992 138.204 183.788 142.092 184.603 145.466C184.935 144.888 185.266 144.295 185.596 143.685C185.094 140.597 185.369 136.769 186.327 128.938L191.442 87.0545Z" fill="#F36A9F"/>
<path d="M157.731 166.773C137.678 170.497 128.067 155.837 131.623 127.167C135.202 98.3643 148.982 79.3626 168.937 75.6458C178.104 73.936 185.113 76.1099 189.672 81.7331L189.894 79.8619C185.138 74.6761 178.112 72.715 169.09 74.398C148.508 78.2255 134.038 98.0261 130.386 127.387C126.744 156.666 136.897 171.84 157.56 168.006C168.526 165.97 177.735 159.489 184.525 149.508C184.366 149.112 184.207 148.717 184.065 148.337C177.503 158.318 168.502 164.751 157.713 166.758L157.731 166.773Z" fill="#ED1616"/>
<path d="M167.009 91.4227C160.395 92.6535 156.251 102.54 153.727 123.048C151.18 143.688 153.054 152.208 159.813 150.95C166.315 149.744 170.588 139.832 173.089 119.456C175.748 98.7914 173.768 90.1651 167.026 91.4215L167.009 91.4227ZM171.853 119.692C169.508 138.853 165.618 148.672 159.967 149.719C156.306 150.392 151.812 148.344 154.963 122.827C157.381 103.32 161.157 93.7369 166.873 92.6693C168.317 92.4013 169.461 92.6921 170.37 93.5534C173.291 96.3345 173.784 104.89 171.869 119.691L171.853 119.692Z" fill="#ED1616"/>
<path d="M191.995 82.5717L191.729 84.739C195.548 91.5877 196.807 101.926 195.166 115.357C193.743 127.079 190.574 137.187 185.943 145.303C186.057 145.75 186.203 146.195 186.365 146.639C191.426 138.15 194.895 127.483 196.402 115.12C198.16 100.624 196.556 89.5616 191.993 82.5555L191.995 82.5717Z" fill="#ED1616"/>
<path d="M185.017 146.9C184.711 147.394 184.404 147.872 184.098 148.35C184.239 148.73 184.398 149.125 184.557 149.521C184.865 149.059 185.173 148.597 185.464 148.12C185.304 147.709 185.16 147.296 185.016 146.884L185.017 146.9Z" fill="#ED1616"/>
<path d="M190.717 83.1204L190.961 81.1173C190.621 80.6865 190.281 80.2719 189.911 79.8759L189.689 81.7471C190.047 82.1929 190.389 82.6398 190.718 83.1366L190.717 83.1204Z" fill="#ED1616"/>
<path d="M185.943 145.303C185.641 145.845 185.321 146.373 185 146.885C185.128 147.298 185.287 147.694 185.449 148.121C185.755 147.643 186.061 147.149 186.349 146.64C186.187 146.196 186.057 145.75 185.927 145.304L185.943 145.303Z" fill="#ED1616"/>
<path d="M191.994 82.5716C191.665 82.0749 191.319 81.5794 190.976 81.1162L190.732 83.1192C191.078 83.631 191.427 84.175 191.729 84.7389L191.994 82.5716Z" fill="#ED1616"/>
<path d="M172.303 91.4767C170.991 90.2218 169.268 89.7942 167.149 90.1928C159.651 91.5856 155.139 101.792 152.477 123.302C150.583 138.606 149.95 154.029 159.646 152.216C167.16 150.822 171.674 140.648 174.296 119.254C176.323 103.534 175.679 94.7128 172.303 91.4767ZM173.075 119.474C170.574 139.85 166.301 149.762 159.799 150.968C153.04 152.226 151.166 143.706 153.713 123.066C156.253 102.557 160.38 92.6552 166.996 91.4406C173.738 90.1842 175.734 98.8094 173.059 119.475L173.075 119.474Z" fill="#ED1616"/>
<path d="M181.751 149.872C175.48 158.482 167.45 163.738 157.897 165.508C138.488 169.12 129.374 155.042 132.873 126.929C136.381 98.7175 149.485 80.4811 168.815 76.8913C178.175 75.1512 185.134 77.5402 189.468 83.6354L189.703 81.7307C185.144 76.1075 178.135 73.9337 168.968 75.6434C148.997 79.3614 135.233 98.362 131.654 127.164C128.081 155.836 137.709 170.495 157.762 166.771C168.55 164.764 177.552 158.331 184.114 148.35C183.952 147.922 183.806 147.477 183.678 147.063C183.066 148.035 182.435 148.976 181.769 149.887L181.751 149.872Z" fill="#ED1616"/>
<path d="M191.729 84.7386L191.442 87.0539C194.53 93.6956 195.425 103.296 193.928 115.577C192.613 126.331 189.763 135.895 185.596 143.684C185.686 144.247 185.806 144.775 185.942 145.302C190.557 137.188 193.742 127.078 195.165 115.356C196.806 101.926 195.548 91.5874 191.729 84.7386Z" fill="#ED1616"/>
<path d="M190.461 85.2053L190.716 83.1201C190.388 82.6396 190.045 82.1765 189.687 81.7307L189.451 83.6354C189.813 84.1298 190.144 84.6588 190.461 85.2053Z" fill="#ED1616"/>
<path d="M183.645 147.049C183.774 147.479 183.919 147.907 184.08 148.335C184.387 147.857 184.71 147.378 185 146.885C184.851 146.408 184.704 145.946 184.603 145.466C184.285 146.009 183.966 146.537 183.645 147.049Z" fill="#ED1616"/>
<path d="M185.597 143.701C185.268 144.311 184.935 144.888 184.604 145.482C184.721 145.961 184.853 146.44 185.001 146.901C185.32 146.373 185.624 145.847 185.943 145.319C185.807 144.792 185.687 144.264 185.597 143.701Z" fill="#ED1616"/>
<path d="M191.441 87.0543L191.728 84.739C191.41 84.1764 191.077 83.6311 190.731 83.1194L190.476 85.2046C190.828 85.7972 191.15 86.4084 191.457 87.0532L191.441 87.0543Z" fill="#ED1616"/>
<path d="M534.811 64.1191L519.317 14.3169L541.36 10.2201L547.71 32.8147C548.543 35.7481 548.613 39.8435 548.815 45.0684L548.848 45.961L549.072 45.0172C549.513 43.2601 549.668 41.8169 550.022 40.8636C550.688 38.1627 552.144 34.0373 553.288 31.6433L565.202 5.79686L583.616 2.37141L556.267 57.5591L552.406 93.8672L531.181 97.8067L534.795 64.1202L534.811 64.1191Z" fill="#ED1616"/>
<path d="M475.635 22.4488L496.907 18.4896C500.407 17.8438 502.985 17.4932 504.542 17.2006C509.191 16.4711 513.796 16.2493 518.034 17.0142C527.651 18.5749 532.721 25.8531 531.545 36.7273C530.549 46.0425 525.357 54.069 516.769 59.2513L524.969 98.9596L503.103 103.027L497.359 67.989C496.052 68.3609 495.522 68.4646 494.623 68.6278C494.366 68.6791 493.579 68.8179 492.302 68.9273L491.386 69.0917L487.353 105.949L466 109.914L475.65 22.4315L475.635 22.4488ZM496.166 53.187C504.996 51.5506 509.517 47.4946 510.256 40.6715C510.477 38.5725 510.179 36.7068 509.32 35.191C507.489 32.1839 504.856 31.7739 497.455 33.1596L495.256 33.5641L493.057 53.6252C494.864 53.4121 495.507 53.3001 496.165 53.1708L496.166 53.187Z" fill="#ED1616"/>
<path d="M452.236 25.1311C472.207 21.4132 482.157 36.0161 479.011 64.738C475.872 93.3292 462.173 112.325 442.121 116.049C422.068 119.773 412.248 105.16 415.467 76.5471C418.708 47.8019 432.264 28.8491 452.236 25.1311ZM443.997 100.275C450.499 99.0682 454.659 89.1643 456.903 68.8395C459.322 48.2254 457.214 39.6246 450.47 40.8649C443.856 42.0956 439.823 51.9577 437.541 72.4317C435.236 93.0376 437.222 101.533 443.981 100.276L443.997 100.275Z" fill="#ED1616"/>
<path d="M392.86 54.1448L374.43 57.5714L376.338 40.8998L434.569 30.0802L432.708 46.7483L414.021 50.2262L406.024 121.089L384.799 125.028L392.861 54.161L392.86 54.1448Z" fill="#ED1616"/>
<path d="M340.352 106.416C342.5 114.233 346.569 117.597 352.284 116.53C357.614 115.539 362.355 110.93 362.912 106.073C363.113 104.366 362.762 102.894 362.133 101.85C360.866 99.648 359.048 98.8205 352.411 96.8473C348.968 95.8128 345.91 94.7177 343.253 93.5446C334.79 89.7194 331.261 83.061 332.398 73.2148C334.161 58.1159 347.142 44.6562 362.827 41.7389C375.012 39.4674 382.933 44.5525 386.286 56.3982L369.313 65.9833C368.672 59.4236 365.459 56.4197 360.145 57.4092C355.602 58.2612 351.73 62.0583 351.255 66.2586C351.084 67.703 351.314 69.0694 352.087 70.0869C353.483 72.2633 355.656 73.2765 364.041 75.5778C378.707 79.6667 384.251 86.7315 382.81 99.3335C380.984 115.348 367.083 130.014 350.802 133.024C336.995 135.592 327.143 129.46 323.622 115.983L340.386 106.446L340.352 106.416Z" fill="#ED1616"/>
<path d="M526.295 63.6007L510.817 13.7974L532.86 9.70055L539.21 32.2952C540.043 35.2286 540.113 39.324 540.315 44.5489L540.348 45.4415L540.572 44.4976C541.013 42.7406 541.169 41.2974 541.522 40.3441C542.188 37.6432 543.644 33.5178 544.804 31.1226L556.718 5.27615L575.133 1.85069L547.767 57.0395L543.89 93.3488L522.665 97.2883L526.295 63.6007Z" fill="#F36A9F"/>
<path d="M543.754 94.5955L522.529 98.535C521.855 98.6655 521.35 98.2142 521.43 97.5249L525.028 64.0674L509.614 14.471C509.508 14.1208 509.605 13.6743 509.871 13.297C510.136 12.9196 510.538 12.63 510.94 12.5681L532.983 8.47128C533.496 8.36877 533.921 8.61443 534.051 9.06056L540.401 31.6552C540.842 33.234 541.076 35.1045 541.234 37.2735C541.979 34.9899 542.907 32.5465 543.713 30.8768L555.628 5.04653C555.868 4.54088 556.343 4.13202 556.857 4.04569L575.254 0.605239C575.671 0.525996 576.039 0.661892 576.225 0.973812C576.41 1.28573 576.409 1.70893 576.195 2.13129L548.958 57.0667L545.11 93.1135C545.03 93.8027 544.428 94.465 543.736 94.5805L543.754 94.5955ZM524.04 95.8213L542.792 92.3387L546.533 57.2761C546.553 57.1119 546.605 56.9291 546.69 56.7602L573.118 3.44589L557.417 6.36436L545.897 31.3684C544.795 33.6618 543.378 37.6704 542.724 40.3053C542.712 40.3551 542.7 40.421 542.671 40.4719C542.508 40.9069 542.376 41.5511 542.236 42.3099C542.104 42.9541 541.962 43.6805 541.774 44.4589L541.549 45.3866C541.4 46.0158 540.821 46.5624 540.212 46.6882C539.603 46.814 539.136 46.4412 539.109 45.8411L539.01 43.3749C538.85 38.9443 538.708 35.4399 538.005 32.9364L531.874 11.1069L512.495 14.7003L527.482 62.9122C527.525 63.0555 527.536 63.2011 527.514 63.3492L524.021 95.7901L524.04 95.8213Z" fill="#ED1616"/>
<path d="M471.716 63.9843C470.171 78.0584 466.025 89.9302 459.844 98.8912L458.845 107.946L477.725 104.438L481.637 68.826C481.717 68.1368 482.32 67.4745 483.011 67.359L483.927 67.1946C483.927 67.1946 484.007 67.1887 484.056 67.1852C485.286 67.0955 486.024 66.9441 486.264 66.894C487.147 66.732 487.629 66.648 488.888 66.2796C489.51 66.1041 490.003 66.3936 490.109 66.9554L495.707 101.109L514.956 97.5253L507.077 59.3232C506.955 58.7626 507.326 58.0521 507.919 57.6997C515.946 52.8512 520.895 45.2981 521.844 36.4419C522.953 26.2073 518.164 19.2177 509.058 17.7499C505.283 17.0814 500.991 17.134 495.924 17.9428C495.345 18.0338 494.525 18.1749 493.578 18.3417C492.163 18.575 490.409 18.8493 488.321 19.2293L468.285 22.952L467.287 32.0233C471.704 39.04 473.323 49.8731 471.766 63.9969L471.716 63.9843ZM483.323 53.3422L485.522 33.281C485.602 32.5918 486.204 31.9295 486.896 31.814L489.095 31.4096C496.143 30.0983 499.661 30.1348 501.914 33.8107C502.884 35.5136 503.23 37.5713 502.963 39.934C502.145 47.4625 496.939 52.1704 487.514 53.9153C486.857 54.0446 486.165 54.1601 484.326 54.3756C483.681 54.4551 483.241 53.9991 483.323 53.3422Z" fill="#F36A9F"/>
<path d="M501.741 40.1533C501.963 38.0543 501.664 36.1885 500.805 34.6728C498.974 31.6657 496.341 31.2556 488.957 32.6402L486.757 33.0446L484.558 53.1058C486.365 52.8927 487.008 52.7807 487.666 52.6514C496.496 51.015 501.017 46.959 501.756 40.1359L501.741 40.1533ZM487.84 34.0559L488.819 33.8707C496.349 32.4755 498.216 33.0879 499.695 35.5185C500.443 36.8471 500.725 38.4863 500.504 40.3736C500.056 44.4906 498.206 49.4746 487.787 51.4059C487.305 51.4899 486.84 51.5888 485.905 51.7058L487.84 34.0559Z" fill="#ED1616"/>
<path d="M510.062 15.2362C506.056 14.5194 501.537 14.5886 496.18 15.4348C495.57 15.5443 494.798 15.6657 493.865 15.8151C492.434 16.0496 490.664 16.3251 488.545 16.7237L467.289 20.6818C466.615 20.8123 465.995 21.4595 465.915 22.1488L465.143 29.1858C465.515 29.5981 465.855 30.0289 466.198 30.492L467.151 21.9122L488.423 17.953C491.923 17.3073 494.501 16.9566 496.058 16.6641C500.708 15.9345 505.313 15.7127 509.551 16.4776C519.167 18.0383 524.222 25.3177 523.046 36.1919C522.049 45.5071 516.841 53.5347 508.253 58.7171L516.438 98.4427L494.572 102.51L488.844 67.471C487.537 67.8429 487.007 67.9466 486.108 68.1098C485.851 68.1611 485.064 68.2998 483.787 68.4092L482.871 68.5736L478.838 105.431L457.485 109.396L458.439 100.833C457.979 101.436 457.517 102.023 457.038 102.595L456.265 109.615C456.185 110.305 456.673 110.757 457.363 110.626L478.716 106.66C479.39 106.53 480.01 105.883 480.09 105.193L483.989 69.6149C485.071 69.5035 485.762 69.388 486.002 69.3379C486.644 69.2098 487.126 69.1258 487.814 68.9618L493.39 103.036C493.476 103.55 493.921 103.843 494.482 103.737L516.348 99.6696C516.733 99.5928 517.121 99.3366 517.388 98.9755C517.655 98.6143 517.771 98.1991 517.695 97.8303L509.712 59.0826C518.117 53.6207 523.28 45.4336 524.313 35.9368C525.535 24.5873 520.219 16.8389 510.125 15.1991L510.062 15.2362Z" fill="#ED1616"/>
<path d="M468.235 22.9395L488.271 19.2168C490.359 18.8368 492.112 18.5463 493.528 18.3291C494.477 18.1786 495.296 18.0375 495.874 17.9302C500.941 17.1215 505.233 17.0689 509.008 17.7374C518.13 19.204 522.903 26.1947 521.794 36.4294C520.845 45.2855 515.896 52.8387 507.869 57.6872C507.278 58.0558 506.905 58.7501 507.028 59.3107L514.906 97.5128L495.657 101.097L490.059 66.9429C489.969 66.3799 489.46 66.0916 488.838 66.2671C487.594 66.6181 487.097 66.7194 486.214 66.8815C485.974 66.9315 485.235 67.0668 484.006 67.1726C483.974 67.175 483.925 67.1785 483.877 67.1821L482.961 67.3465C482.287 67.477 481.667 68.1242 481.587 68.8135L477.675 104.426L458.795 107.934L459.794 98.8787C459.322 99.5477 458.849 100.201 458.375 100.837L457.421 109.401L478.774 105.436L482.807 68.5781L483.722 68.4137C485.001 68.3205 485.787 68.1656 486.044 68.1143C486.959 67.9499 487.473 67.8474 488.78 67.4755L494.508 102.515L516.374 98.4472L508.189 58.7216C516.776 53.523 521.967 45.4966 522.981 36.1964C524.157 25.3222 519.102 18.0266 509.486 16.4821C505.25 15.7333 500.66 15.9378 495.994 16.6686C494.437 16.9611 491.859 17.3118 488.359 17.9575L467.087 21.9167L466.134 30.4965C466.494 30.9747 466.841 31.4864 467.171 31.9993L468.169 22.928L468.235 22.9395Z" fill="#ED1616"/>
<path d="M484.325 54.3757C486.164 54.1602 486.855 54.0447 487.513 53.9154C496.954 52.1694 502.143 47.4626 502.961 39.9341C503.212 37.5726 502.867 35.5149 501.913 33.8108C499.659 30.1349 496.142 30.0985 489.094 31.4097L486.894 31.8141C486.22 31.9446 485.6 32.5919 485.521 33.2812L483.322 53.3423C483.256 53.998 483.695 54.4379 484.325 54.3757ZM486.741 33.062L488.941 32.6575C496.343 31.288 498.96 31.6992 500.789 34.6901C501.648 36.2059 501.947 38.0717 501.725 40.1706C500.986 46.9937 496.464 51.0335 487.635 52.6861C486.994 52.8142 486.335 52.9274 484.528 53.1405L486.726 33.0793L486.741 33.062Z" fill="#ED1616"/>
<path d="M443.599 25.8421C437.258 27.0204 431.617 29.7749 426.778 33.9354L425.428 45.9938C425.348 46.6831 424.745 47.3454 424.054 47.4608L415.449 49.0646C411.825 56.4886 409.339 65.473 408.172 75.7933C404.995 103.867 414.316 117.881 433.711 114.286C443.263 112.516 451.261 107.263 457.436 98.6762L464.692 33.0423C460.303 26.6257 453.169 24.0866 443.584 25.8594L443.599 25.8421ZM449.626 68.1008C447.245 89.4607 442.843 99.61 435.329 101.004C425.648 102.8 426.089 87.4233 427.807 72.1487C430.213 50.6893 434.628 40.5064 442.11 39.1148C444.213 38.7174 445.953 39.16 447.28 40.3976C450.72 43.6127 451.461 52.4271 449.609 68.102L449.626 68.1008Z" fill="#F36A9F"/>
<path d="M466.713 36.6539L460.371 94.0688C464.942 86.0225 467.996 75.9064 469.259 64.4401C470.56 52.5967 469.65 43.2415 466.729 36.6527L466.713 36.6539Z" fill="#F36A9F"/>
<path d="M464.708 33.0249L457.452 98.6588C457.955 97.9712 458.424 97.2536 458.891 96.5198L465.74 34.6745C465.421 34.0957 465.072 33.5516 464.724 33.0237L464.708 33.0249Z" fill="#F36A9F"/>
<path d="M465.739 34.6585L458.89 96.5038C459.402 95.718 459.896 94.9009 460.371 94.0527L466.713 36.6378C466.402 35.9445 466.077 35.2847 465.721 34.6435L465.739 34.6585Z" fill="#F36A9F"/>
<path d="M433.588 115.516C413.535 119.24 403.715 104.627 406.95 76.0127C408.109 65.7907 410.578 56.8074 414.179 49.2875L412.911 49.5264C409.331 57.1099 406.879 66.1082 405.729 76.2319C402.424 105.437 412.788 120.596 433.45 116.746C442.73 115.028 450.718 110.101 457.021 102.596L457.226 100.709C451.05 108.629 443.027 113.753 433.587 115.5L433.588 115.516Z" fill="#ED1616"/>
<path d="M443.736 24.5954C453.128 22.8529 460.292 25.1456 464.921 31.0566L465.127 29.1866C460.287 23.7304 453.104 21.6342 443.873 23.3487C437.66 24.5014 432.042 27.1241 427.101 30.9991L426.944 32.4262C431.827 28.4252 437.474 25.7516 443.736 24.5954Z" fill="#ED1616"/>
<path d="M441.972 40.3451C435.357 41.5759 431.325 51.4379 429.026 71.9131C426.721 92.519 428.691 101.016 435.466 99.7571C441.968 98.5508 446.128 88.6469 448.389 68.3209C450.807 47.7068 448.714 39.0887 441.972 40.3451ZM447.152 68.5413C445.03 87.653 441.237 97.4488 435.603 98.5105C431.942 99.1842 427.417 97.1547 430.263 71.6928C432.44 52.2191 436.12 42.6593 441.835 41.5918C443.28 41.3237 444.44 41.6134 445.348 42.4584C448.3 45.2372 448.906 53.7685 447.168 68.5401L447.152 68.5413Z" fill="#ED1616"/>
<path d="M470.478 64.2046C469.048 77.1639 465.454 88.133 460.085 96.628L459.827 98.8923C466.024 89.9301 470.154 78.0595 471.699 63.9854C473.257 49.8615 471.637 39.0285 467.22 32.0118L466.977 34.2588C470.648 41.0858 471.922 51.1955 470.48 64.2208L470.478 64.2046Z" fill="#ED1616"/>
<path d="M458.632 98.8006C458.175 99.4523 457.702 100.105 457.21 100.727L457.006 102.613C457.485 102.041 457.947 101.454 458.407 100.851L458.632 98.8006Z" fill="#ED1616"/>
<path d="M465.972 32.5263L466.198 30.4921C465.856 30.0451 465.498 29.5993 465.143 29.1859L464.937 31.0559C465.296 31.5179 465.642 32.0134 465.972 32.5263Z" fill="#ED1616"/>
<path d="M459.826 98.8926L460.084 96.6282C459.618 97.3782 459.133 98.097 458.632 98.8007L458.407 100.851C458.897 100.213 459.37 99.5604 459.826 98.8926Z" fill="#ED1616"/>
<path d="M466.975 34.2429L467.218 31.9959C466.887 31.4668 466.541 30.9713 466.181 30.4931L465.955 32.5273C466.32 33.0703 466.655 33.6479 466.975 34.2429Z" fill="#ED1616"/>
<path d="M442.109 39.0984C434.611 40.4912 430.211 50.6729 427.806 72.1323C426.088 87.4069 425.647 102.784 435.328 100.988C442.842 99.5936 447.244 89.4443 449.624 68.0844C451.458 52.3945 450.719 43.5963 447.295 40.38C445.968 39.1425 444.228 38.6999 442.125 39.0973L442.109 39.0984ZM448.388 68.3047C446.127 88.6307 441.967 98.5346 435.465 99.7409C428.706 100.999 426.72 92.5028 429.025 71.8969C431.324 51.4217 435.34 41.5609 441.971 40.3289C448.713 39.0725 450.805 47.6744 448.388 68.3047Z" fill="#ED1616"/>
<path d="M443.6 25.842C453.2 24.0518 460.318 26.6082 464.708 33.0249L464.923 31.0728C460.294 25.1618 453.112 22.854 443.738 24.6115C437.476 25.7678 431.829 28.4413 426.946 32.4423L426.778 33.9353C431.617 29.7748 437.258 27.0203 443.6 25.842Z" fill="#ED1616"/>
<path d="M433.725 114.269C414.315 117.881 405.009 103.85 408.186 75.7763C409.353 65.456 411.839 56.4715 415.463 49.0475L414.179 49.2876C410.577 56.7914 408.107 65.7746 406.95 76.0128C403.715 104.627 413.535 119.24 433.588 115.516C443.012 113.771 451.034 108.63 457.227 100.726L457.45 98.6591C451.274 107.245 443.294 112.497 433.725 114.269Z" fill="#ED1616"/>
<path d="M469.242 64.4412C467.979 75.9075 464.925 86.0236 460.353 94.07L460.068 96.6292C465.438 88.1504 469.031 77.1651 470.462 64.2058C471.904 51.1806 470.63 41.0709 466.959 34.2438L466.695 36.6551C469.633 43.2426 470.542 52.5817 469.226 64.4424L469.242 64.4412Z" fill="#ED1616"/>
<path d="M457.451 98.6595L457.228 100.726C457.72 100.104 458.176 99.4527 458.65 98.7999L458.906 96.5194C458.439 97.2531 457.955 97.9719 457.468 98.6583L457.451 98.6595Z" fill="#ED1616"/>
<path d="M465.738 34.6585L465.973 32.526C465.643 32.0131 465.297 31.5176 464.938 31.0556L464.722 33.0077C465.086 33.5344 465.419 34.0797 465.738 34.6585Z" fill="#ED1616"/>
<path d="M460.371 94.0684C459.894 94.9005 459.401 95.7175 458.89 96.5196L458.633 98.8001C459.135 98.0964 459.618 97.3614 460.085 96.6277L460.371 94.0684Z" fill="#ED1616"/>
<path d="M466.711 36.6539L466.975 34.2427C466.655 33.6476 466.32 33.07 465.955 32.5271L465.72 34.6596C466.075 35.2846 466.4 35.9606 466.711 36.6539Z" fill="#ED1616"/>
<path d="M424.437 33.2924L424.695 31.0281L368.937 41.3907L368.941 41.4393C373.251 43.6472 376.459 47.6929 378.445 53.5037L384.513 52.3778C385.187 52.2473 385.676 52.6998 385.596 53.3891L377.639 123.028L396.391 119.546L404.284 49.9274C404.364 49.2381 404.983 48.5747 405.658 48.4604L414.263 46.8566C417.096 41.5244 420.506 36.9636 424.454 33.3074L424.437 33.2924Z" fill="#F36A9F"/>
<path d="M424.082 36.4751C421.375 39.2923 418.947 42.5936 416.862 46.358L423.108 45.203L424.082 36.4751Z" fill="#F36A9F"/>
<path d="M424.273 34.8338L424.454 33.291C420.507 36.9634 417.096 41.508 414.263 46.8403L415.547 46.6002C418.014 42.0431 420.947 38.0867 424.273 34.8338Z" fill="#F36A9F"/>
<path d="M424.082 36.475L424.272 34.8339C420.945 38.0868 418.012 42.0433 415.546 46.6003L416.862 46.3579C418.963 42.5923 421.375 39.2922 424.082 36.475Z" fill="#F36A9F"/>
<path d="M367.836 40.3648L426.05 29.5464L425.763 32.0895C426.208 31.7153 426.638 31.3586 427.084 31.0006L427.271 29.3272C427.351 28.638 426.862 28.1854 426.188 28.3159L367.974 39.1343C367.331 39.2463 366.773 39.8403 366.641 40.4845C367.025 40.6192 367.394 40.7713 367.763 40.9234L367.821 40.3822L367.836 40.3648Z" fill="#ED1616"/>
<path d="M405.504 49.6924L397.474 120.557L376.25 124.497L384.343 53.611L378.789 54.6506C378.851 54.8413 378.913 55.0158 378.959 55.2077C379.022 55.3984 378.989 55.6124 378.94 55.8275L382.969 55.0781L375.013 124.717C374.933 125.406 375.421 125.859 376.111 125.727L397.336 121.788C398.01 121.657 398.629 120.994 398.71 120.321L406.587 50.7037L412.896 49.5278C413.107 49.073 413.335 48.6333 413.547 48.1948L405.504 49.6924Z" fill="#ED1616"/>
<path d="M425.411 45.9788L426.761 33.9204C426.301 34.3119 425.859 34.7184 425.417 35.1249L424.174 46.1992L416.114 47.6981C415.886 48.1378 415.659 48.5937 415.432 49.0496L424.037 47.4459C424.711 47.3154 425.331 46.6681 425.411 45.9788Z" fill="#ED1616"/>
<path d="M425.614 33.5806C426.057 33.1903 426.502 32.8161 426.946 32.442L427.103 31.0149C426.657 31.3729 426.211 31.7308 425.783 32.1038L425.614 33.5806Z" fill="#ED1616"/>
<path d="M414.832 47.9543L413.564 48.1932C413.335 48.6329 413.123 49.0715 412.912 49.5262L414.181 49.2873C414.391 48.8326 414.604 48.394 414.832 47.9543Z" fill="#ED1616"/>
<path d="M416.131 47.7132L414.831 47.9545C414.602 48.3942 414.391 48.8489 414.179 49.2875L415.464 49.0474C415.691 48.5915 415.919 48.1518 416.146 47.6959L416.131 47.7132Z" fill="#ED1616"/>
<path d="M426.778 33.9357L426.946 32.4427C426.501 32.8169 426.056 33.191 425.613 33.5813L425.434 35.1402C425.876 34.7337 426.318 34.3272 426.778 33.9357Z" fill="#ED1616"/>
<path d="M405.64 48.445C404.966 48.5755 404.346 49.2228 404.266 49.9121L396.373 119.53L377.621 123.013L385.578 53.3738C385.658 52.6845 385.169 52.232 384.495 52.3625L378.426 53.4884C378.552 53.8698 378.677 54.2511 378.787 54.6337L384.341 53.5941L376.247 124.48L397.472 120.54L405.502 49.6755L413.545 48.1778C413.772 47.7219 414 47.2822 414.244 46.8251L405.639 48.4288L405.64 48.445Z" fill="#ED1616"/>
<path d="M368.936 41.3913L424.693 31.0286L424.435 33.293C424.878 32.8865 425.32 32.48 425.781 32.1047L426.067 29.5616L367.853 40.38L367.795 40.9212C368.181 41.0883 368.568 41.2554 368.939 41.4399L368.936 41.3913Z" fill="#ED1616"/>
<path d="M425.434 35.14C424.978 35.58 424.522 36.0201 424.084 36.4751L423.109 45.203L416.863 46.3581C416.619 46.799 416.376 47.2561 416.132 47.7131L424.192 46.2143L425.434 35.14Z" fill="#ED1616"/>
<path d="M414.245 46.842C414.017 47.2817 413.774 47.7388 413.546 48.1947L414.815 47.9558C415.042 47.4999 415.286 47.059 415.529 46.6019L414.245 46.842Z" fill="#ED1616"/>
<path d="M424.271 34.834C424.711 34.3952 425.153 33.9887 425.611 33.581L425.78 32.1042C425.321 32.4957 424.877 32.886 424.435 33.2925L424.254 34.8352L424.271 34.834Z" fill="#ED1616"/>
<path d="M424.083 36.4751C424.521 36.02 424.976 35.5638 425.434 35.1399L425.613 33.581C425.154 33.9887 424.713 34.4114 424.272 34.8341L424.083 36.4751Z" fill="#ED1616"/>
<path d="M416.846 46.3591L415.529 46.6016C415.284 47.0425 415.041 47.4995 414.814 47.9555L416.114 47.7142C416.358 47.2571 416.585 46.8012 416.846 46.3591Z" fill="#ED1616"/>
<path d="M364.694 57.2729L366.308 43.2588C362.952 41.86 358.912 41.585 354.176 42.4673C339.277 45.2297 326.777 58.1336 325.106 72.4773C324.016 81.8644 327.408 88.2074 335.469 91.8666C338.075 93.011 341.117 94.1235 344.51 95.129C351.247 97.1437 353.281 98.0368 354.698 100.505C355.489 101.765 355.811 103.499 355.605 105.353C354.969 110.915 349.688 116.149 343.603 117.276C337.534 118.402 333.279 115.165 330.926 107.673L316.536 115.849C320.142 128.034 329.484 133.65 342.359 131.247C358.061 128.329 371.224 114.481 372.994 99.0241C374.384 86.8488 369.12 80.2681 354.836 76.2816C346.284 73.9273 343.959 72.8438 342.434 70.4491C341.607 69.3704 341.265 67.8007 341.472 65.963C342.042 61.0561 346.454 56.6176 351.736 55.6466C357.019 54.6757 360.801 57.4428 361.82 63.617L373.933 56.7783L365.745 58.3028C365.071 58.4333 364.583 57.9807 364.662 57.2915L364.694 57.2729Z" fill="#F36A9F"/>
<path d="M367.303 55.5692L375.748 53.9935C374.11 49.6055 371.713 46.412 368.59 44.4266L367.303 55.5692Z" fill="#F36A9F"/>
<path d="M367.452 43.7773C367.079 43.5767 366.709 43.4084 366.306 43.2425L364.692 57.2566C364.612 57.9459 365.101 58.3984 365.775 58.2679L373.962 56.7434L376.26 55.4531C376.22 55.3422 376.179 55.2312 376.138 55.1203L365.928 57.0201L367.451 43.7611L367.452 43.7773Z" fill="#F36A9F"/>
<path d="M368.572 44.4277C368.214 44.1935 367.824 43.9778 367.451 43.7772L365.928 57.0361L376.139 55.1363C376.012 54.7388 375.872 54.3748 375.73 53.9945L367.286 55.5703L368.572 44.4277Z" fill="#F36A9F"/>
<path d="M360.796 65.4488C360.155 58.889 356.942 55.8851 351.628 56.8747C347.086 57.7266 343.213 61.5237 342.738 65.724C342.567 67.1685 342.797 68.5348 343.571 69.5524C344.966 71.7287 347.139 72.7419 355.508 75.0444C370.158 79.1345 375.718 86.1981 374.277 98.8001C372.451 114.815 358.533 129.482 342.253 132.491C328.446 135.06 318.594 128.928 315.089 115.45L331.853 105.913C334.002 113.729 338.055 117.095 343.786 116.026C349.116 115.035 353.857 110.427 354.414 105.569C354.615 103.862 354.28 102.39 353.634 101.347C352.367 99.1446 350.549 98.3171 343.913 96.3439C340.469 95.3095 337.428 94.2132 334.755 93.0412C326.307 89.2148 322.763 82.5576 323.915 72.6941C325.678 57.5951 338.674 44.1343 354.36 41.217C359.047 40.3383 363.1 40.5797 366.512 41.8443L366.65 40.6138C366.65 40.6138 366.676 40.5305 366.689 40.4808C363.218 39.3019 359.136 39.1113 354.514 39.9853C338.218 43.0122 324.541 57.1736 322.697 72.9456C321.482 83.2856 325.194 90.2398 334.013 94.2506C336.687 95.4388 339.796 96.5627 343.272 97.5948C349.958 99.5806 351.428 100.32 352.545 102.256C353.134 103.189 353.357 104.459 353.196 105.821C352.719 109.989 348.645 113.931 343.94 114.795C338.722 115.761 335.072 112.561 333.076 105.27C332.99 104.984 332.795 104.77 332.497 104.694C332.214 104.617 331.861 104.675 331.533 104.862L314.768 114.399C314.128 114.771 313.743 115.515 313.884 116.107C317.499 129.984 327.797 136.426 342.117 133.754C358.942 130.624 373.617 115.186 375.514 98.5798C377.013 85.4365 371.233 78.031 356.151 73.8259C348.082 71.6155 345.945 70.6485 344.642 68.6281C343.905 67.6729 343.878 66.4057 343.992 65.5187C344.39 62.04 347.624 58.859 351.51 58.1525C357.451 57.0522 359.179 61.7916 359.597 65.9593C359.622 66.2992 359.821 66.5776 360.122 66.6858C360.423 66.7941 360.794 66.7508 361.153 66.5456L378.126 56.9605C378.564 56.717 378.858 56.2887 378.973 55.8573L377.304 56.1743L360.83 65.4626L360.796 65.4488Z" fill="#ED1616"/>
<path d="M368.926 41.4406L368.757 42.9174C372.491 45.0372 375.293 48.6568 377.097 53.7487L378.429 53.5051C376.46 47.6931 373.253 43.6635 368.926 41.4406Z" fill="#ED1616"/>
<path d="M378.789 54.6503L377.456 54.8939C377.56 55.2117 377.665 55.5296 377.77 55.8636L377.27 56.1441L378.939 55.8272C378.989 55.612 379.022 55.3981 378.959 55.2074C378.897 55.0167 378.835 54.8422 378.789 54.6503Z" fill="#ED1616"/>
<path d="M366.479 41.8305C366.864 41.9814 367.249 42.1323 367.62 42.3006L367.778 40.9059C367.409 40.7538 367.039 40.5855 366.656 40.467C366.66 40.5156 366.63 40.5503 366.617 40.6L366.479 41.8305Z" fill="#ED1616"/>
<path d="M377.097 53.7489C377.221 54.1141 377.347 54.5117 377.457 54.8943L378.79 54.6507C378.679 54.2519 378.554 53.8705 378.429 53.5053L377.097 53.7489Z" fill="#ED1616"/>
<path d="M368.923 41.4409C368.551 41.2565 368.164 41.0732 367.779 40.9223L367.62 42.317C368.007 42.5003 368.38 42.7009 368.754 42.9177L368.923 41.4409Z" fill="#ED1616"/>
<path d="M361.851 63.5985C360.832 57.4243 357.29 54.6071 351.767 55.6281C346.244 56.6492 342.058 61.055 341.503 65.9445C341.295 67.7821 341.638 69.3518 342.465 70.4306C343.99 72.8253 346.315 73.9088 354.866 76.263C369.151 80.2496 374.416 86.8465 373.025 99.0056C371.255 114.463 358.075 128.311 342.39 131.229C329.53 133.615 320.172 128.016 316.566 115.831L330.957 107.654C333.309 115.147 337.565 118.384 343.634 117.258C349.718 116.131 354.998 110.881 355.635 105.334C355.842 103.48 355.52 101.746 354.729 100.486C353.312 98.0183 351.278 97.1252 344.541 95.1105C341.147 94.0887 338.089 92.9936 335.5 91.8481C327.422 88.19 324.031 81.8471 325.136 72.4588C326.808 58.1151 339.309 45.2273 354.207 42.4488C358.927 41.5677 362.966 41.8427 366.339 43.2403L366.496 41.8294C363.085 40.5648 359.033 40.3396 354.344 41.2021C338.659 44.1194 325.663 57.5803 323.9 72.6792C322.746 82.5265 326.292 89.2 334.74 93.0263C337.396 94.1995 340.455 95.3108 343.897 96.329C350.534 98.3022 352.352 99.1298 353.619 101.332C354.264 102.375 354.599 103.848 354.398 105.554C353.841 110.412 349.101 115.021 343.77 116.011C338.039 117.08 333.986 113.714 331.838 105.898L315.073 115.435C318.594 128.912 328.447 135.044 342.237 132.477C358.517 129.451 372.418 114.785 374.261 98.7852C375.702 86.1832 370.159 79.1185 355.492 75.0295C347.123 72.727 344.95 71.7139 343.555 69.5375C342.781 68.52 342.568 67.1524 342.723 65.7091C343.214 61.5077 347.086 57.7105 351.613 56.8598C356.927 55.8703 360.14 58.8742 360.781 65.4339L377.255 56.1455L373.947 56.7609L361.835 63.5997L361.851 63.5985Z" fill="#ED1616"/>
<path d="M368.754 42.9014L368.573 44.4279C371.695 46.4133 374.092 49.6068 375.73 53.9948L377.095 53.7488C375.292 48.6569 372.49 45.0373 368.755 42.9176L368.754 42.9014Z" fill="#ED1616"/>
<path d="M376.26 55.4691L373.963 56.7594L377.27 56.144L377.77 55.8635C377.68 55.5283 377.56 55.2116 377.455 54.8938L376.139 55.1363C376.179 55.2472 376.22 55.3581 376.26 55.4691Z" fill="#ED1616"/>
<path d="M367.452 43.7774L367.62 42.3006C367.25 42.1323 366.864 41.9652 366.48 41.8305L366.322 43.2414C366.709 43.4085 367.096 43.5917 367.468 43.7762L367.452 43.7774Z" fill="#ED1616"/>
<path d="M368.571 44.4278L368.753 42.9012C368.379 42.6844 368.007 42.4838 367.619 42.3005L367.45 43.7773C367.839 43.9768 368.213 44.1936 368.571 44.4278Z" fill="#ED1616"/>
<path d="M375.747 53.9936C375.889 54.3738 376.029 54.7378 376.156 55.1354L377.472 54.8929C377.347 54.5115 377.236 54.1128 377.112 53.7476L375.747 53.9936Z" fill="#ED1616"/>
</svg>
