<svg width="537" height="392" viewBox="0 0 537 392" fill="none" xmlns="http://www.w3.org/2000/svg">
<path d="M508.572 216.07C504.898 207.458 497.939 201.309 488.991 198.803C486.876 198.204 484.757 197.903 482.629 197.813C480.642 196.735 478.497 195.865 476.249 195.228C474.17 194.644 472.094 194.342 470.01 194.25L472.768 184.449C475.625 174.284 469.688 163.719 459.523 160.863L411.815 147.48L403.214 145.063L390.339 141.45C385.629 140.124 380.563 140.656 376.234 142.955L374.966 143.634C372.636 138.99 368.436 135.316 363.042 133.792L347.251 129.352C344.354 128.534 341.403 128.463 338.618 128.982C336.48 127.085 333.95 125.636 331.107 124.841L310.563 119.077C307.799 118.296 304.961 118.211 302.226 118.666C300.154 116.863 297.67 115.455 294.844 114.669L270.604 107.858C263.833 105.957 256.558 107.93 251.667 112.982L249.185 115.567L248.398 112.083C246.865 105.219 241.681 99.755 234.91 97.8536L210.67 91.0429C200.504 88.1869 189.94 94.1234 187.084 104.289L182.546 120.443C181.635 119.887 180.732 119.313 179.859 118.817C177.122 117.253 174.198 115.822 171.12 114.493C167.953 113.125 164.308 111.865 160.319 110.753C150.766 108.062 141.202 107.277 131.862 108.394C129.959 108.619 128.078 108.94 126.217 109.312C124.935 101.401 119.11 94.7283 110.35 92.2837C108.119 91.6545 105.787 91.3019 103.395 91.1802C101.646 90.1435 99.7127 89.2818 97.6075 88.7085C92.7208 87.3464 87.4229 87.1959 81.8988 88.2751C77.0357 89.2197 72.2253 91.1535 67.6051 94.0089C63.1303 96.7789 59.0786 100.381 55.5854 104.705C51.8272 109.382 49.0274 114.894 47.2778 121.132C44.953 129.431 45.3708 137.643 48.4585 144.921C52.132 153.532 59.0919 159.681 68.0396 162.188C69.0882 162.483 70.1328 162.691 71.1935 162.863C69.2686 171.276 68.8385 179.561 69.8855 187.517C71.0925 196.704 73.9998 205.253 78.5082 212.906C82.9589 220.447 88.77 227.007 95.7843 232.407C102.789 237.782 110.686 241.73 119.226 244.141C124.895 245.723 130.665 246.835 136.431 247.43C142.566 248.061 148.318 247.963 153.529 247.152C154.297 247.066 155.01 246.911 155.733 246.782C155.834 246.892 155.91 247.011 156.011 247.121C161.753 253.499 168.943 257.927 177.385 260.315C184.29 262.255 190.94 262.837 197.278 262.098C199.738 264.139 202.632 265.686 205.778 266.573C208.257 267.27 210.438 267.77 212.452 268.066C213.495 268.23 214.494 268.397 215.379 268.577C215.813 268.663 216.593 268.839 217.739 269.156C219.09 269.544 219.697 269.771 219.759 269.777C220.58 270.1 221.473 270.455 222.448 270.868C224.308 271.654 226.437 272.367 228.934 273.072C231.183 273.709 233.459 273.994 235.704 273.964C237.707 275.2 239.766 276.118 241.863 276.709C244.361 277.414 246.549 277.896 248.555 278.21C249.518 278.36 250.474 278.529 251.349 278.683C251.783 278.769 252.563 278.945 253.709 279.262C255.006 279.626 255.728 279.883 255.987 279.977C256.853 280.298 257.746 280.653 258.667 281.042C260.527 281.828 262.656 282.541 265.153 283.246C267.063 283.775 269.015 284.066 271.027 284.126C274.205 286.529 278.194 288.607 283.206 290.025C288.493 291.501 293.876 291.797 299.243 290.926C302.619 294.233 306.647 296.608 311.098 297.84C315.941 299.204 320.94 299.543 325.982 298.872C329.265 301.858 333.187 304.036 337.63 305.286C342.02 306.512 346.641 306.64 351.399 305.691C355.708 309.264 360.723 311.928 366.232 313.482C371.634 314.988 377.069 315.457 382.422 314.859C384.5 314.626 386.552 314.211 388.547 313.683C392.169 317.98 397.636 322.133 405.873 324.452C411.675 326.071 417.59 326.282 423.495 325.072C428.103 324.121 432.045 322.788 435.58 320.972C438.419 319.512 445.952 315.658 448.443 306.746C449.048 304.57 449.38 302.379 449.402 300.114C449.487 290.967 443.699 283.151 434.97 280.635L436.333 275.748C441.779 277.059 449.094 276.198 454.835 270.538C456.245 271.274 457.773 271.89 459.417 272.344C464.304 273.706 469.602 273.856 475.126 272.777C479.989 271.832 484.799 269.899 489.419 267.043C493.894 264.273 497.946 260.671 501.439 256.347C505.197 251.67 507.997 246.158 509.747 239.92C512.071 231.621 511.654 223.409 508.566 216.131L508.572 216.07Z" fill="black"/>
<path d="M99.0537 236.096C97.7152 235.199 96.4105 234.275 95.1297 233.296C87.998 227.822 82.0856 221.153 77.5673 213.474C72.9735 205.675 70.0165 196.997 68.7937 187.653C67.7843 179.95 68.1465 171.914 69.8721 163.755C69.1199 163.613 68.4374 163.459 67.7709 163.27C58.4849 160.655 51.2705 154.307 47.4501 145.351C44.2292 137.843 43.8077 129.35 46.2184 120.81C48.0059 114.439 50.8775 108.766 54.7274 103.979C58.3122 99.5463 62.4476 95.8525 67.034 93.0248C71.7657 90.1118 76.7055 88.1284 81.7159 87.1422C87.431 86.0193 92.8961 86.1799 97.952 87.596C99.9954 88.1632 101.945 88.9891 103.765 90.0577C106.175 90.1874 108.499 90.5579 110.686 91.189C119.19 93.5837 125.405 99.9586 127.149 107.989C128.785 107.688 130.284 107.455 131.759 107.275C141.238 106.134 150.943 106.94 160.647 109.676C164.69 110.812 168.371 112.088 171.592 113.48C174.687 114.817 177.657 116.29 180.43 117.869C180.908 118.147 181.385 118.424 181.872 118.727L185.993 104.039C189.007 93.2782 200.222 86.9881 210.982 90.002L235.223 96.8126C242.412 98.8358 247.889 104.603 249.53 111.901L249.839 113.326L250.845 112.272C256.029 106.9 263.72 104.812 270.908 106.835L295.149 113.646C297.877 114.41 300.365 115.713 302.561 117.528C305.403 117.121 308.184 117.287 310.868 118.053L331.411 123.818C334.175 124.599 336.709 125.942 338.953 127.843C341.863 127.38 344.748 127.55 347.548 128.347L363.338 132.787C368.448 134.227 372.793 137.623 375.418 142.183L375.693 142.048C380.297 139.615 385.615 139.045 390.635 140.445L459.819 159.858C465.026 161.32 469.364 164.734 472.004 169.451C474.662 174.177 475.318 179.641 473.856 184.848L471.485 193.298C473.238 193.457 474.92 193.777 476.545 194.223C478.776 194.852 480.929 195.704 482.934 196.79C485.141 196.894 487.262 197.238 489.28 197.816C498.573 200.412 505.78 206.778 509.6 215.734C512.821 223.242 513.243 231.735 510.85 240.283C509.062 246.654 506.191 252.327 502.341 257.114C498.756 261.547 494.621 265.241 490.034 268.068C485.303 270.981 480.363 272.965 475.352 273.951C469.637 275.074 464.172 274.913 459.116 273.497C457.739 273.12 456.383 272.601 455.056 271.967C450.173 276.422 443.598 278.32 437.156 277.124L436.367 279.905C444.976 282.883 450.615 290.89 450.544 300.15C450.508 302.495 450.181 304.817 449.536 307.083C446.9 316.467 439.05 320.501 436.081 322.011C432.469 323.856 428.423 325.23 423.711 326.22C417.642 327.464 411.534 327.253 405.563 325.579C398.41 323.572 392.548 320.016 388.131 315C386.152 315.492 384.315 315.81 382.543 316.029C377.051 316.651 371.467 316.18 365.914 314.628C360.476 313.106 355.483 310.537 351.086 306.969C346.316 307.848 341.675 307.668 337.304 306.45C332.897 305.215 328.95 303.092 325.59 300.135C320.58 300.735 315.596 300.36 310.771 299.004C306.328 297.753 302.322 295.475 298.85 292.189C293.498 292.98 288.13 292.648 282.887 291.17C278.275 289.866 274.151 287.9 270.631 285.301C268.653 285.214 266.701 284.923 264.834 284.392C262.276 283.681 260.119 282.934 258.197 282.142C257.294 281.761 256.419 281.414 255.553 281.093C255.32 280.989 254.626 280.765 253.373 280.4C252.262 280.098 251.526 279.921 251.092 279.835C250.243 279.67 249.305 279.51 248.342 279.36C246.293 279.048 244.068 278.55 241.509 277.839C239.412 277.248 237.327 276.34 235.334 275.13C233.079 275.134 230.811 274.831 228.562 274.194C226.003 273.483 223.847 272.736 221.943 271.952C220.986 271.547 220.11 271.2 219.289 270.877C219.235 270.853 218.646 270.633 217.385 270.286C216.274 269.984 215.538 269.806 215.104 269.72C214.211 269.558 213.238 269.382 212.213 269.226C210.163 268.913 207.921 268.408 205.406 267.695C202.296 266.824 199.431 265.354 196.866 263.31C190.499 263.97 183.82 263.355 177.013 261.437C168.429 259.029 161.114 254.545 155.245 248.067C154.705 248.17 154.174 248.255 153.607 248.324C148.326 249.147 142.468 249.241 136.253 248.596C130.444 248.003 124.594 246.877 118.872 245.271C111.754 243.28 105.072 240.216 98.978 236.17L99.0537 236.096ZM72.5886 161.897L72.3168 163.085C70.4219 171.383 69.9859 179.536 71.0351 187.343C72.2263 196.372 75.0741 204.766 79.5069 212.299C83.8822 219.721 89.5919 226.171 96.5048 231.462C103.4 236.745 111.154 240.63 119.561 243.003C125.168 244.579 130.884 245.667 136.562 246.266C142.574 246.884 148.238 246.791 153.372 246.009C154.14 245.923 154.827 245.778 155.506 245.651L156.141 245.527L156.767 246.192C162.481 252.536 169.482 256.858 177.702 259.169C184.375 261.048 190.939 261.634 197.155 260.928L197.635 260.863L198.009 261.179C200.423 263.178 203.136 264.602 206.087 265.444C208.53 266.126 210.657 266.601 212.619 266.918C213.662 267.082 214.679 267.256 215.59 267.426C216.042 267.52 216.848 267.686 218.048 268.028C219.478 268.429 220.103 268.665 220.157 268.688C220.996 269.02 221.89 269.375 222.864 269.788C224.671 270.55 226.764 271.246 229.217 271.953C231.35 272.561 233.521 272.841 235.669 272.79L236.011 272.792L236.299 272.964C238.203 274.134 240.19 275.019 242.172 275.581C244.633 276.27 246.778 276.753 248.731 277.044C249.72 277.184 250.675 277.352 251.56 277.532C252.012 277.626 252.818 277.792 254.018 278.134C255.369 278.521 256.117 278.769 256.393 278.87C257.277 279.2 258.17 279.555 259.109 279.952C260.933 280.722 263.008 281.411 265.462 282.118C267.256 282.617 269.147 282.901 271.071 282.965L271.432 282.975L271.722 283.19C275.081 285.717 279.054 287.638 283.515 288.896C288.606 290.328 293.84 290.622 299.05 289.767L299.625 289.68L300.047 290.083C303.339 293.288 307.15 295.523 311.398 296.729C316.09 298.048 320.94 298.385 325.825 297.729L326.348 297.662L326.75 298.012C329.942 300.915 333.701 302.977 337.931 304.175C342.108 305.35 346.58 305.475 351.172 304.56L351.711 304.458L352.131 304.816C356.395 308.347 361.228 310.887 366.551 312.379C371.812 313.865 377.113 314.296 382.291 313.706C384.168 313.491 386.116 313.115 388.268 312.572L388.971 312.392L389.434 312.941C393.603 317.889 399.252 321.394 406.192 323.349C411.817 324.933 417.565 325.133 423.26 323.959C427.755 323.022 431.619 321.718 435.042 319.96C437.762 318.576 444.969 314.877 447.331 306.444C447.915 304.365 448.223 302.228 448.251 300.094C448.333 291.483 442.871 284.091 434.64 281.711L433.556 281.399L435.525 274.38L436.589 274.639C438.939 275.193 447.15 276.513 454.017 269.723L454.597 269.144L455.333 269.515C456.743 270.251 458.207 270.817 459.692 271.243C464.401 272.569 469.514 272.701 474.873 271.656C479.615 270.743 484.296 268.859 488.796 266.079C493.16 263.367 497.102 259.866 500.519 255.616C504.178 251.066 506.904 245.671 508.626 239.592C510.874 231.56 510.476 223.592 507.488 216.574C503.951 208.281 497.266 202.383 488.647 199.958C486.719 199.421 484.669 199.109 482.549 199.001L482.277 198.987L482.026 198.875C480.101 197.803 478.027 196.965 475.887 196.375C473.994 195.854 471.988 195.54 469.913 195.43L468.48 195.371L471.616 184.193C472.902 179.573 472.343 174.71 469.981 170.524C467.619 166.338 463.79 163.323 459.16 162.011L389.976 142.598C385.515 141.339 380.8 141.856 376.71 144.004L374.412 145.211L373.891 144.164C371.629 139.658 367.538 136.268 362.669 134.914L346.879 130.474C344.231 129.723 341.514 129.607 338.773 130.124L338.234 130.227L337.822 129.85C335.73 127.995 333.355 126.679 330.761 125.952L310.217 120.188C307.702 119.475 305.055 119.347 302.364 119.801L301.832 119.886L301.43 119.535C299.386 117.766 297.057 116.491 294.498 115.78L270.257 108.97C263.886 107.182 257.054 109.03 252.458 113.807L248.507 117.905L247.269 112.352C245.814 105.889 240.953 100.761 234.582 98.9734L210.341 92.1628C200.789 89.4725 190.85 95.0653 188.16 104.618L183.212 122.221L181.39 121.108C180.668 120.658 179.964 120.215 179.272 119.843C176.563 118.313 173.664 116.872 170.641 115.567C167.509 114.214 163.936 112.987 159.99 111.873C150.589 109.228 141.148 108.455 131.992 109.546C130.246 109.755 128.443 110.046 126.416 110.452L125.259 110.688L125.076 109.512C123.839 101.836 118.072 95.6604 110.047 93.3936C107.932 92.7944 105.687 92.4379 103.349 92.3401L103.058 92.3179L102.824 92.1704C101.111 91.1497 99.2509 90.3637 97.3129 89.8006C92.6033 88.4744 87.4905 88.342 82.1317 89.3876C77.39 90.3004 72.709 92.1846 68.2083 94.9645C63.8529 97.659 59.9028 101.178 56.4933 105.41C52.8347 109.96 50.1087 115.355 48.3871 121.433C46.1382 129.466 46.5364 137.433 49.5248 144.452C53.0613 152.745 59.7467 158.642 68.3661 161.067C69.2635 161.317 70.2206 161.529 71.4046 161.713L72.6065 161.905L72.5886 161.897Z" fill="black"/>
<path d="M93.1978 227.198C91.8413 226.294 90.5088 225.335 89.1922 224.34C81.9332 218.767 75.9194 211.988 71.3256 204.189C66.6384 196.264 63.6477 187.42 62.4012 177.937C61.4194 170.461 61.7137 162.673 63.2579 154.777C62.8858 154.697 62.5396 154.607 62.2014 154.5C58.8607 153.569 55.7433 152.137 52.923 150.279C47.7417 146.833 43.6606 141.881 41.1329 135.948C37.8307 128.188 37.3716 119.443 39.8502 110.654C41.6836 104.132 44.611 98.3331 48.5864 93.4092C52.2371 88.877 56.4741 85.0996 61.1799 82.1965C66.0311 79.2079 71.1003 77.1749 76.2421 76.1828C82.1404 75.0343 87.7806 75.1871 93.0056 76.6571C95.049 77.2243 96.9987 78.0502 98.8526 79.091C101.255 79.2386 103.571 79.627 105.766 80.2402C108.44 80.9812 110.938 82.1161 113.154 83.5971C117.973 86.7962 121.33 91.4467 122.78 96.8139C124.034 96.6002 125.228 96.4242 126.389 96.2761C135.999 95.1292 145.872 95.945 155.717 98.7012C159.796 99.8536 163.53 101.153 166.795 102.543C169.926 103.896 172.932 105.386 175.759 106.988C175.83 107.02 175.884 107.044 175.948 107.094L179.666 93.8367C182.864 82.4715 194.695 75.8118 206.06 79.0094L230.301 85.82C232.459 86.4172 234.502 87.3706 236.356 88.6044C240.795 91.5484 243.942 95.9977 245.258 101.134C250.725 95.8014 258.602 93.7751 265.986 95.8423L290.227 102.653C292.36 103.26 294.375 104.18 296.228 105.413C296.708 105.734 297.197 106.081 297.652 106.456C300.463 106.12 303.253 106.312 305.937 107.079L326.481 112.843C328.578 113.434 330.576 114.346 332.429 115.579C332.99 115.958 333.525 116.347 334.062 116.779C336.958 116.396 339.836 116.584 342.635 117.381L358.426 121.821C360.603 122.426 362.628 123.371 364.489 124.587C366.94 126.215 369.017 128.343 370.619 130.817C375.326 128.536 380.667 128.062 385.723 129.478L454.913 148.83C457.09 149.435 459.115 150.38 460.994 151.604C468.743 156.753 472.281 166.248 469.758 175.231L467.751 182.384C469.084 182.571 470.403 182.837 471.665 183.184C473.895 183.813 476.03 184.657 478.051 185.708C480.25 185.83 482.389 186.182 484.407 186.759C487.748 187.69 490.865 189.122 493.685 190.98C498.867 194.426 502.948 199.378 505.475 205.311C508.778 213.071 509.237 221.816 506.758 230.605C504.925 237.127 501.997 242.926 498.022 247.85C494.371 252.382 490.134 256.159 485.428 259.062C480.595 262.059 475.508 264.084 470.366 265.076C464.468 266.225 458.828 266.072 453.603 264.602C452.403 264.26 451.217 263.839 450.053 263.321C445.235 267.44 438.99 269.271 432.783 268.415L432.555 269.214C433.994 269.791 435.35 270.503 436.625 271.35C442.865 275.504 446.555 282.535 446.474 290.182C446.434 292.632 446.085 295.051 445.418 297.415C442.654 307.278 434.478 311.468 431.39 313.053C427.692 314.946 423.543 316.359 418.743 317.353C412.483 318.641 406.208 318.42 400.049 316.684C395.891 315.518 392.121 313.816 388.811 311.612C386.496 310.065 384.398 308.272 382.527 306.258C380.756 306.67 379.084 306.955 377.451 307.15C371.82 307.796 366.077 307.296 360.39 305.706C356.098 304.502 352.05 302.655 348.343 300.188C347.384 299.546 346.459 298.876 345.55 298.171C340.795 298.97 336.162 298.772 331.78 297.528C328.573 296.635 325.581 295.259 322.878 293.475C321.884 292.817 320.921 292.088 320 291.313C314.996 291.851 310.047 291.448 305.24 290.1C302.299 289.283 299.504 287.995 296.944 286.275C295.651 285.42 294.424 284.465 293.253 283.385C287.914 284.097 282.589 283.719 277.356 282.267C273.215 281.109 269.428 279.399 266.136 277.203C265.756 276.948 265.376 276.692 265.004 276.419C263.052 276.322 261.133 276.004 259.303 275.488C256.69 274.753 254.49 274.009 252.54 273.183C251.655 272.81 250.78 272.463 249.932 272.149C249.699 272.046 249.041 271.838 247.841 271.497C246.775 271.193 246.066 271.049 245.658 270.953C244.809 270.789 243.889 270.637 242.944 270.495C240.851 270.184 238.59 269.67 235.978 268.935C233.88 268.344 231.806 267.462 229.804 266.27C227.557 266.256 225.279 265.928 223.049 265.298C220.454 264.571 218.236 263.819 216.286 262.993C215.347 262.596 214.472 262.249 213.65 261.926C213.56 261.886 213.017 261.708 211.853 261.382C210.787 261.079 210.078 260.935 209.67 260.839C208.777 260.677 207.822 260.509 206.805 260.335C204.702 259.998 202.433 259.502 199.856 258.783C197.341 258.07 194.932 256.975 192.717 255.494C192.237 255.173 191.748 254.827 191.285 254.47C184.897 255.079 178.243 254.409 171.472 252.508C166.549 251.13 161.981 249.052 157.894 246.329C154.883 244.322 152.093 241.962 149.578 239.275C149.23 239.334 148.863 239.386 148.497 239.437C143.146 240.272 137.201 240.37 130.881 239.72C124.992 239.114 119.08 237.981 113.304 236.352C106.072 234.33 99.282 231.219 93.0884 227.107L93.1978 227.198Z" fill="#FFF500"/>
<path d="M459.54 153.746C466.259 158.221 469.67 166.651 467.367 174.852L464.609 184.654C466.692 184.745 468.768 185.048 470.847 185.631C473.114 186.276 475.24 187.138 477.227 188.217C479.355 188.306 481.474 188.607 483.589 189.206C486.735 190.093 489.62 191.421 492.205 193.131C497.007 196.323 500.772 200.876 503.153 206.465C506.266 213.733 506.676 221.963 504.333 230.254C502.592 236.474 499.784 242.004 496.026 246.681C492.524 251.022 488.499 254.615 484.006 257.377C479.386 260.232 474.583 262.148 469.712 263.111C464.188 264.19 458.89 264.039 454.003 262.677C452.36 262.224 450.858 261.597 449.422 260.872C443.688 266.514 436.373 267.375 430.919 266.082L429.557 270.969C431.592 271.554 433.474 272.435 435.147 273.545C440.662 277.205 444.046 283.434 443.989 290.447C443.967 292.712 443.626 294.921 443.029 297.08C440.521 305.984 433.006 309.846 430.166 311.306C426.632 313.121 422.69 314.455 418.081 315.406C412.195 316.624 406.262 316.405 400.46 314.785C396.248 313.595 392.761 311.934 389.877 310.026C387.11 308.192 384.903 306.114 383.133 304.017C381.139 304.544 379.094 304.942 377.008 305.193C371.674 305.799 366.213 305.34 360.819 303.816C356.714 302.673 352.889 300.904 349.434 298.592C348.24 297.803 347.097 296.95 346.003 296.033C341.245 296.982 336.598 296.864 332.235 295.628C329.24 294.787 326.463 293.506 323.977 291.862C322.784 291.073 321.656 290.184 320.586 289.213C315.544 289.885 310.545 289.546 305.702 288.182C302.974 287.417 300.412 286.232 298.043 284.661C296.551 283.675 295.149 282.535 293.847 281.268C288.48 282.138 283.097 281.842 277.81 280.366C273.598 279.176 270.129 277.523 267.227 275.607C266.666 275.229 266.141 274.866 265.632 274.467C263.62 274.408 261.642 274.127 259.757 273.588C257.26 272.883 255.132 272.17 253.271 271.384C252.35 270.995 251.457 270.64 250.592 270.319C250.341 270.207 249.611 269.967 248.313 269.604C247.167 269.286 246.387 269.11 245.954 269.024C245.086 268.852 244.131 268.684 243.16 268.552C241.172 268.246 238.965 267.756 236.468 267.051C234.371 266.46 232.294 265.534 230.309 264.306C228.056 264.354 225.787 264.051 223.539 263.414C221.042 262.709 218.913 261.996 217.053 261.21C216.096 260.805 215.203 260.45 214.363 260.119C214.309 260.095 213.72 259.875 212.343 259.498C211.197 259.18 210.417 259.004 209.984 258.918C209.072 258.748 208.081 258.564 207.056 258.408C205.033 258.086 202.862 257.612 200.383 256.915C198.055 256.264 195.85 255.238 193.879 253.931C193.183 253.47 192.521 252.982 191.883 252.44C185.545 253.178 178.894 252.597 171.99 250.657C167.28 249.331 162.963 247.364 159.049 244.783C155.966 242.744 153.154 240.289 150.607 237.481C150.506 237.371 150.431 237.251 150.329 237.142C149.607 237.271 148.894 237.425 148.126 237.512C142.914 238.323 137.162 238.421 131.027 237.79C125.28 237.203 119.509 236.091 113.822 234.501C106.821 232.539 100.246 229.524 94.2511 225.543C92.9224 224.672 91.6436 223.737 90.3808 222.767C83.3664 217.366 77.5554 210.807 73.1046 203.265C68.5783 195.604 65.6889 187.063 64.4819 177.877C63.4349 169.921 63.865 161.636 65.7899 153.223C64.7293 153.051 63.6846 152.843 62.636 152.547C59.4903 151.66 56.6057 150.332 54.0201 148.622C49.2187 145.431 45.4537 140.877 43.0728 135.288C39.9593 128.021 39.5494 119.791 41.8921 111.5C43.6338 105.28 46.4415 99.7497 50.1997 95.0723C53.7009 90.731 57.7267 87.1385 62.2195 84.3765C66.8397 81.5211 71.6421 79.6052 76.5132 78.6427C82.0372 77.5635 87.3351 77.7139 92.2219 79.0761C94.319 79.6673 96.2607 80.5111 98.0091 81.5477C100.401 81.6695 102.734 82.0221 104.964 82.6512C107.461 83.3562 109.719 84.4053 111.708 85.7209C116.672 89.0276 119.914 94.0343 120.823 99.6975C122.685 99.3251 124.566 99.0046 126.469 98.7795C135.79 97.6543 145.365 98.4658 154.925 101.138C158.915 102.251 162.551 103.528 165.727 104.879C168.786 106.199 171.72 107.657 174.466 109.202C175.339 109.698 176.26 110.28 177.153 110.829L181.691 94.6743C184.547 84.5088 195.111 78.5723 205.276 81.4284L229.517 88.2391C231.463 88.7843 233.291 89.6419 234.936 90.7183C238.977 93.3992 241.919 97.5856 243.023 102.477L243.809 105.96L246.292 103.376C251.183 98.3231 258.439 96.342 265.228 98.2514L289.469 105.062C291.433 105.615 293.225 106.457 294.834 107.517C295.548 107.986 296.22 108.5 296.851 109.06C299.586 108.605 302.424 108.689 305.187 109.47L325.731 115.234C327.641 115.763 329.434 116.605 331.035 117.683C331.812 118.202 332.548 118.766 333.252 119.401C336.037 118.882 338.963 118.963 341.886 119.772L357.676 124.212C359.658 124.773 361.476 125.605 363.095 126.691C365.889 128.559 368.126 131.1 369.6 134.053L370.868 133.374C375.197 131.075 380.263 130.543 384.973 131.869L397.848 135.482L406.45 137.899L454.157 151.283C456.139 151.844 457.957 152.676 459.576 153.762L459.54 153.746ZM462.109 149.955C460.057 148.59 457.791 147.558 455.391 146.875L407.684 133.492L399.082 131.075L386.207 127.462C381.249 126.068 376.03 126.318 371.277 128.17C369.703 126.116 367.78 124.315 365.61 122.876C363.558 121.511 361.292 120.48 358.892 119.797L343.102 115.357C340.32 114.568 337.449 114.318 334.582 114.586C334.246 114.329 333.902 114.09 333.55 113.869C331.498 112.503 329.285 111.496 326.965 110.827L306.422 105.063C303.748 104.322 300.989 104.058 298.183 104.288C297.91 104.081 297.63 103.892 297.349 103.702C295.297 102.337 293.067 101.322 290.703 100.655L266.462 93.8442C259.425 91.8669 252.002 93.2587 246.212 97.4385C244.425 93.1657 241.419 89.5086 237.495 86.9015C235.425 85.5282 233.177 84.505 230.777 83.8219L206.536 77.0113C200.45 75.3076 194.06 76.0656 188.538 79.163C183.016 82.2603 179.039 87.3336 177.335 93.4201L174.397 103.914C172.205 102.765 169.927 101.664 167.584 100.663C164.22 99.2068 160.388 97.8855 156.211 96.7111C146.082 93.871 135.9 93.025 125.994 94.2114C125.426 94.2805 124.833 94.3596 124.24 94.4386C122.426 89.3597 119.003 85.0016 114.301 81.8763C111.886 80.2638 109.173 79.0331 106.276 78.2142C104.099 77.609 101.791 77.2028 99.4226 77.0273C97.5528 76.0223 95.5952 75.2144 93.5338 74.6391C87.9626 73.0793 81.9702 72.8982 75.7156 74.124C70.305 75.1895 64.9849 77.3039 59.8947 80.4435C54.9758 83.4877 50.5356 87.432 46.7276 92.173C42.5609 97.3336 39.4879 103.411 37.5885 110.226C34.984 119.537 35.4486 128.801 38.9732 137.024C41.6777 143.379 46.055 148.678 51.5982 152.371C54.329 154.189 57.3409 155.617 60.5701 156.605C59.303 164.024 59.1286 171.35 60.0749 178.424C61.353 188.221 64.4608 197.332 69.301 205.54C74.0458 213.578 80.2545 220.594 87.7402 226.333C89.0846 227.361 90.4628 228.362 91.8551 229.283C98.2476 233.526 105.27 236.741 112.725 238.84C118.635 240.508 124.688 241.66 130.682 242.271C137.126 242.933 143.22 242.837 148.772 241.985C151.172 244.449 153.823 246.639 156.635 248.514C160.921 251.369 165.704 253.543 170.857 254.981C177.592 256.866 184.231 257.571 190.624 257.094C190.905 257.283 191.177 257.491 191.465 257.662C193.88 259.275 196.504 260.465 199.268 261.246C201.916 261.997 204.282 262.515 206.465 262.866C207.446 263.024 208.383 263.184 209.251 263.356C209.525 263.414 210.19 263.56 211.239 263.855C212.367 264.165 212.866 264.345 212.884 264.353C213.634 264.644 214.492 264.983 215.413 265.372C217.46 266.22 219.75 267.004 222.434 267.771C224.664 268.4 226.935 268.747 229.176 268.823C231.183 269.953 233.266 270.817 235.363 271.408C238.055 272.157 240.413 272.693 242.604 273.026C243.505 273.17 244.407 273.314 245.221 273.462C245.495 273.52 246.16 273.666 247.209 273.962C248.506 274.325 249.077 274.537 249.113 274.553C249.924 274.85 250.774 275.207 251.641 275.572C253.67 276.412 255.978 277.204 258.67 277.953C260.465 278.453 262.314 278.783 264.206 278.918C264.415 279.076 264.632 279.215 264.867 279.363C268.357 281.691 272.36 283.496 276.731 284.714C281.903 286.16 287.196 286.609 292.497 286.031C293.509 286.89 294.563 287.703 295.657 288.427C298.424 290.26 301.452 291.653 304.597 292.539C309.369 293.872 314.286 294.346 319.26 293.923C320.024 294.521 320.795 295.101 321.591 295.627C324.485 297.56 327.718 299.022 331.13 299.985C335.537 301.219 340.156 301.497 344.9 300.821C345.608 301.351 346.324 301.863 347.056 302.339C350.944 304.931 355.225 306.881 359.74 308.163C365.711 309.837 371.753 310.341 377.673 309.674C378.982 309.528 380.324 309.31 381.715 309.029C383.461 310.794 385.392 312.384 387.49 313.791C390.981 316.119 394.984 317.924 399.373 319.151C405.877 320.976 412.531 321.216 419.148 319.851C424.164 318.803 428.486 317.338 432.381 315.34C435.384 313.803 444.53 309.123 447.558 298.283C448.269 295.724 448.662 293.109 448.676 290.476C448.743 282.716 445.317 275.524 439.389 270.865C443.328 270.26 447.083 268.671 450.334 266.192C451.174 266.524 452.037 266.801 452.891 267.053C458.462 268.613 464.454 268.794 470.709 267.568C476.119 266.502 481.439 264.388 486.53 261.248C491.449 258.204 495.889 254.26 499.697 249.519C503.864 244.358 506.937 238.281 508.836 231.466C511.44 222.154 510.976 212.891 507.451 204.668C504.747 198.312 500.369 193.014 494.826 189.321C491.815 187.314 488.475 185.804 484.911 184.795C482.886 184.236 480.755 183.865 478.553 183.7C476.524 182.667 474.382 181.841 472.151 181.212C471.618 181.06 471.059 180.918 470.51 180.802L471.852 176.057C474.64 166.14 470.741 155.626 462.169 149.917L462.109 149.955Z" fill="black"/>
<path d="M391.445 151.771L451.051 168.504L446.789 183.751L406.26 172.365L404.866 177.323L443.262 188.102L439.337 202.062L400.942 191.283L399.548 196.241L441.017 207.875L436.615 223.532L376.086 206.56L391.445 151.771Z" fill="#009C18"/>
<path d="M448.955 169.695L445.607 181.637L405.071 170.268L402.752 178.506L441.148 189.285L438.156 199.948L399.76 189.169L397.441 197.406L438.893 209.032L435.416 221.41L378.174 205.344L392.618 153.86L448.927 169.661L448.955 169.695ZM453.139 167.289L449.842 166.356L393.533 150.555L390.236 149.623L389.303 152.92L374.859 204.403L373.926 207.7L377.223 208.633L434.465 224.699L437.762 225.632L438.695 222.335L442.172 209.957L443.105 206.66L439.808 205.727L401.661 195.016L402.123 193.355L437.221 203.201L440.518 204.134L441.451 200.837L444.443 190.174L445.375 186.877L442.078 185.944L406.98 176.098L407.441 174.436L444.673 184.89L447.97 185.823L448.902 182.526L452.25 170.584L453.182 167.287L453.139 167.289Z" fill="black"/>
<path d="M335.503 136.069L354.572 141.434L349.261 160.334L354.353 161.766L379.585 148.438L405.984 155.846L368.828 174.311L394.099 211.603L366.669 203.908L349.457 177.761L344.748 176.435L339.203 196.196L320.126 190.85L335.503 136.069Z" fill="#009C18"/>
<path d="M401.231 156.303L366.289 173.651L390.048 208.703L367.728 202.448L350.516 176.301L343.55 174.355L338.005 194.117L322.215 189.677L336.659 138.193L352.449 142.633L347.131 161.552L354.532 163.627L379.746 150.291L401.223 156.321L401.231 156.303ZM410.722 155.424L402.156 153.024L380.679 146.994L379.364 146.622L378.155 147.264L354.15 159.958L351.368 159.169L355.754 143.548L356.687 140.251L353.39 139.319L337.6 134.879L334.303 133.946L333.37 137.243L318.926 188.727L317.993 192.024L321.29 192.956L337.081 197.396L340.377 198.329L341.31 195.032L345.93 178.549L348.373 179.23L364.88 204.312L365.585 205.377L366.821 205.735L389.141 211.99L398.143 214.521L392.902 206.777L371.341 174.98L402.763 159.367L410.73 155.407L410.722 155.424Z" fill="black"/>
<path d="M299.472 125.956L321.979 132.274L336.724 195.499L315.399 189.515L313.047 179.046L283.04 170.632L275.867 178.444L254.462 172.446L299.499 125.99L299.472 125.956ZM294.647 158.357L309.407 162.509L305.886 146.283L294.639 158.375L294.647 158.357Z" fill="#009C18"/>
<path d="M320.53 133.646L334.378 193.059L316.811 188.128L314.459 177.658L282.47 168.683L275.298 176.495L257.669 171.558L299.979 127.9L320.522 133.664L320.53 133.646ZM291.475 159.262L311.673 164.936L306.868 142.73L291.493 159.27L291.475 159.262ZM323.419 130.92L321.473 130.375L300.929 124.611L298.966 124.057L297.539 125.525L255.229 169.183L251.226 173.301L256.762 174.845L274.391 179.782L276.416 180.342L277.839 178.787L283.589 172.529L311.588 180.392L313.492 188.881L313.932 190.879L315.896 191.432L333.463 196.364L339.034 197.924L337.722 192.296L323.875 132.883L323.419 130.92ZM297.828 157.479L304.921 149.845L307.132 160.101L297.802 157.489L297.828 157.479Z" fill="black"/>
<path d="M198.902 97.7514L225.781 105.287L233.842 141.327L259.502 114.756L286.381 122.292L271.004 177.072L252.353 171.83L261.496 139.272L234.137 166.717L220.4 162.87L211.31 125.191L202.184 157.757L183.533 152.514L198.902 97.7514Z" fill="#009C18"/>
<path d="M284.267 123.474L269.823 174.957L254.468 170.647L264.846 133.682L264.721 133.626L233.65 164.825L221.841 161.516L211.524 118.741L211.398 118.685L201.013 155.668L185.658 151.357L200.102 99.8738L224.343 106.684L232.883 144.826L260.028 116.707L284.269 123.517L284.267 123.474ZM288.481 121.145L285.184 120.212L260.943 113.402L258.979 112.848L257.553 114.316L234.821 137.878L227.661 105.931L227.222 103.933L225.258 103.379L201.017 96.5689L197.72 95.6362L196.787 98.9331L182.343 150.417L181.411 153.714L184.707 154.646L200.062 158.957L203.359 159.889L204.292 156.592L211.192 132.005L218.498 162.322L218.962 164.267L220.89 164.805L232.699 168.114L234.627 168.651L236.038 167.22L258.046 145.138L251.145 169.724L250.213 173.021L253.51 173.954L268.864 178.264L272.161 179.197L273.094 175.9L287.538 124.416L288.471 121.119L288.481 121.145Z" fill="black"/>
<path d="M76.4203 137.702C74.4135 136.378 72.8809 134.472 71.8424 132.035C70.2856 128.401 70.1284 124.275 71.4026 119.779C72.5171 115.833 74.2162 112.405 76.5038 109.583C78.7575 106.789 81.3232 104.499 84.1152 102.76C86.9252 101.03 89.7605 99.8682 92.5792 99.3216C95.4418 98.7731 98.0231 98.8075 100.262 99.4187C100.964 99.6244 101.563 99.8698 102.034 100.209C103.408 101.122 103.928 102.555 103.499 104.145C103.241 105.06 102.652 105.806 101.803 106.265C101.066 106.666 100.169 106.803 99.1458 106.69C97.1277 106.692 95.1232 107.001 93.1921 107.578C91.3306 108.143 89.612 109.159 88.1139 110.594C86.6238 112.012 85.5132 114.07 84.7543 116.737C84.4826 117.732 84.5751 118.824 85.0535 120.11C85.4108 121.042 85.9057 121.713 86.584 122.166C86.765 122.289 86.9539 122.395 87.1768 122.473C87.7139 122.712 88.1555 122.973 88.5712 123.245C89.8918 124.134 90.9256 125.281 91.6288 126.689C92.5643 128.586 92.7096 130.668 92.0804 132.899C91.3614 135.475 89.7713 137.406 87.3858 138.618C85.044 139.828 82.5978 140.068 80.1007 139.363C78.7497 138.976 77.4964 138.417 76.4024 137.694L76.4203 137.702Z" fill="#009C18"/>
<path d="M101.097 101.636C101.839 102.139 102.097 102.812 101.863 103.673C101.735 104.153 101.444 104.517 100.998 104.747C100.552 104.978 99.9769 105.065 99.2704 104.964C97.0413 104.958 94.8617 105.275 92.7315 105.913C90.6013 106.552 88.6776 107.691 86.9603 109.329C85.2431 110.967 83.977 113.279 83.1263 116.247C82.7468 117.58 82.8747 119.075 83.4821 120.698C83.9685 121.966 84.6781 122.926 85.6546 123.576C85.9172 123.757 86.2136 123.911 86.518 124.046C86.9119 124.222 87.2898 124.433 87.6339 124.672C88.7099 125.388 89.5409 126.316 90.101 127.467C90.8439 128.979 90.9617 130.641 90.4544 132.453C89.8552 134.568 88.5819 136.125 86.6345 137.124C84.687 138.124 82.6607 138.337 80.5994 137.761C79.4175 137.428 78.3432 136.949 77.3945 136.333C75.676 135.181 74.3581 133.564 73.4466 131.419C72.0368 128.13 71.925 124.432 73.0754 120.309C74.12 116.569 75.7154 113.374 77.8615 110.725C80.0076 108.076 82.404 105.925 85.0427 104.29C87.6814 102.654 90.3096 101.572 92.9194 101.061C95.5291 100.55 97.8298 100.588 99.8195 101.132C100.353 101.283 100.782 101.475 101.117 101.688L101.097 101.636ZM103.008 98.8401C102.366 98.4036 101.624 98.0943 100.734 97.8268C98.2372 97.1218 95.3832 97.0732 92.252 97.695C89.2421 98.2852 86.2077 99.5082 83.2365 101.36C80.2731 103.194 77.564 105.614 75.1947 108.571C72.7755 111.592 70.9449 115.218 69.7785 119.377C68.3984 124.255 68.5811 128.758 70.2947 132.762C71.4603 135.491 73.2156 137.669 75.485 139.173C76.7241 140.005 78.1207 140.627 79.6667 141.058C82.5816 141.885 85.4459 141.574 88.1918 140.179C90.9716 138.757 92.9025 136.398 93.7513 133.386C94.5023 130.738 94.3037 128.246 93.1755 125.962C92.3372 124.279 91.1086 122.895 89.5354 121.85C89.056 121.529 88.5249 121.228 87.9878 120.989L87.8804 120.941C87.7729 120.893 87.6655 120.845 87.5661 120.779C87.4308 120.698 87.0151 120.427 86.6955 119.555C86.3382 118.623 86.2613 117.88 86.4351 117.25C87.1022 114.886 88.0752 113.088 89.3203 111.883C90.659 110.612 92.0948 109.75 93.7233 109.274C95.4553 108.758 97.2588 108.467 99.0839 108.465C100.433 108.616 101.625 108.396 102.671 107.832C103.914 107.162 104.802 106.035 105.19 104.684C105.835 102.417 105.007 100.181 103.036 98.8739L103.008 98.8401Z" fill="black"/>
<path d="M63.6772 134.126C61.6703 132.803 60.1377 130.896 59.0992 128.459C57.5424 124.826 57.3853 120.7 58.6595 116.203C59.7739 112.257 61.473 108.83 63.7606 106.008C66.0143 103.214 68.58 100.923 71.3721 99.1847C74.19 97.4361 77.0432 96.2825 79.8361 95.7459C82.6807 95.1895 85.2799 95.2318 87.5184 95.8431C88.2207 96.0487 88.8195 96.2941 89.3088 96.6409C90.6832 97.5538 91.2032 98.9873 90.7737 100.577C90.5161 101.492 89.9262 102.238 89.0779 102.697C88.3412 103.098 87.4434 103.235 86.4205 103.122C84.4024 103.124 82.4059 103.415 80.4668 104.01C78.6053 104.576 76.8868 105.591 75.3887 107.026C73.8986 108.444 72.788 110.503 72.029 113.169C71.7574 114.164 71.8498 115.257 72.3461 116.551C72.7035 117.482 73.1984 118.154 73.8766 118.606C74.0576 118.73 74.2466 118.835 74.4614 118.931C74.9986 119.17 75.4401 119.432 75.8558 119.703C77.1765 120.592 78.2103 121.739 78.9135 123.147C79.857 125.027 79.9942 127.127 79.3651 129.357C78.6461 131.934 77.056 133.865 74.6704 135.076C72.3287 136.286 69.8824 136.526 67.3854 135.821C66.0344 135.434 64.781 134.876 63.6791 134.17L63.6772 134.126Z" fill="#009C18"/>
<path d="M88.3536 98.0608C89.0955 98.5631 89.3535 99.236 89.1198 100.098C88.992 100.577 88.701 100.941 88.255 101.171C87.809 101.402 87.2337 101.489 86.5272 101.389C84.2982 101.383 82.1185 101.699 79.9883 102.338C77.8581 102.976 75.9344 104.115 74.2172 105.753C72.5 107.391 71.2339 109.703 70.3831 112.672C70.0036 114.005 70.1315 115.499 70.739 117.122C71.2253 118.39 71.9349 119.35 72.9115 120C73.174 120.182 73.4704 120.335 73.7748 120.471C74.1687 120.646 74.5466 120.858 74.8907 121.097C75.9667 121.812 76.7977 122.741 77.3579 123.892C78.1007 125.403 78.2185 127.065 77.7112 128.877C77.112 130.993 75.8387 132.55 73.8913 133.549C71.9438 134.548 69.9175 134.761 67.8562 134.186C66.6743 133.852 65.6 133.373 64.6513 132.758C62.9328 131.605 61.6149 129.988 60.7035 127.844C59.2936 124.554 59.1818 120.856 60.3323 116.734C61.3769 112.993 62.9722 109.798 65.1183 107.149C67.2645 104.5 69.6609 102.349 72.2996 100.714C74.9383 99.0786 77.5665 97.9965 80.1941 97.4935C82.8038 96.9826 85.0866 97.0127 87.0943 97.564C87.6275 97.7158 88.0572 97.9073 88.3914 98.1205L88.3536 98.0608ZM90.2829 95.2724C89.6405 94.8359 88.8984 94.5266 88.009 94.2591C85.512 93.554 82.658 93.5055 79.5267 94.1273C76.5248 94.6996 73.4825 95.9405 70.4933 97.7845C67.53 99.6186 64.8208 102.038 62.4515 104.995C60.0324 108.016 58.2017 111.643 57.0353 115.801C55.6553 120.68 55.8379 125.182 57.5516 129.186C58.7172 131.916 60.4804 134.075 62.7418 135.598C63.9809 136.429 65.3954 137.059 66.9235 137.483C69.8384 138.309 72.7027 137.998 75.4486 136.603C78.2364 135.163 80.1593 132.823 81.0081 129.81C81.7591 127.162 81.5605 124.67 80.4323 122.386C79.5941 120.703 78.3655 119.319 76.7922 118.274C76.3129 117.954 75.7818 117.652 75.2446 117.413L75.1372 117.365C75.0298 117.317 74.9223 117.269 74.8229 117.204C74.6876 117.122 74.2719 116.851 73.9524 115.979C73.6129 115.055 73.5082 114.279 73.6919 113.674C74.359 111.31 75.332 109.512 76.5771 108.307C77.9158 107.037 79.3516 106.174 80.9801 105.698C82.7122 105.182 84.5156 104.892 86.3407 104.889C87.6899 105.04 88.8823 104.82 89.9278 104.256C91.1703 103.587 92.0591 102.459 92.4466 101.108C93.0916 98.8417 92.2639 96.6058 90.2928 95.2982L90.2829 95.2724Z" fill="black"/>
<path d="M444.21 241.554C442.835 240.641 442.315 239.207 442.737 237.635C443.003 236.702 443.584 235.974 444.433 235.515C445.17 235.114 446.067 234.978 447.09 235.09C449.108 235.088 451.113 234.78 453.044 234.202C454.905 233.637 456.624 232.622 458.122 231.186C459.612 229.769 460.723 227.71 461.482 225.044C461.753 224.049 461.661 222.956 461.182 221.67C460.825 220.738 460.33 220.067 459.652 219.614C459.471 219.491 459.282 219.385 459.067 219.289C458.53 219.05 458.088 218.789 457.673 218.518C456.352 217.629 455.318 216.481 454.615 215.074C453.68 213.176 453.534 211.094 454.155 208.881C454.875 206.305 456.465 204.374 458.85 203.162C461.192 201.952 463.638 201.712 466.135 202.417C467.486 202.804 468.74 203.363 469.834 204.086C471.84 205.41 473.373 207.316 474.411 209.753C475.968 213.387 476.125 217.513 474.851 222.01C473.737 225.955 472.038 229.383 469.75 232.205C467.496 234.999 464.931 237.289 462.139 239.028C459.329 240.759 456.493 241.92 453.675 242.467C450.83 243.023 448.231 242.981 445.992 242.369C445.29 242.164 444.691 241.918 444.202 241.572L444.21 241.554Z" fill="#009C18"/>
<path d="M468.887 205.489C470.605 206.641 471.923 208.258 472.835 210.403C474.245 213.692 474.356 217.39 473.206 221.513C472.161 225.253 470.566 228.448 468.42 231.097C466.274 233.746 463.877 235.897 461.239 237.532C458.6 239.168 455.972 240.25 453.362 240.761C450.752 241.272 448.452 241.234 446.462 240.69C445.929 240.538 445.499 240.347 445.165 240.134C444.423 239.631 444.165 238.958 444.398 238.097C444.526 237.617 444.817 237.253 445.263 237.023C445.709 236.793 446.285 236.706 446.991 236.806C449.22 236.812 451.4 236.496 453.53 235.857C455.66 235.218 457.584 234.08 459.301 232.441C461.018 230.803 462.284 228.492 463.135 225.523C463.515 224.19 463.387 222.695 462.779 221.072C462.293 219.804 461.583 218.844 460.607 218.194C460.344 218.013 460.048 217.859 459.743 217.724C459.35 217.548 458.972 217.337 458.628 217.098C457.552 216.382 456.721 215.454 456.16 214.303C455.418 212.792 455.3 211.13 455.807 209.317C456.406 207.202 457.68 205.645 459.627 204.646C461.574 203.646 463.601 203.434 465.662 204.009C466.844 204.342 467.918 204.821 468.867 205.437L468.887 205.489ZM470.759 202.589C469.519 201.758 468.123 201.135 466.577 200.704C463.662 199.877 460.798 200.189 458.052 201.583C455.272 203.005 453.341 205.364 452.492 208.376C451.741 211.025 451.94 213.517 453.068 215.801C453.906 217.483 455.135 218.868 456.708 219.912C457.188 220.233 457.719 220.534 458.256 220.773L458.363 220.821C458.471 220.869 458.578 220.917 458.678 220.983C458.813 221.065 459.22 221.354 459.548 222.208C459.905 223.139 459.982 223.882 459.808 224.513C459.141 226.876 458.168 228.675 456.923 229.879C455.585 231.15 454.149 232.012 452.52 232.488C450.788 233.004 448.985 233.295 447.16 233.297C445.81 233.147 444.618 233.366 443.573 233.93C442.33 234.6 441.441 235.728 441.054 237.079C440.409 239.345 441.236 241.581 443.208 242.888C443.85 243.325 444.592 243.634 445.481 243.902C447.979 244.607 450.832 244.655 453.964 244.033C456.974 243.443 460.008 242.22 462.979 240.368C465.943 238.534 468.652 236.115 471.021 233.157C473.44 230.137 475.271 226.51 476.437 222.352C477.817 217.473 477.635 212.971 475.921 208.967C474.755 206.237 473 204.06 470.731 202.555L470.759 202.589Z" fill="black"/>
<path d="M456.97 245.136C455.595 244.223 455.075 242.789 455.505 241.2C455.77 240.266 456.352 239.539 457.2 239.08C457.937 238.678 458.817 238.534 459.858 238.654C461.876 238.652 463.881 238.344 465.812 237.767C467.673 237.201 469.392 236.186 470.89 234.75C472.38 233.333 473.498 231.256 474.249 228.608C474.521 227.613 474.429 226.52 473.932 225.226C473.575 224.294 473.08 223.623 472.402 223.171C472.221 223.047 472.032 222.941 471.817 222.846C471.28 222.606 470.838 222.345 470.423 222.074C469.102 221.185 468.068 220.038 467.365 218.63C466.421 216.75 466.284 214.65 466.913 212.42C467.632 209.843 469.222 207.912 471.608 206.7C473.95 205.491 476.396 205.25 478.893 205.955C480.244 206.343 481.497 206.901 482.599 207.607C484.606 208.93 486.139 210.836 487.177 213.274C488.734 216.907 488.891 221.033 487.617 225.53C486.503 229.476 484.803 232.903 482.516 235.725C480.262 238.519 477.696 240.809 474.904 242.548C472.094 244.279 469.259 245.44 466.44 245.987C463.578 246.535 460.997 246.501 458.758 245.89C458.056 245.684 457.457 245.439 456.986 245.1L456.97 245.136Z" fill="#009C18"/>
<path d="M481.628 209.063C483.347 210.215 484.665 211.833 485.576 213.977C486.986 217.266 487.098 220.964 485.947 225.087C484.903 228.828 483.307 232.022 481.161 234.671C479.015 237.32 476.619 239.471 473.98 241.107C471.341 242.742 468.713 243.824 466.086 244.327C463.476 244.838 461.193 244.808 459.185 244.257C458.652 244.105 458.222 243.913 457.888 243.7C457.146 243.198 456.888 242.525 457.122 241.663C457.25 241.184 457.541 240.82 457.987 240.589C458.433 240.359 459.008 240.272 459.715 240.372C461.944 240.378 464.123 240.062 466.254 239.423C468.384 238.785 470.308 237.646 472.025 236.008C473.742 234.369 475.008 232.058 475.859 229.089C476.238 227.756 476.11 226.261 475.503 224.639C475.017 223.371 474.307 222.411 473.33 221.761C473.068 221.579 472.772 221.426 472.467 221.29C472.073 221.115 471.695 220.903 471.351 220.664C470.275 219.949 469.444 219.02 468.884 217.869C468.141 216.358 468.023 214.696 468.531 212.883C469.13 210.768 470.403 209.211 472.351 208.212C474.298 207.213 476.324 207 478.386 207.575C479.568 207.909 480.642 208.387 481.591 209.003L481.628 209.063ZM483.482 206.155C482.243 205.324 480.829 204.694 479.301 204.27C476.386 203.443 473.521 203.755 470.775 205.15C467.988 206.59 466.065 208.93 465.216 211.943C464.465 214.591 464.663 217.083 465.792 219.367C466.63 221.05 467.859 222.434 469.432 223.478C469.911 223.799 470.442 224.1 470.979 224.34L471.087 224.388C471.194 224.436 471.302 224.483 471.401 224.549C471.536 224.631 471.952 224.902 472.272 225.774C472.611 226.698 472.716 227.474 472.532 228.079C471.865 230.443 470.892 232.241 469.647 233.446C468.308 234.716 466.872 235.579 465.244 236.055C463.512 236.571 461.708 236.861 459.883 236.864C458.534 236.713 457.342 236.933 456.296 237.497C455.054 238.166 454.165 239.294 453.777 240.645C453.132 242.911 453.96 245.147 455.931 246.455C456.574 246.891 457.316 247.2 458.205 247.468C460.702 248.173 463.556 248.222 466.687 247.6C469.689 247.027 472.732 245.787 475.721 243.943C478.684 242.108 481.393 239.689 483.763 236.732C486.182 233.711 488.012 230.085 489.179 225.926C490.559 221.047 490.376 216.545 488.663 212.541C487.497 209.811 485.742 207.634 483.472 206.129L483.482 206.155Z" fill="black"/>
<path d="M399.585 295.511C397.297 293.998 395.576 291.986 394.442 289.571C392.551 285.531 392.47 280.366 394.198 274.226L403.569 240.868C403.615 240.717 403.603 240.647 403.593 240.621L403.557 240.605C403.213 240.366 402.603 240.051 401.208 239.666L400.177 239.378C399.911 239.302 399.642 239.182 399.407 239.035C398.612 238.509 398.133 237.609 397.981 236.361C397.843 235.226 397.891 234.153 398.181 233.166C398.333 232.633 398.672 232.162 399.245 231.645C399.777 231.174 400.247 230.89 400.743 230.789C402.696 230.114 404.834 229.264 406.959 228.301C409.109 227.328 411.134 226.299 413.008 225.224C414.916 224.121 416.549 223.154 417.889 222.313C418.618 221.93 419.132 221.644 419.55 221.379C420.412 220.841 421.38 220.692 422.375 220.964C422.81 221.094 423.204 221.269 423.574 221.499C423.944 221.728 424.239 222.031 424.517 222.369C425.215 223.26 425.285 224.45 424.726 225.896L421.977 232.74C421.75 233.347 421.813 233.59 421.813 233.59C421.813 233.59 421.966 233.679 422.048 233.737C422.31 233.919 422.694 234.068 423.148 234.206L438.423 238.502L438.747 238.69C439.624 239.274 439.822 240.37 439.909 241.139C439.996 242.1 439.923 243.033 439.671 243.887C439.338 245.069 438.861 246.187 438.257 247.205C437.898 247.818 436.796 249.666 435.027 249.157L422.48 245.626C419.885 244.899 419.174 245.097 419.141 245.125C419.141 245.125 418.724 245.433 418.295 247.023L410.462 274.906C409.431 278.567 409.293 281.575 410.041 283.796C410.495 285.136 411.215 286.122 412.255 286.822C412.798 287.192 413.443 287.48 414.171 287.675C416.463 288.311 418.248 288.591 419.472 288.493C420.766 288.383 421.976 288.171 423.075 287.824C423.645 287.605 424.23 287.544 424.781 287.704C425.048 287.78 425.316 287.899 425.533 288.039C425.967 288.318 426.672 288.997 426.669 290.305C426.664 290.99 426.554 291.67 426.359 292.398C426.041 293.545 424.908 294.499 422.317 295.834C420.232 296.9 417.664 297.752 414.656 298.386C411.535 299.033 408.37 298.911 405.278 298.048C403.145 297.441 401.239 296.613 399.656 295.543L399.585 295.511Z" fill="#009C18"/>
<path d="M422.621 222.919C422.82 223.05 423.003 223.218 423.152 223.413C423.468 223.811 423.451 224.426 423.12 225.266L420.379 232.092C419.964 233.216 420.001 234.048 420.446 234.589C420.613 234.793 420.832 234.976 421.076 235.149C421.492 235.42 422.029 235.66 422.678 235.842L437.686 240.062C437.686 240.062 437.74 240.086 437.776 240.102C437.975 240.233 438.115 240.639 438.171 241.286C438.247 242.029 438.191 242.733 437.993 243.418C437.698 244.466 437.285 245.441 436.762 246.324C436.24 247.207 435.802 247.613 435.464 247.505L422.909 243.992C420.75 243.395 419.277 243.232 418.501 243.53C417.724 243.828 417.084 244.83 416.609 246.571L408.776 274.455C407.647 278.48 407.513 281.768 408.382 284.344C408.957 286.038 409.919 287.347 411.276 288.252C411.972 288.712 412.778 289.071 413.693 289.329C416.19 290.034 418.16 290.332 419.585 290.216C421.01 290.1 422.342 289.857 423.562 289.478C423.873 289.359 424.126 289.321 424.295 289.375C424.384 289.415 424.492 289.463 424.563 289.495C424.808 289.668 424.925 289.935 424.925 290.321C424.912 290.831 424.84 291.378 424.673 291.947C424.505 292.516 423.443 293.309 421.496 294.308C419.548 295.307 417.135 296.099 414.267 296.709C411.406 297.302 408.55 297.209 405.697 296.388C403.715 295.827 402.014 295.069 400.558 294.098C398.524 292.741 397.007 290.992 396.008 288.852C394.3 285.172 394.239 280.445 395.861 274.687L405.214 241.321C405.426 240.557 405.301 239.922 404.832 239.434C404.73 239.325 404.585 239.217 404.422 239.102C403.861 238.723 402.932 238.352 401.67 238.004L400.64 237.717C400.55 237.677 400.461 237.637 400.353 237.589C400.009 237.35 399.777 236.86 399.674 236.127C399.563 235.22 399.614 234.384 399.826 233.62C399.888 233.433 400.061 233.188 400.374 232.92C400.687 232.651 400.933 232.482 401.143 232.447C403.295 231.711 405.485 230.841 407.661 229.858C409.837 228.875 411.914 227.826 413.848 226.713C415.782 225.601 417.44 224.623 418.789 223.765C419.432 223.429 419.997 223.123 420.45 222.831C420.902 222.539 421.381 222.474 421.897 222.617C422.163 222.693 422.396 222.797 422.613 222.937L422.621 222.919ZM424.504 220.088C423.989 219.752 423.434 219.504 422.821 219.338C421.373 218.929 419.882 219.144 418.601 219.947C418.243 220.174 417.763 220.432 417.223 220.728L417.086 220.796L416.959 220.889C415.67 221.71 414.037 222.677 412.137 223.762C410.315 224.817 408.324 225.818 406.225 226.772C404.186 227.687 402.126 228.507 400.095 229.212C399.402 229.418 398.761 229.797 398.06 230.408C397.249 231.119 396.731 231.897 396.505 232.741C396.163 233.941 396.09 235.26 396.256 236.622C396.529 238.803 397.588 239.941 398.438 240.491C398.818 240.746 399.247 240.937 399.691 241.049L400.722 241.337C401.068 241.427 401.327 241.521 401.567 241.606L392.54 273.808C390.698 280.348 390.822 285.897 392.88 290.333C394.141 293.041 396.075 295.298 398.625 296.992C400.361 298.152 402.42 299.07 404.73 299.713C408.089 300.652 411.508 300.781 414.908 300.085C418.073 299.436 420.797 298.525 423.001 297.383C425.558 296.076 427.37 294.802 427.918 292.899C428.151 292.038 428.29 291.198 428.288 290.382C428.298 288.82 427.615 287.464 426.385 286.658C426.005 286.403 425.594 286.22 425.132 286.1C424.27 285.866 423.351 285.907 422.383 286.249C421.422 286.528 420.361 286.742 419.232 286.819C418.655 286.862 417.294 286.835 414.53 286.054C413.979 285.894 413.495 285.679 413.098 285.415C412.366 284.939 411.879 284.25 411.563 283.272C410.926 281.379 411.08 278.722 412.011 275.381L419.844 247.498C419.92 247.231 419.99 247.026 420.044 246.857C420.45 246.909 421.061 247.031 421.932 247.291L434.487 250.804C435.615 251.114 437.812 251.191 439.649 248.082C440.326 246.947 440.867 245.685 441.229 244.344C441.532 243.278 441.631 242.141 441.526 240.979C441.471 240.332 441.27 238.376 439.615 237.273L439.172 236.968L438.567 236.785L423.807 232.632L426.257 226.557C427.257 223.976 426.568 222.296 425.823 221.32C425.441 220.828 425.002 220.417 424.486 220.08L424.504 220.088Z" fill="black"/>
<path d="M359.037 284.072C357.12 282.789 355.382 281.199 353.877 279.326C350.885 275.59 348.91 271.018 348.035 265.757C347.163 260.54 347.522 255.013 349.13 249.334C350.932 242.884 353.938 237.292 358.027 232.74C362.123 228.171 366.909 224.896 372.205 223.028C377.579 221.131 383.046 220.949 388.466 222.463C391.327 223.266 393.933 224.449 396.239 225.969C399.15 227.911 401.624 230.451 403.585 233.514C404.539 235.226 404.816 236.723 404.444 238.038C404.165 239.051 403.445 240.04 402.264 241.101C401.2 242.044 400.005 242.799 398.739 243.329C397.266 243.938 395.948 244.102 394.784 243.777C394.384 243.663 393.99 243.487 393.602 243.25C393.205 242.987 392.803 242.636 392.459 242.204C391.968 241.621 391.491 240.957 391.056 240.248C389.577 237.98 387.902 235.817 386.086 233.871C385.146 232.851 384.215 232.05 383.374 231.482C382.742 231.071 382.131 230.756 381.572 230.614C378.293 229.689 375.263 230.614 372.334 233.429C369.195 236.429 366.658 241.351 364.787 248.006C363.558 252.352 363.232 256.456 363.801 260.186C364.351 263.864 365.676 267.008 367.711 269.568C368.677 270.771 369.82 271.817 371.077 272.656C372.416 273.553 373.956 274.239 375.635 274.708C377.866 275.338 379.943 275.491 381.771 275.146C383.668 274.79 385.908 273.857 388.403 272.351L388.548 272.265L388.704 272.206C389.04 272.077 389.412 271.964 389.793 271.833C390.485 271.626 391.116 271.607 391.685 271.775C392.032 271.865 392.336 272 392.599 272.182C393.313 272.65 394.41 273.847 393.691 276.424C393.501 277.09 393.13 277.827 392.552 278.642C392.024 279.394 391.339 280.161 390.496 280.945C388.598 282.652 386.339 284.157 383.737 285.422C381.101 286.715 378.19 287.564 375.125 287.893C372.025 288.251 368.827 287.963 365.62 287.07C363.238 286.395 361.036 285.414 359.065 284.106L359.037 284.072Z" fill="#009C18"/>
<path d="M395.273 227.364C398.004 229.181 400.284 231.528 402.114 234.404C402.792 235.629 403.014 236.672 402.78 237.533C402.59 238.2 402.036 238.962 401.116 239.775C400.188 240.606 399.172 241.248 398.061 241.718C396.95 242.189 396.016 242.309 395.234 242.09C395.004 242.03 394.771 241.926 394.536 241.778C394.274 241.597 394.009 241.372 393.759 241.067C393.313 240.525 392.884 239.948 392.497 239.324C390.933 236.911 389.211 234.706 387.304 232.676C386.255 231.564 385.258 230.67 384.282 230.02C383.486 229.494 382.724 229.133 382.004 228.919C378.112 227.828 374.501 228.902 371.126 232.14C367.752 235.379 365.084 240.5 363.122 247.501C361.826 252.096 361.491 256.41 362.081 260.385C362.68 264.386 364.111 267.771 366.342 270.568C367.429 271.932 368.682 273.07 370.084 274.016C371.594 275.011 373.269 275.779 375.125 276.284C377.622 276.989 379.937 277.141 382.043 276.749C384.149 276.357 386.552 275.346 389.244 273.735C389.555 273.616 389.883 273.505 390.256 273.391C390.602 273.288 390.917 273.257 391.183 273.333C391.352 273.387 391.496 273.45 391.613 273.524C392.192 273.911 392.332 274.703 391.999 275.885C391.871 276.364 391.554 276.931 391.1 277.566C390.637 278.218 390.035 278.894 389.268 279.604C387.513 281.183 385.408 282.584 382.935 283.799C380.462 285.015 377.777 285.792 374.886 286.114C371.996 286.436 369.045 286.172 366.025 285.341C363.812 284.72 361.779 283.792 359.953 282.592C358.127 281.392 356.588 279.934 355.177 278.189C352.352 274.656 350.521 270.385 349.694 265.402C348.867 260.42 349.205 255.184 350.743 249.71C352.492 243.473 355.328 238.169 359.249 233.801C363.178 229.414 367.675 226.353 372.728 224.549C377.791 222.771 382.854 222.581 387.946 224.013C390.656 224.77 393.083 225.873 395.235 227.304L395.273 227.364ZM397.127 224.456C394.694 222.835 391.909 221.573 388.871 220.734C383.112 219.112 377.287 219.327 371.585 221.336C366.004 223.313 360.979 226.739 356.699 231.527C352.436 236.28 349.325 242.104 347.438 248.795C345.78 254.731 345.396 260.504 346.306 265.974C347.228 271.514 349.321 276.352 352.5 280.344C354.116 282.352 355.983 284.085 358.053 285.459C360.124 286.832 362.533 287.927 365.084 288.656C368.514 289.626 371.949 289.912 375.249 289.538C378.506 289.165 381.607 288.272 384.415 286.884C387.163 285.533 389.567 283.943 391.541 282.162C392.509 281.241 393.27 280.4 393.856 279.567C394.558 278.57 395.018 277.681 395.26 276.802C396.312 273.043 394.364 271.252 393.487 270.668C393.053 270.389 392.596 270.164 392.072 270.038C391.175 269.788 390.237 269.821 389.25 270.11C388.8 270.253 388.402 270.376 388.014 270.525L387.729 270.634L387.464 270.795C385.148 272.188 383.107 273.06 381.419 273.381C379.834 273.662 378.021 273.541 376.04 272.979C374.53 272.564 373.159 271.932 371.958 271.16C370.846 270.429 369.84 269.508 368.993 268.423C367.116 266.084 365.965 263.275 365.445 259.867C364.921 256.372 365.241 252.523 366.391 248.4C368.179 242.029 370.57 237.386 373.472 234.581C376.737 231.443 379.372 231.695 381.07 232.172C381.452 232.278 381.891 232.495 382.388 232.824C383.13 233.326 383.952 234.036 384.808 234.954C386.568 236.833 388.178 238.902 389.629 241.137C390.046 241.838 390.579 242.569 391.143 243.228C391.589 243.77 392.092 244.23 392.643 244.583C393.194 244.936 393.723 245.193 394.3 245.343C395.846 245.774 397.55 245.611 399.375 244.836C400.823 244.237 402.171 243.378 403.378 242.307C404.83 241.022 405.695 239.755 406.075 238.422C406.576 236.671 406.254 234.746 405.119 232.717L405.072 232.632L405.006 232.538C402.921 229.27 400.273 226.545 397.172 224.498L397.127 224.456Z" fill="black"/>
<path d="M307.684 270.158C306.643 269.459 305.663 268.528 304.796 267.391C303.288 265.431 302.213 263.171 301.585 260.681C300.944 258.121 300.925 255.708 301.538 253.514C302.539 249.968 304.299 247.319 306.75 245.621C309.083 244 312.306 242.882 316.341 242.255L330.53 239.887C332.797 239.567 333.279 239.159 333.305 239.149C333.347 239.104 333.815 238.583 334.621 236.195L337.325 227.528C338.041 225.294 338.079 223.379 337.468 221.669C337.126 220.701 336.576 219.963 335.762 219.428C335.283 219.107 334.71 218.852 334.043 218.662C333.057 218.373 331.966 218.316 330.806 218.464C329.601 218.614 328.578 218.888 327.77 219.257C327.718 219.277 327.503 219.374 327.285 219.814C327.028 220.343 326.783 220.942 326.611 221.617C326.481 222.052 326.355 222.576 326.241 223.169C326.105 223.859 325.971 224.4 325.849 224.818C325.418 226.364 323.688 227.117 322.435 227.567C320.958 228.089 319.282 228.48 317.487 228.753C315.534 229.041 313.962 229.006 312.682 228.65C312.3 228.545 311.942 228.385 311.626 228.18C311.146 227.859 310.759 227.428 310.516 226.913C310.121 226.114 310.054 225.205 310.344 224.218C310.843 222.423 311.916 220.691 313.476 219.068C314.978 217.527 316.976 216.078 319.419 214.785C322.135 213.313 325.038 212.096 328.024 211.173C331.037 210.241 333.951 209.672 336.68 209.472C339.478 209.26 341.908 209.441 343.916 209.993C345.426 210.408 346.797 211.04 347.998 211.812C350.051 213.177 351.645 215.089 352.735 217.507C354.429 221.266 354.522 225.535 353.001 230.201L343.249 262.487C342.678 264.25 342.579 265.772 342.958 266.993C343.184 267.737 343.514 268.249 343.94 268.546C344.085 268.654 344.264 268.733 344.459 268.777C345.987 269.201 347.247 269.118 348.282 268.528C348.555 268.35 349.545 267.718 350.665 268.045C351.029 268.143 351.352 268.287 351.65 268.484C352.066 268.755 352.398 269.118 352.654 269.554C353.119 270.34 353.212 271.24 352.972 272.163C352.525 273.745 351.305 275.133 349.364 276.264C347.332 277.547 345.206 278.467 343.086 278.938C340.87 279.432 338.834 279.426 337.021 278.918C335.804 278.569 334.676 278.066 333.663 277.401C331.014 275.64 329.14 272.767 328.061 268.831C324.969 270.329 322.1 271.325 319.56 271.824C316.462 272.418 313.403 272.299 310.489 271.473C309.52 271.191 308.588 270.776 307.729 270.2L307.684 270.158ZM331.099 248.338C330.792 248.352 330.408 248.395 329.92 248.478C325.784 248.996 322.804 249.857 320.987 251.043C319.291 252.154 318.228 253.526 317.743 255.241C317.144 257.356 317.19 258.986 317.846 260.115C318.301 260.876 318.8 261.442 319.361 261.821C319.641 262.01 319.945 262.146 320.292 262.236C321.474 262.569 322.512 262.646 323.372 262.449C324.276 262.251 325.188 261.842 326.031 261.252C326.449 260.988 326.776 260.64 327.055 260.206C327.284 259.836 327.687 259.029 328.277 257.317L330.831 249.228C330.981 248.844 331.072 248.541 331.124 248.328L331.099 248.338Z" fill="#009C18"/>
<path d="M347.014 213.198C348.804 214.382 350.186 216.049 351.131 218.166C352.65 221.547 352.714 225.352 351.325 229.626L341.557 261.948C340.886 264.031 340.775 265.87 341.275 267.445C341.624 268.587 342.186 269.396 342.946 269.906C343.244 270.104 343.585 270.255 343.949 270.353C345.93 270.914 347.644 270.777 349.09 269.94C349.542 269.648 349.888 269.545 350.155 269.621C350.342 269.683 350.503 269.755 350.639 269.836C350.837 269.968 350.994 270.145 351.136 270.358C351.354 270.735 351.399 271.163 351.272 271.642C350.954 272.788 350 273.822 348.46 274.724C346.541 275.95 344.611 276.764 342.674 277.21C340.737 277.656 339 277.655 337.436 277.215C336.387 276.92 335.42 276.489 334.561 275.913C331.876 274.137 330.114 271.012 329.248 266.549L328.866 266.443C325.256 268.333 322.037 269.537 319.192 270.094C316.33 270.642 313.587 270.536 310.895 269.787C310.095 269.56 309.325 269.216 308.619 268.73C307.724 268.138 306.899 267.341 306.136 266.357C304.766 264.567 303.799 262.548 303.242 260.282C302.667 258.009 302.661 255.903 303.19 253.993C304.085 250.829 305.588 248.516 307.725 247.043C309.862 245.571 312.827 244.553 316.617 243.945L330.831 241.567C332.776 241.296 333.995 240.874 334.525 240.359C335.037 239.836 335.615 238.634 336.25 236.728L338.969 228.025C339.785 225.471 339.832 223.152 339.099 221.087C338.637 219.766 337.854 218.73 336.724 217.99C336.091 217.58 335.357 217.253 334.522 217.009C333.322 216.667 332.002 216.594 330.615 216.77C329.21 216.938 328.031 217.271 327.059 217.718C326.518 217.97 326.099 218.428 325.776 219.056C325.453 219.685 325.186 220.381 324.966 221.163C324.838 221.643 324.697 222.202 324.567 222.831C324.437 223.459 324.311 223.983 324.205 224.365C324.037 224.934 323.262 225.468 321.863 225.961C320.463 226.453 318.926 226.819 317.226 227.071C315.526 227.322 314.165 227.294 313.134 227.007C312.922 226.955 312.725 226.867 312.561 226.752C312.327 226.604 312.16 226.401 312.035 226.152C311.832 225.74 311.801 225.232 311.968 224.663C312.392 223.135 313.309 221.655 314.676 220.226C316.06 218.804 317.897 217.476 320.177 216.26C322.807 214.836 325.581 213.668 328.489 212.776C331.398 211.883 334.147 211.348 336.77 211.144C339.386 210.957 341.595 211.105 343.407 211.612C344.741 211.992 345.94 212.526 347.006 213.216L347.014 213.198ZM318.389 263.277C318.822 263.556 319.298 263.789 319.803 263.907C321.27 264.324 322.571 264.389 323.71 264.146C324.849 263.902 325.95 263.405 326.987 262.666C327.551 262.316 328.037 261.803 328.464 261.135C328.882 260.485 329.343 259.402 329.872 257.878L332.441 249.753C332.795 248.816 332.939 248.107 332.891 247.635C332.85 247.295 332.699 247.056 332.454 246.883C332.337 246.809 332.194 246.745 332.042 246.699C331.873 246.645 331.601 246.631 331.215 246.631C330.846 246.638 330.313 246.68 329.634 246.806C325.297 247.341 322.109 248.282 320.054 249.619C317.999 250.956 316.672 252.683 316.098 254.788C315.371 257.382 315.463 259.44 316.383 260.988C316.971 261.979 317.645 262.73 318.423 263.249L318.389 263.277ZM348.932 210.34C347.593 209.443 346.053 208.757 344.374 208.287C342.161 207.666 339.608 207.473 336.547 207.697C333.687 207.903 330.651 208.503 327.517 209.467C324.41 210.421 321.403 211.678 318.593 213.216C316.013 214.577 313.888 216.119 312.26 217.797C310.499 219.63 309.297 221.605 308.713 223.685C308.222 225.462 308.607 226.813 309.012 227.638C309.379 228.402 309.962 229.07 310.712 229.554C311.173 229.867 311.692 230.098 312.252 230.24C313.78 230.664 315.581 230.715 317.76 230.399C319.669 230.112 321.441 229.7 323.04 229.146C324.647 228.575 326.883 227.554 327.526 225.244C327.656 224.808 327.787 224.223 327.939 223.497C328.055 222.947 328.165 222.46 328.287 222.042C328.431 221.527 328.595 221.063 328.804 220.641C329.381 220.405 330.146 220.231 331.054 220.12C332.005 220.008 332.849 220.04 333.605 220.27C334.102 220.406 334.514 220.589 334.84 220.821C335.338 221.149 335.664 221.574 335.876 222.205C336.348 223.553 336.295 225.117 335.702 226.977L332.983 235.68C332.595 236.838 332.308 237.483 332.155 237.779C331.878 237.87 331.323 238.009 330.355 238.157L316.071 240.547C311.757 241.222 308.396 242.407 305.799 244.189C303.007 246.121 301.016 249.097 299.909 253.024C299.204 255.521 299.22 258.232 299.925 261.079C300.599 263.804 301.779 266.261 303.437 268.417C304.433 269.697 305.524 270.763 306.736 271.56C307.748 272.226 308.832 272.731 309.978 273.048C313.142 273.943 316.456 274.068 319.832 273.426C322.033 273.012 324.42 272.231 326.977 271.117C328.216 274.501 330.128 277.049 332.678 278.743C333.835 279.516 335.124 280.091 336.511 280.494C338.608 281.085 340.943 281.096 343.427 280.529C345.721 280.006 348.02 279.035 350.239 277.62C352.557 276.271 354.007 274.557 354.585 272.539C354.962 271.162 354.794 269.757 354.111 268.594C353.721 267.927 353.188 267.389 352.582 266.968C352.138 266.663 351.655 266.448 351.114 266.314C349.914 265.972 348.652 266.204 347.379 266.989C346.977 267.217 346.294 267.45 344.907 267.046C344.907 267.046 344.732 266.861 344.599 266.437C344.332 265.545 344.42 264.383 344.868 262.994L354.66 230.618C356.289 225.614 356.168 220.925 354.307 216.77C353.09 214.06 351.283 211.902 348.967 210.356L348.932 210.34ZM320.314 260.4C319.98 260.187 319.646 259.781 319.324 259.251C318.925 258.558 318.948 257.302 319.395 255.72C319.759 254.423 320.59 253.377 321.928 252.493C322.918 251.861 324.871 250.993 328.653 250.404L326.615 256.856C326.064 258.478 325.715 259.116 325.584 259.315C325.444 259.532 325.311 259.687 325.165 259.772L325.08 259.82L325.012 259.876C324.349 260.353 323.678 260.655 322.983 260.817C322.409 260.948 321.625 260.877 320.728 260.628C320.577 260.582 320.434 260.518 320.298 260.436L320.314 260.4Z" fill="black"/>
<path d="M103.952 211.046C102.958 210.388 101.979 209.694 101.042 208.955C95.8001 204.923 91.4581 200.027 88.1379 194.427C84.8078 188.801 82.6745 182.464 81.7737 175.625C80.8808 168.768 81.4791 161.502 83.5683 154.021C85.5296 147.019 88.76 140.733 93.1519 135.308C97.5437 129.882 102.85 125.487 108.874 122.227C114.898 118.967 121.527 116.9 128.536 116.053C135.562 115.214 142.864 115.828 150.204 117.897C153.447 118.806 156.352 119.8 158.813 120.875C161.282 121.932 163.651 123.117 165.847 124.353C167.287 125.167 168.821 126.107 170.376 127.144C171.189 127.678 172.005 128.256 172.856 128.85C174.105 129.707 175.01 130.711 175.498 131.83C176.025 133.009 176.115 134.444 175.745 136.189C175.312 138.7 174.826 141.381 174.29 144.125C173.746 146.887 173.058 149.971 172.213 153.264C171.806 154.756 170.831 155.738 169.496 156.087C168.281 156.405 167.044 156.196 165.942 155.491C165.064 154.907 164.084 153.783 164.146 151.622C164.255 148.344 164.138 145.331 163.817 142.634C163.513 140.138 162.667 137.894 161.318 135.962C159.98 133.907 158.037 132.054 155.569 130.417L155.352 130.278C152.705 128.562 149.546 127.175 145.939 126.169C141.398 124.896 136.89 124.754 132.521 125.747C128.099 126.76 123.991 128.706 120.309 131.529C116.566 134.389 113.241 137.951 110.417 142.121C107.592 146.292 105.456 150.941 104.062 155.9C102.418 161.755 101.559 167.681 101.501 173.493C101.46 179.269 102.245 184.683 103.868 189.612C105.453 194.482 107.923 198.716 111.168 202.222C112.504 203.654 113.991 204.939 115.618 206.008C117.887 207.513 120.458 208.679 123.283 209.466C129.103 211.094 134.337 211.002 138.889 209.167C143.536 207.311 148.017 203.9 152.234 199.062C154.117 196.811 156.186 196.982 157.271 197.294C157.689 197.415 158.065 197.583 158.381 197.788C159.158 198.307 160.355 199.57 159.612 202.2C159.309 203.266 158.772 204.615 157.952 206.31C157.157 207.951 156.2 209.714 155.123 211.552C154.039 213.408 152.998 215.068 152.003 216.578C150.907 217.978 150.085 218.813 149.342 219.276C148.531 219.795 147.387 220.1 145.744 220.27C142.016 220.883 137.641 220.972 132.845 220.466C128.103 219.984 123.305 219.048 118.588 217.739C113.345 216.261 108.437 214.031 103.97 211.054L103.952 211.046Z" fill="#009C18"/>
<path d="M169.439 128.572C170.235 129.098 171.058 129.658 171.874 130.236C172.888 130.946 173.58 131.705 173.949 132.513C174.329 133.348 174.359 134.434 174.069 135.807C173.631 138.38 173.135 141.035 172.599 143.779C172.063 146.523 171.381 149.545 170.544 152.821C170.31 153.682 169.798 154.205 169.044 154.405C168.289 154.606 167.555 154.472 166.851 154.029L166.815 154.013C166.119 153.553 165.803 152.768 165.832 151.644C165.945 148.26 165.834 145.185 165.491 142.393C165.165 139.608 164.23 137.131 162.694 134.944C161.235 132.728 159.163 130.731 156.496 128.963C156.407 128.924 156.333 128.848 156.261 128.816C153.469 126.992 150.184 125.55 146.382 124.499C141.557 123.143 136.795 122.995 132.13 124.071C127.448 125.139 123.159 127.155 119.247 130.155C115.343 133.136 111.909 136.799 108.979 141.159C106.031 145.511 103.847 150.267 102.383 155.43C100.677 161.473 99.8215 167.487 99.7539 173.466C99.7042 179.452 100.513 185.006 102.197 190.134C103.882 195.263 106.421 199.678 109.859 203.377C111.296 204.919 112.883 206.27 114.602 207.422C117.016 209.035 119.738 210.247 122.768 211.104C128.988 212.846 134.555 212.73 139.469 210.756C144.4 208.791 149.069 205.249 153.469 200.192C154.443 199.017 155.548 198.608 156.748 198.949C156.996 199.017 157.211 199.113 157.374 199.228C158.071 199.689 158.249 200.541 157.899 201.759C157.626 202.71 157.113 204.005 156.341 205.592C155.569 207.18 154.654 208.896 153.586 210.716C152.517 212.536 151.502 214.187 150.516 215.679C149.643 216.771 148.93 217.505 148.358 217.872C147.787 218.24 146.841 218.484 145.495 218.614C141.785 219.235 137.593 219.299 132.939 218.812C128.284 218.326 123.62 217.428 118.964 216.126C113.872 214.694 109.161 212.552 104.829 209.655C103.871 209.014 102.928 208.336 102.011 207.648C96.9139 203.725 92.7668 199.065 89.5579 193.601C86.341 188.154 84.299 182.094 83.4239 175.438C82.5488 168.781 83.1248 161.806 85.17 154.52C87.0874 147.713 90.1623 141.68 94.4386 136.418C98.7148 131.156 103.774 126.929 109.645 123.773C115.515 120.616 121.858 118.614 128.701 117.801C135.545 116.987 142.538 117.571 149.691 119.579C152.88 120.464 155.688 121.436 158.095 122.487C160.51 123.52 162.79 124.665 164.95 125.885C166.372 126.69 167.852 127.607 169.379 128.61L169.439 128.572ZM171.271 125.762C169.68 124.709 168.118 123.735 166.643 122.905C164.401 121.627 161.97 120.437 159.455 119.338C156.915 118.248 153.938 117.222 150.623 116.282C143.071 114.161 135.54 113.53 128.287 114.397C121.051 115.271 114.223 117.4 108.01 120.748C101.771 124.105 96.3131 128.647 91.7797 134.246C87.2384 139.862 83.8943 146.355 81.8731 153.587C79.7061 161.291 79.0917 168.786 80.0301 175.878C80.9505 182.962 83.1632 189.507 86.6166 195.337C90.0421 201.135 94.5231 206.2 99.9465 210.355C100.919 211.11 101.951 211.828 102.956 212.512C107.576 215.579 112.655 217.907 118.057 219.413C122.864 220.761 127.767 221.701 132.607 222.205C137.516 222.698 142.006 222.639 145.962 221.998C147.813 221.793 149.173 221.39 150.188 220.748C151.11 220.172 152.069 219.225 153.206 217.78L153.298 217.67L153.354 217.545C154.374 216.025 155.439 214.311 156.523 212.455C157.624 210.563 158.597 208.765 159.409 207.088C160.276 205.286 160.853 203.847 161.196 202.691C162.303 198.764 159.99 196.875 159.266 196.38C158.787 196.059 158.249 195.82 157.655 195.662C155.157 194.957 152.651 195.814 150.818 198.002C146.845 202.584 142.566 205.827 138.17 207.602C133.911 209.31 129.176 209.389 123.667 207.835C121.019 207.084 118.584 205.999 116.485 204.592C114.976 203.597 113.598 202.404 112.345 201.073C109.275 197.752 106.929 193.723 105.433 189.087C103.879 184.338 103.102 179.099 103.161 173.525C103.209 167.88 104.04 162.113 105.646 156.391C106.994 151.584 109.05 147.114 111.785 143.096C114.494 139.088 117.701 135.646 121.309 132.897C124.796 130.224 128.707 128.383 132.867 127.426C136.95 126.498 141.185 126.626 145.441 127.814C148.872 128.785 151.896 130.089 154.39 131.716L154.607 131.855C156.894 133.368 158.654 135.054 159.84 136.87C161.114 138.682 161.823 140.608 162.089 142.851C162.407 145.461 162.52 148.386 162.407 151.577C162.308 154.687 163.931 156.247 164.925 156.905C166.524 157.94 168.23 158.206 169.93 157.762C171.847 157.264 173.266 155.815 173.825 153.789C174.674 150.391 175.396 147.279 175.938 144.473C176.49 141.693 176.976 139.013 177.408 136.501C177.826 134.456 177.703 132.662 177.039 131.165C176.398 129.763 175.307 128.504 173.777 127.458C172.962 126.88 172.128 126.294 171.297 125.752L171.271 125.762Z" fill="black"/>
<path d="M168.695 230.262C166.824 229.02 165.107 227.526 163.567 225.831C160.078 221.958 157.738 217.289 156.579 211.944C155.43 206.625 155.686 200.945 157.346 195.053C158.572 190.664 160.566 186.574 163.237 182.893C165.917 179.237 169.139 176.102 172.853 173.594C176.575 171.068 180.631 169.334 184.889 168.399C189.209 167.47 193.567 167.609 197.877 168.822C200.792 169.649 203.496 170.853 205.874 172.45C207.891 173.799 209.754 175.445 211.401 177.337C214.943 181.427 217.367 186.198 218.613 191.539C219.852 196.898 219.693 202.407 218.139 207.916C216.474 213.87 213.702 219.223 209.88 223.85C206.016 228.524 201.234 231.886 195.654 233.863C190.011 235.834 183.633 235.846 176.684 233.908C173.77 233.081 171.074 231.859 168.687 230.28L168.695 230.262ZM196.151 177.945C195.309 177.377 194.36 176.954 193.322 176.685C191.589 176.191 189.907 176.064 188.364 176.3C186.865 176.533 185.326 177.242 183.791 178.425C181.763 179.989 180.051 182.338 178.679 185.417C177.227 188.676 175.899 192.377 174.779 196.384C173.545 200.791 173.015 205.255 173.202 209.651C173.386 214.004 174.256 217.783 175.756 220.919C176.666 222.826 177.87 224.265 179.308 225.227C180.05 225.729 180.874 226.097 181.771 226.346C183.984 226.967 186.119 227.039 188.108 226.573C190.071 226.118 191.777 225.033 193.324 223.297C194.834 221.545 196.229 219.184 197.432 216.243C198.693 213.221 199.797 210.022 200.714 206.761C202.002 202.184 202.562 197.605 202.375 193.209C202.182 188.874 201.288 185.149 199.741 182.12C198.819 180.336 197.616 178.942 196.178 177.979L196.151 177.945Z" fill="#009C18"/>
<path d="M204.965 173.868C206.872 175.125 208.59 176.663 210.135 178.446C213.51 182.333 215.781 186.821 216.964 191.919C218.129 197.009 217.991 202.184 216.523 207.453C214.901 213.211 212.267 218.303 208.604 222.766C204.924 227.22 200.449 230.376 195.127 232.254C189.813 234.114 183.82 234.126 177.183 232.262C174.419 231.481 171.92 230.346 169.669 228.849C167.915 227.681 166.3 226.297 164.869 224.693C161.564 221.032 159.369 216.663 158.276 211.605C157.182 206.546 157.426 201.183 159.026 195.522C160.216 191.31 162.089 187.445 164.652 183.908C167.225 180.398 170.287 177.428 173.856 175.005C177.417 172.6 181.222 170.948 185.281 170.075C189.34 169.201 193.4 169.336 197.451 170.455C200.214 171.236 202.713 172.371 204.965 173.868ZM178.363 226.629C179.258 227.221 180.234 227.678 181.309 227.963C183.806 228.668 186.196 228.746 188.497 228.205C190.781 227.656 192.822 226.398 194.585 224.416C196.229 222.509 197.714 219.995 198.989 216.893C200.282 213.799 201.402 210.564 202.34 207.206C203.681 202.416 204.252 197.714 204.074 193.106C203.869 188.509 202.922 184.567 201.241 181.307C200.185 179.248 198.789 177.661 197.106 176.525C196.112 175.867 195.01 175.354 193.784 175.023C191.802 174.462 189.91 174.326 188.114 174.599C186.319 174.872 184.539 175.688 182.748 177.058C180.491 178.799 178.604 181.349 177.112 184.697C175.62 188.045 174.295 191.789 173.127 195.904C171.83 200.498 171.281 205.103 171.477 209.719C171.674 214.335 172.587 218.304 174.21 221.645C175.273 223.836 176.654 225.503 178.355 226.647L178.363 226.629ZM206.848 171.037C204.298 169.343 201.442 168.049 198.35 167.186C193.773 165.897 189.116 165.754 184.536 166.738C180.069 167.709 175.824 169.53 171.896 172.179C168.02 174.808 164.638 178.065 161.86 181.892C159.056 185.728 156.982 189.997 155.703 194.599C153.96 200.775 153.707 206.736 154.912 212.316C156.118 217.939 158.619 222.874 162.303 226.983C163.937 228.806 165.763 230.392 167.752 231.708C170.283 233.394 173.14 234.688 176.232 235.551C183.536 237.604 190.266 237.577 196.226 235.469C202.11 233.391 207.156 229.868 211.219 224.94C215.183 220.139 218.058 214.553 219.802 208.377C221.422 202.575 221.602 196.776 220.29 191.148C218.996 185.528 216.448 180.508 212.72 176.208C210.973 174.206 209.008 172.45 206.856 171.019L206.848 171.037ZM180.246 223.799C179.053 223.009 178.079 221.824 177.294 220.166C175.892 217.244 175.076 213.683 174.91 209.575C174.731 205.353 175.243 201.075 176.424 196.837C177.538 192.891 178.807 189.272 180.245 186.093C181.498 183.282 183.053 181.142 184.851 179.755C186.15 178.767 187.43 178.157 188.624 177.981C189.932 177.791 191.367 177.894 192.869 178.328C193.731 178.561 194.511 178.93 195.215 179.373C196.426 180.17 197.416 181.32 198.205 182.873C199.655 185.686 200.485 189.168 200.658 193.258C200.837 197.48 200.296 201.874 199.061 206.281C198.169 209.488 197.071 212.626 195.842 215.576C194.701 218.33 193.413 220.546 192.002 222.17C190.723 223.596 189.315 224.492 187.709 224.871C185.981 225.281 184.188 225.212 182.242 224.666C181.513 224.471 180.877 224.165 180.254 223.781L180.246 223.799Z" fill="black"/>
<path d="M203.42 239.406C203.139 239.216 202.885 239.017 202.646 238.782C201.765 237.917 201.46 236.772 201.793 235.591C202.181 234.24 203.061 233.323 204.31 232.978C205.09 232.768 206.006 232.639 207.083 232.583C208.398 232.568 209.61 232.4 210.781 232.085C211.466 231.896 211.994 231.144 212.349 229.865L221.227 198.241C221.856 196.01 222.173 194.048 222.16 192.39C222.155 191.68 221.977 190.635 220.368 189.574L220.08 189.403C219.383 188.942 218.946 188.383 218.678 187.684C218.372 186.925 218.351 186.057 218.625 185.106C219.428 182.245 221.317 182.1 222.101 182.17C225.198 182.155 228.134 181.876 230.795 181.345C233.5 180.812 236.083 180.074 238.482 179.169C238.818 179.04 239.198 178.909 239.597 178.786C240.264 178.59 240.894 178.57 241.471 178.72C241.774 178.812 242.042 178.932 242.277 179.079C242.792 179.416 243.158 179.944 243.299 180.543C243.43 181.116 243.395 181.723 243.213 182.372C243.018 183.1 242.539 184.368 241.741 186.351C241.33 187.37 240.976 188.307 240.681 189.162C243.584 187.752 246.471 186.764 249.272 186.209C253.221 185.437 257.391 185.664 261.682 186.868C263.282 187.324 264.75 187.978 266.043 188.833C268.657 190.577 270.666 193.146 271.983 196.501C273.91 201.373 274.004 207.038 272.239 213.311L263.529 244.367C263.005 246.215 263.544 246.691 263.727 246.859C264.696 247.719 265.734 248.568 266.839 249.362C267.575 249.926 268.19 250.521 268.77 251.145C269.657 252.141 269.932 253.401 269.579 254.724C269.201 256.101 268.151 256.964 266.812 257.032C266.016 257.085 265.258 257.005 264.555 256.799C262.761 256.3 261.272 255.787 260.075 255.296C258.975 254.827 257.894 254.41 256.868 254.017C255.859 253.632 254.596 253.24 253.111 252.815C251.716 252.43 250.439 252.118 249.333 251.904C248.208 251.682 247.05 251.488 245.866 251.303C244.603 251.105 243.06 250.761 241.266 250.262C240.671 250.104 240.016 249.791 239.32 249.33C238.145 248.549 237.684 247.271 238.062 245.894C238.433 244.579 239.33 243.626 240.612 243.253C241.426 243.015 242.278 242.837 243.124 242.721C244.523 242.614 245.831 242.425 247.057 242.177C247.649 242.054 248.127 241.366 248.484 240.131L256.831 210.372C257.83 206.783 257.783 203.758 256.643 201.404C255.928 199.927 254.956 198.785 253.663 197.93C252.921 197.428 252.034 197.011 251.073 196.712C248.709 196.045 246.436 195.847 244.406 196.166C242.314 196.478 240.245 197.123 238.244 198.098C238.176 198.154 237.967 198.382 237.762 198.699C237.525 199.087 237.347 199.437 237.265 199.765L227.577 234.269C227.229 235.53 227.286 236.414 227.745 236.876C228.58 237.699 229.491 238.448 230.468 239.098C232.968 240.856 233.897 242.622 233.39 244.435C233.08 245.563 232.317 246.36 231.262 246.705C230.406 246.989 229.449 246.97 228.329 246.643C226.552 246.151 225.046 245.63 223.848 245.14C222.748 244.671 221.711 244.252 220.756 243.891C219.819 243.538 218.6 243.144 217.133 242.727C215.738 242.341 214.461 242.03 213.355 241.816C212.23 241.594 211.054 241.391 209.827 241.209C208.501 241.005 206.941 240.653 205.172 240.144C204.542 239.97 203.987 239.723 203.507 239.402L203.42 239.406Z" fill="#009C18"/>
<path d="M265.063 190.263C267.396 191.817 269.147 194.1 270.352 197.126C272.151 201.662 272.218 206.906 270.56 212.841L261.85 243.897C261.312 245.825 261.55 247.218 262.538 248.131C263.552 249.033 264.626 249.898 265.788 250.759C266.388 251.241 266.955 251.751 267.436 252.309C267.935 252.875 268.078 253.518 267.866 254.282C267.676 254.949 267.28 255.308 266.667 255.336C266.054 255.363 265.491 255.327 264.957 255.175C263.224 254.681 261.8 254.218 260.682 253.742C259.564 253.265 258.465 252.84 257.421 252.439C256.376 252.038 255.059 251.622 253.513 251.191C252.047 250.774 250.744 250.472 249.601 250.242C248.451 250.03 247.275 249.827 246.073 249.635C244.871 249.443 243.409 249.113 241.668 248.638C241.232 248.508 240.739 248.267 240.188 247.914C239.645 247.543 239.464 247.033 239.654 246.367C239.866 245.603 240.326 245.1 241.037 244.901C241.755 244.685 242.486 244.539 243.262 244.434C244.687 244.318 246.039 244.126 247.335 243.867C248.613 243.599 249.521 242.523 250.059 240.595L258.405 210.837C259.534 206.812 259.436 203.421 258.111 200.663C257.279 198.918 256.076 197.524 254.53 196.514C253.635 195.922 252.623 195.449 251.511 195.103C248.836 194.362 246.353 194.157 244.078 194.495C241.802 194.833 239.579 195.538 237.422 196.572C236.97 196.864 236.576 197.268 236.239 197.783C235.894 198.316 235.67 198.818 235.543 199.297L225.854 233.801C225.317 235.729 225.52 237.15 226.475 238.09C227.401 238.997 228.386 239.822 229.452 240.511L229.559 240.559C231.263 241.791 231.963 242.918 231.667 243.967C231.5 244.536 231.165 244.902 230.655 245.082C230.154 245.245 229.495 245.23 228.713 245.011C226.98 244.517 225.555 244.054 224.437 243.577C223.319 243.101 222.265 242.674 221.31 242.313C220.337 241.943 219.081 241.534 217.535 241.103C216.069 240.685 214.766 240.383 213.623 240.153C212.473 239.941 211.279 239.731 210.034 239.541C208.788 239.351 207.29 239.005 205.574 238.52C205.121 238.382 204.727 238.206 204.393 237.993C204.212 237.869 204.039 237.728 203.892 237.576C203.46 237.148 203.323 236.637 203.473 236.059C203.685 235.295 204.111 234.82 204.77 234.642C205.429 234.463 206.231 234.349 207.169 234.316C208.572 234.297 209.924 234.105 211.241 233.748C212.559 233.392 213.474 232.254 214.003 230.344L222.881 198.719C223.564 196.32 223.883 194.209 223.89 192.409C223.876 190.708 223.032 189.28 221.341 188.162C221.242 188.096 221.124 188.022 221.025 187.956L220.953 187.924C220.673 187.735 220.44 187.438 220.291 187.05C220.133 186.636 220.137 186.144 220.287 185.567C220.626 184.324 221.216 183.771 222.028 183.875C225.292 183.87 228.323 183.569 231.142 183.022C233.943 182.468 236.595 181.718 239.105 180.755C239.416 180.636 239.745 180.525 240.117 180.412C240.463 180.309 240.778 180.277 241.044 180.353C241.152 180.401 241.259 180.449 241.367 180.497C241.512 180.605 241.623 180.74 241.657 180.905C241.722 181.192 241.692 181.5 241.586 181.882C241.396 182.549 240.918 183.816 240.175 185.674C239.415 187.525 238.854 189.12 238.485 190.479C238.379 190.861 238.291 191.251 238.221 191.649C238.151 192.047 238.145 192.302 238.22 192.421C242.127 190.107 245.92 188.578 249.627 187.869C253.316 187.152 257.194 187.357 261.238 188.493C262.668 188.895 263.957 189.469 265.115 190.243L265.063 190.263ZM267.006 187.395C265.568 186.432 263.921 185.698 262.17 185.196C257.612 183.916 253.17 183.675 248.977 184.511C247.264 184.841 245.522 185.331 243.769 185.988C244.37 184.496 244.729 183.498 244.901 182.823C245.167 181.89 245.197 181.002 245.011 180.168C244.771 179.117 244.161 178.223 243.266 177.631C242.886 177.376 242.439 177.176 241.977 177.056C241.08 176.807 240.124 176.832 239.137 177.121C238.713 177.254 238.307 177.395 237.918 177.544C235.615 178.427 233.11 179.135 230.501 179.646C227.961 180.145 225.182 180.409 222.226 180.444C220.262 180.277 217.964 181.292 217.034 184.633C216.662 185.948 216.709 187.192 217.153 188.313C217.558 189.33 218.236 190.169 219.096 190.745L219.167 190.777L219.294 190.876L219.475 191C220.488 191.666 220.491 192.139 220.503 192.402C220.508 193.885 220.211 195.706 219.628 197.785L210.75 229.409C210.576 230.04 210.397 230.346 210.287 230.448C209.29 230.711 208.235 230.864 207.156 230.876C205.843 230.935 204.831 231.085 203.904 231.337C202.092 231.839 200.749 233.215 200.194 235.135C199.703 236.912 200.177 238.689 201.499 240.008C201.811 240.319 202.157 240.602 202.519 240.849C203.162 241.286 203.878 241.605 204.686 241.815C206.552 242.346 208.156 242.696 209.535 242.924C210.737 243.116 211.913 243.318 213.019 243.532C214.09 243.73 215.305 244.036 216.664 244.406C218.077 244.799 219.261 245.176 220.136 245.524C221.065 245.895 222.084 246.306 223.174 246.749C224.443 247.271 225.967 247.8 227.842 248.314C229.272 248.715 230.598 248.726 231.749 248.359C233.357 247.831 234.539 246.577 235 244.915C235.499 243.121 235.319 240.444 231.56 237.803L231.379 237.679C230.538 237.111 229.746 236.479 229.03 235.774C229.025 235.643 229.045 235.308 229.195 234.731L238.883 200.228C238.883 200.228 238.985 199.951 239.172 199.627C239.196 199.573 239.238 199.528 239.246 199.51C240.983 198.695 242.792 198.15 244.614 197.867C246.409 197.594 248.427 197.785 250.622 198.398C251.334 198.63 252.068 198.957 252.675 199.378C253.697 200.069 254.492 200.982 255.062 202.158C256.01 204.126 256.029 206.731 255.144 209.921L246.798 239.679C246.67 240.158 246.524 240.437 246.45 240.554C245.371 240.76 244.203 240.926 243.023 241.022L242.953 241.034L242.883 241.046C241.932 241.159 240.984 241.359 240.092 241.626C238.257 242.182 236.914 243.558 236.393 245.45C235.802 247.547 236.55 249.576 238.314 250.77C239.191 251.354 239.989 251.731 240.771 251.951C242.637 252.482 244.215 252.842 245.584 253.044C246.75 253.22 247.883 253.424 248.997 253.621C250.068 253.819 251.283 254.124 252.642 254.494C254.073 254.895 255.293 255.289 256.265 255.658C257.274 256.043 258.329 256.47 259.419 256.913C260.688 257.435 262.212 257.964 264.086 258.478C264.966 258.719 265.909 258.818 266.898 258.765C268.99 258.646 270.624 257.292 271.207 255.213C271.738 253.346 271.32 251.443 270.038 250.035C269.391 249.318 268.695 248.664 267.95 248.074L267.896 248.05L267.858 247.991C266.87 247.271 265.923 246.506 265.046 245.729C265.048 245.58 265.071 245.289 265.208 244.836L273.918 213.78C275.79 207.125 275.68 201.11 273.614 195.876C272.16 192.202 269.936 189.344 267.042 187.41L267.006 187.395Z" fill="black"/>
<path d="M276.936 261.092C274.649 259.579 272.927 257.567 271.793 255.152C269.903 251.112 269.822 245.947 271.55 239.807L280.921 206.449C280.967 206.298 280.955 206.228 280.945 206.202L280.909 206.186C280.565 205.947 279.936 205.624 278.542 205.239L277.511 204.951C277.244 204.875 276.976 204.756 276.741 204.608C275.945 204.082 275.467 203.182 275.315 201.934C275.176 200.799 275.225 199.726 275.515 198.74C275.667 198.206 276.005 197.735 276.579 197.218C277.111 196.747 277.581 196.463 278.085 196.344C280.012 195.679 282.168 194.837 284.301 193.856C286.425 192.893 288.476 191.854 290.35 190.779C292.276 189.684 293.891 188.709 295.231 187.868C295.96 187.485 296.474 187.199 296.892 186.934C297.736 186.388 298.722 186.248 299.717 186.519C300.152 186.649 300.546 186.825 300.916 187.054C301.286 187.283 301.58 187.586 301.859 187.925C302.556 188.815 302.627 190.005 302.068 191.451L299.301 198.287C299.073 198.894 299.137 199.137 299.137 199.137C299.137 199.137 299.29 199.227 299.372 199.284C299.634 199.466 300.018 199.615 300.472 199.753L315.747 204.049L316.071 204.237C316.966 204.829 317.146 205.918 317.233 206.686C317.327 207.629 317.237 208.555 316.995 209.434C316.654 210.634 316.177 211.752 315.581 212.753C315.222 213.365 314.12 215.213 312.351 214.704L299.796 211.191C297.201 210.464 296.49 210.662 296.457 210.69C296.457 210.69 296.04 210.998 295.611 212.588L287.778 240.471C286.739 244.15 286.609 247.14 287.357 249.361C287.811 250.701 288.531 251.687 289.571 252.387C290.114 252.758 290.759 253.045 291.487 253.241C293.779 253.876 295.564 254.156 296.788 254.058C298.082 253.948 299.292 253.736 300.391 253.389C300.96 253.17 301.546 253.109 302.097 253.269C302.381 253.353 302.632 253.465 302.867 253.612C303.3 253.891 304.006 254.57 304.003 255.878C304.006 256.545 303.888 257.243 303.692 257.972C303.375 259.118 302.241 260.072 299.651 261.407C297.566 262.473 294.972 263.335 291.972 263.951C288.85 264.598 285.686 264.476 282.594 263.613C280.461 263.006 278.555 262.178 276.972 261.108L276.936 261.092Z" fill="#009C18"/>
<path d="M299.972 188.5C300.171 188.631 300.354 188.799 300.503 188.994C300.819 189.392 300.802 190.007 300.471 190.847L297.712 197.665C297.297 198.789 297.334 199.621 297.779 200.163C297.946 200.366 298.165 200.549 298.409 200.723C298.825 200.994 299.362 201.233 300.011 201.415L315.019 205.635C315.019 205.635 315.073 205.659 315.109 205.675C315.308 205.806 315.448 206.213 315.504 206.859C315.58 207.602 315.524 208.306 315.326 208.991C315.031 210.039 314.618 211.014 314.095 211.897C313.573 212.781 313.135 213.186 312.797 213.078L300.242 209.565C298.083 208.968 296.61 208.805 295.834 209.103C295.057 209.401 294.417 210.403 293.942 212.144L286.109 240.028C284.98 244.053 284.846 247.341 285.715 249.917C286.29 251.611 287.252 252.92 288.609 253.825C289.305 254.285 290.111 254.644 291.026 254.902C293.523 255.607 295.493 255.906 296.918 255.79C298.343 255.674 299.675 255.43 300.895 255.051C301.206 254.932 301.459 254.894 301.628 254.948C301.717 254.988 301.825 255.036 301.896 255.068C302.141 255.241 302.258 255.508 302.258 255.894C302.263 256.412 302.173 256.951 302.006 257.52C301.838 258.089 300.776 258.882 298.829 259.881C296.881 260.881 294.468 261.672 291.6 262.283C288.739 262.875 285.883 262.782 283.03 261.962C281.048 261.4 279.347 260.642 277.891 259.672C275.857 258.314 274.34 256.565 273.341 254.425C271.633 250.745 271.572 246.018 273.194 240.26L282.547 206.895C282.759 206.131 282.634 205.496 282.165 205.008C282.063 204.898 281.918 204.79 281.755 204.675C281.194 204.296 280.265 203.925 279.003 203.577L277.973 203.29C277.883 203.25 277.794 203.21 277.686 203.162C277.342 202.923 277.11 202.433 277.007 201.701C276.897 200.793 276.947 199.957 277.159 199.193C277.221 199.006 277.394 198.761 277.707 198.493C278.02 198.225 278.266 198.056 278.476 198.02C280.628 197.284 282.818 196.414 284.994 195.431C287.17 194.448 289.247 193.399 291.181 192.287C293.115 191.174 294.773 190.196 296.122 189.338C296.765 189.002 297.33 188.696 297.783 188.404C298.235 188.112 298.714 188.047 299.23 188.191C299.496 188.267 299.729 188.37 299.946 188.51L299.972 188.5ZM301.837 185.662C301.322 185.325 300.767 185.077 300.154 184.912C298.706 184.502 297.207 184.736 295.926 185.538C295.568 185.765 295.088 186.023 294.556 186.301L294.419 186.369L294.292 186.462C292.969 187.311 291.344 188.261 289.47 189.335C287.63 190.383 285.657 191.392 283.558 192.345C281.511 193.278 279.451 194.098 277.428 194.785C276.735 194.991 276.094 195.371 275.393 195.981C274.574 196.711 274.064 197.47 273.838 198.314C273.488 199.532 273.423 200.833 273.589 202.195C273.862 204.376 274.922 205.514 275.771 206.064C276.151 206.319 276.58 206.511 277.024 206.623L278.055 206.91C278.401 207 278.66 207.094 278.9 207.18L269.873 239.381C268.031 245.921 268.155 251.47 270.213 255.907C271.474 258.615 273.408 260.871 275.958 262.566C277.694 263.726 279.753 264.643 282.063 265.286C285.422 266.225 288.859 266.362 292.241 265.659C295.406 265.009 298.13 264.098 300.352 262.964C302.909 261.657 304.721 260.383 305.269 258.481C305.502 257.619 305.64 256.779 305.647 255.945C305.657 254.383 304.965 253.045 303.762 252.23C303.382 251.975 302.97 251.791 302.509 251.671C301.647 251.438 300.728 251.478 299.76 251.82C298.791 252.117 297.738 252.313 296.601 252.408C296.024 252.451 294.662 252.424 291.899 251.643C291.348 251.483 290.864 251.268 290.466 251.005C289.734 250.528 289.248 249.839 288.932 248.862C288.295 246.968 288.449 244.311 289.398 240.979L297.231 213.095C297.307 212.828 297.377 212.623 297.43 212.454C297.836 212.506 298.447 212.628 299.319 212.888L311.874 216.401C313.02 216.719 315.199 216.789 317.043 213.662C317.721 212.526 318.262 211.265 318.641 209.931C318.945 208.865 319.043 207.729 318.921 206.558C318.866 205.911 318.683 203.963 317.01 202.853L316.567 202.548L315.962 202.364L301.202 198.212L303.652 192.136C304.652 189.555 303.963 187.875 303.217 186.899C302.836 186.407 302.378 185.989 301.881 185.66L301.837 185.662Z" fill="black"/>
</svg>
