<svg width="1440" height="108" viewBox="0 0 1440 108" fill="none" xmlns="http://www.w3.org/2000/svg">
<path d="M36.0005 0H0V35.9733H36.0005V0Z" fill="#C9B9D3"/>
<path d="M108 0H72V35.9733H108V0Z" fill="#C9B9D3"/>
<path d="M179.984 0H143.983V35.9733H179.984V0Z" fill="#C9B9D3"/>
<path d="M251.985 0H215.985V35.9733H251.985V0Z" fill="#C9B9D3"/>
<path d="M323.967 0H287.966V35.9733H323.967V0Z" fill="#C9B9D3"/>
<path d="M395.969 0H359.968V35.9733H395.969V0Z" fill="#C9B9D3"/>
<path d="M467.952 0H431.951V35.9733H467.952V0Z" fill="#C9B9D3"/>
<path d="M539.953 0H503.952V35.9733H539.953V0Z" fill="#C9B9D3"/>
<path d="M611.935 0H575.935V35.9733H611.935V0Z" fill="#C9B9D3"/>
<path d="M683.935 0H647.935V35.9733H683.935V0Z" fill="#C9B9D3"/>
<path d="M72.0005 35.9734H36V71.9467H72.0005V35.9734Z" fill="#C9B9D3"/>
<path d="M143.983 35.9734H107.982V71.9467H143.983V35.9734Z" fill="#C9B9D3"/>
<path d="M215.984 35.9734H179.983V71.9467H215.984V35.9734Z" fill="#C9B9D3"/>
<path d="M287.967 35.9734H251.966V71.9467H287.967V35.9734Z" fill="#C9B9D3"/>
<path d="M359.969 35.9734H323.968V71.9467H359.969V35.9734Z" fill="#C9B9D3"/>
<path d="M431.95 35.9734H395.95V71.9467H431.95V35.9734Z" fill="#C9B9D3"/>
<path d="M503.952 35.9734H467.951V71.9467H503.952V35.9734Z" fill="#C9B9D3"/>
<path d="M575.935 35.9734H539.935V71.9467H575.935V35.9734Z" fill="#C9B9D3"/>
<path d="M647.935 35.9734H611.935V71.9467H647.935V35.9734Z" fill="#C9B9D3"/>
<path d="M719.917 35.9734H683.917V71.9467H719.917V35.9734Z" fill="#C9B9D3"/>
<path d="M36.0005 71.9282H0V107.902H36.0005V71.9282Z" fill="#C9B9D3"/>
<path d="M108 71.9282H72V107.902H108V71.9282Z" fill="#C9B9D3"/>
<path d="M179.984 71.9282H143.983V107.902H179.984V71.9282Z" fill="#C9B9D3"/>
<path d="M251.985 71.9282H215.985V107.902H251.985V71.9282Z" fill="#C9B9D3"/>
<path d="M323.967 71.9282H287.966V107.902H323.967V71.9282Z" fill="#C9B9D3"/>
<path d="M395.969 71.9282H359.968V107.902H395.969V71.9282Z" fill="#C9B9D3"/>
<path d="M467.952 71.9282H431.951V107.902H467.952V71.9282Z" fill="#C9B9D3"/>
<path d="M539.953 71.9282H503.952V107.902H539.953V71.9282Z" fill="#C9B9D3"/>
<path d="M611.935 71.9282H575.935V107.902H611.935V71.9282Z" fill="#C9B9D3"/>
<path d="M683.935 71.9282H647.935V107.902H683.935V71.9282Z" fill="#C9B9D3"/>
<path d="M756.083 0H720.083V35.9733H756.083V0Z" fill="#C9B9D3"/>
<path d="M828.065 0H792.065V35.9733H828.065V0Z" fill="#C9B9D3"/>
<path d="M900.067 0H864.066V35.9733H900.067V0Z" fill="#C9B9D3"/>
<path d="M972.049 0H936.049V35.9733H972.049V0Z" fill="#C9B9D3"/>
<path d="M1044.05 0H1008.05V35.9733H1044.05V0Z" fill="#C9B9D3"/>
<path d="M1116.03 0H1080.03V35.9733H1116.03V0Z" fill="#C9B9D3"/>
<path d="M1188.03 0H1152.03V35.9733H1188.03V0Z" fill="#C9B9D3"/>
<path d="M1260.02 0H1224.01V35.9733H1260.02V0Z" fill="#C9B9D3"/>
<path d="M1332.02 0H1296.02V35.9733H1332.02V0Z" fill="#C9B9D3"/>
<path d="M1404 0H1368V35.9733H1404V0Z" fill="#C9B9D3"/>
<path d="M792.065 35.9734H756.065V71.9467H792.065V35.9734Z" fill="#C9B9D3"/>
<path d="M864.067 35.9734H828.066V71.9467H864.067V35.9734Z" fill="#C9B9D3"/>
<path d="M936.049 35.9734H900.049V71.9467H936.049V35.9734Z" fill="#C9B9D3"/>
<path d="M1008.05 35.9734H972.049V71.9467H1008.05V35.9734Z" fill="#C9B9D3"/>
<path d="M1080.03 35.9734H1044.03V71.9467H1080.03V35.9734Z" fill="#C9B9D3"/>
<path d="M1152.03 35.9734H1116.03V71.9467H1152.03V35.9734Z" fill="#C9B9D3"/>
<path d="M1224.02 35.9734H1188.01V71.9467H1224.02V35.9734Z" fill="#C9B9D3"/>
<path d="M1296.02 35.9734H1260.02V71.9467H1296.02V35.9734Z" fill="#C9B9D3"/>
<path d="M1368 35.9734H1332V71.9467H1368V35.9734Z" fill="#C9B9D3"/>
<path d="M1440 35.9734H1404V71.9467H1440V35.9734Z" fill="#C9B9D3"/>
<path d="M756.083 71.9285H720.083V107.902H756.083V71.9285Z" fill="#C9B9D3"/>
<path d="M828.065 71.9285H792.065V107.902H828.065V71.9285Z" fill="#C9B9D3"/>
<path d="M900.067 71.9285H864.066V107.902H900.067V71.9285Z" fill="#C9B9D3"/>
<path d="M972.049 71.9285H936.049V107.902H972.049V71.9285Z" fill="#C9B9D3"/>
<path d="M1044.05 71.9285H1008.05V107.902H1044.05V71.9285Z" fill="#C9B9D3"/>
<path d="M1116.03 71.9285H1080.03V107.902H1116.03V71.9285Z" fill="#C9B9D3"/>
<path d="M1188.03 71.9285H1152.03V107.902H1188.03V71.9285Z" fill="#C9B9D3"/>
<path d="M1260.02 71.9285H1224.01V107.902H1260.02V71.9285Z" fill="#C9B9D3"/>
<path d="M1332.02 71.9285H1296.02V107.902H1332.02V71.9285Z" fill="#C9B9D3"/>
<path d="M1404 71.9285H1368V107.902H1404V71.9285Z" fill="#C9B9D3"/>
</svg>
