<svg width="525" height="72" viewBox="0 0 525 72" fill="none" xmlns="http://www.w3.org/2000/svg">
<path d="M67.6985 39.6615C59.1986 56.8991 38.8728 70.8658 22.3218 70.8658C5.77077 70.8658 -0.762528 56.8991 7.73736 39.6615C16.2372 22.424 36.5499 8.45728 53.1141 8.45728C69.6783 8.45728 76.1984 22.424 67.6985 39.6615Z" fill="black"/>
<path d="M21.8072 71.9076C4.72821 71.9076 -2.02947 57.4397 6.73439 39.6614C15.5114 21.8832 36.55 7.41528 53.629 7.41528C70.7211 7.41528 77.4788 21.8832 68.7017 39.6614C59.9247 57.4397 38.8861 71.9076 21.8072 71.9076ZM52.5995 9.49909C36.6292 9.49909 16.9501 23.0306 8.75377 39.6614C0.544255 56.2923 6.86639 69.8238 22.8499 69.8238C38.8202 69.8238 58.4992 56.2923 66.6956 39.6614C74.9051 23.0306 68.5829 9.49909 52.5995 9.49909Z" fill="black"/>
<path d="M196.755 39.622C188.242 56.8595 167.916 70.8263 151.365 70.8263C134.814 70.8263 128.294 56.8595 136.807 39.622C145.32 22.3845 165.646 8.41772 182.197 8.41772C198.748 8.41772 205.268 22.3845 196.755 39.622Z" fill="black"/>
<path d="M150.838 71.8681C133.759 71.8681 127.001 57.4002 135.791 39.6219C144.568 21.8436 165.62 7.37573 182.699 7.37573C199.791 7.37573 206.536 21.8436 197.745 39.6219C188.955 57.4002 167.917 71.8681 150.838 71.8681ZM181.669 9.45954C165.699 9.45954 146.02 22.9911 137.797 39.6219C129.588 56.2527 135.897 69.7843 151.867 69.7843C167.837 69.7843 187.516 56.2527 195.739 39.6219C203.962 22.9911 197.64 9.45954 181.669 9.45954Z" fill="black"/>
<path d="M261.255 39.622C252.729 56.8595 232.403 70.8263 215.852 70.8263C199.301 70.8263 192.781 56.8595 201.294 39.622C209.807 22.3845 230.133 8.41772 246.697 8.41772C263.262 8.41772 269.768 22.3845 261.255 39.622Z" fill="black"/>
<path d="M215.351 71.8681C198.272 71.8681 191.527 57.4002 200.304 39.6219C209.095 21.8436 230.146 7.37573 247.225 7.37573C264.317 7.37573 271.062 21.8436 262.272 39.6219C253.481 57.4002 232.43 71.8681 215.351 71.8681ZM246.196 9.45954C230.226 9.45954 210.533 22.9911 202.324 39.6219C194.101 56.2527 200.41 69.7843 216.393 69.7843C232.364 69.7843 252.056 56.2527 260.266 39.6219C268.488 22.9911 262.179 9.45954 246.196 9.45954Z" fill="black"/>
<path d="M326.629 37.9862C318.116 55.2238 297.803 69.1905 281.252 69.1905C264.701 69.1905 258.181 55.2238 266.681 37.9862C275.181 20.7487 295.494 6.78198 312.058 6.78198C328.609 6.78198 335.129 20.7487 326.629 37.9862Z" fill="black"/>
<path d="M280.738 70.2323C263.659 70.2323 256.914 55.7644 265.678 37.9862C274.442 20.2079 295.494 5.73999 312.573 5.73999C329.652 5.73999 336.409 20.2079 327.632 37.9862C318.855 55.7644 297.817 70.2323 280.738 70.2323ZM311.543 7.82379C295.573 7.82379 275.894 21.3553 267.697 37.9862C259.488 54.617 265.81 68.1485 281.78 68.1485C297.751 68.1485 317.417 54.617 325.626 37.9862C333.836 21.3553 327.527 7.82379 311.543 7.82379Z" fill="black"/>
<path d="M455.632 37.9865C447.119 55.224 426.793 69.1908 410.242 69.1908C393.691 69.1908 387.184 55.224 395.697 37.9865C404.211 20.749 424.536 6.78223 441.087 6.78223C457.638 6.78223 464.159 20.749 455.632 37.9865Z" fill="black"/>
<path d="M409.714 70.2325C392.635 70.2325 385.891 55.7646 394.681 37.9864C403.471 20.2082 424.51 5.74023 441.589 5.74023C458.668 5.74023 465.412 20.2082 456.622 37.9864C447.832 55.7646 426.793 70.2325 409.714 70.2325ZM440.559 7.82404C424.589 7.82404 404.91 21.3556 396.687 37.9864C388.478 54.6172 394.774 68.1487 410.744 68.1487C426.714 68.1487 446.393 54.6172 454.616 37.9864C462.839 21.3556 456.53 7.82404 440.559 7.82404Z" fill="black"/>
<path d="M520.12 37.9865C511.594 55.224 491.268 69.1908 474.717 69.1908C458.166 69.1908 451.659 55.224 460.173 37.9865C468.686 20.749 489.011 6.78223 505.576 6.78223C522.127 6.78223 528.634 20.749 520.12 37.9865Z" fill="black"/>
<path d="M474.216 70.2325C457.137 70.2325 450.392 55.7646 459.183 37.9864C467.973 20.2082 489.025 5.74023 506.104 5.74023C523.183 5.74023 529.927 20.2082 521.137 37.9864C512.347 55.7646 491.295 70.2325 474.216 70.2325ZM505.074 7.82404C489.104 7.82404 469.425 21.3556 461.202 37.9864C452.979 54.6172 459.288 68.1487 475.259 68.1487C491.229 68.1487 510.908 54.6172 519.131 37.9864C527.353 21.3556 521.058 7.82404 505.074 7.82404Z" fill="black"/>
<path d="M391.13 37.9862C382.617 55.2238 362.305 69.1905 345.754 69.1905C329.203 69.1905 322.682 55.2238 331.196 37.9862C339.709 20.7487 360.021 6.78198 376.572 6.78198C393.123 6.78198 399.643 20.7487 391.13 37.9862Z" fill="black"/>
<path d="M345.226 70.2323C328.147 70.2323 321.403 55.7644 330.18 37.9862C338.957 20.2079 359.995 5.73999 377.088 5.73999C394.167 5.73999 400.924 20.2079 392.134 37.9862C383.344 55.7644 362.305 70.2323 345.226 70.2323ZM376.045 7.82379C360.075 7.82379 340.396 21.3553 332.186 37.9862C323.977 54.617 330.285 68.1485 346.256 68.1485C362.226 68.1485 381.905 54.617 390.115 37.9862C398.324 21.3553 392.015 7.82379 376.045 7.82379Z" fill="black"/>
<path d="M132.214 39.6615C123.701 56.8991 103.389 70.8658 86.8378 70.8658C70.2867 70.8658 63.7667 56.8991 72.2665 39.6615C80.7664 22.424 101.092 8.45728 117.643 8.45728C134.194 8.45728 140.728 22.424 132.214 39.6615Z" fill="black"/>
<path d="M86.3226 71.9076C69.2436 71.9076 62.486 57.4397 71.263 39.6614C80.0401 21.8832 101.079 7.41528 118.171 7.41528C135.263 7.41528 142.007 21.8832 133.23 39.6614C124.453 57.4397 103.402 71.9076 86.3226 71.9076ZM117.141 9.49909C101.171 9.49909 81.4919 23.0306 73.2824 39.6614C65.0729 56.2923 71.395 69.8238 87.3653 69.8238C103.336 69.8238 123.015 56.2923 131.224 39.6614C139.434 23.0306 133.125 9.49909 117.141 9.49909Z" fill="black"/>
<path d="M65.4822 34.9135C56.9823 52.151 36.6565 66.1177 20.1055 66.1177C3.55446 66.1177 -2.97884 52.151 5.52105 34.9135C14.0209 17.676 34.3336 3.70923 50.8978 3.70923C67.462 3.70923 73.9821 17.676 65.4822 34.9135Z" fill="#88E4FF"/>
<path d="M19.5909 67.1596C2.5119 67.1596 -4.24577 52.6916 4.51808 34.9134C13.2951 17.1351 34.3337 2.66724 51.4126 2.66724C68.5048 2.66724 75.2624 17.1351 66.4854 34.9134C57.7083 52.6916 36.6698 67.1596 19.5909 67.1596ZM50.3831 4.75104C34.4129 4.75104 14.7338 18.2825 6.53746 34.9134C-1.67205 51.5442 4.65006 65.0757 20.6335 65.0757C36.6038 65.0757 56.2829 51.5442 64.4792 34.9134C72.6887 18.2825 66.3666 4.75104 50.3831 4.75104Z" fill="black"/>
<path d="M44.9453 14.6294C48.0866 14.6294 51.0958 15.1174 53.9599 16.0801C55.3854 16.5681 56.6656 17.1352 57.8139 17.7683C58.949 18.4145 59.9521 19.1267 60.81 19.9312L46.7799 31.8669C44.2194 30.1656 41.5137 29.3215 38.6496 29.3215C36.7358 29.3215 34.9408 29.8359 33.2646 30.8778C31.6015 31.8801 30.3477 33.2385 29.503 34.953C28.6714 36.628 28.5659 37.8545 29.1598 38.6327C29.7669 39.3976 31.1132 39.7933 33.2118 39.7933L36.2738 33.5815H53.1548L42.5959 54.9734L34.0829 55.3954C32.697 55.4613 31.5355 55.5141 30.5853 55.5405C29.635 55.5668 28.8958 55.58 28.3679 55.58C22.9037 55.58 18.7989 54.881 16.0404 53.4962C13.3215 52.1246 11.7245 49.7639 11.2493 46.4008C10.8006 43.0509 11.6321 39.2393 13.7438 34.9662C15.618 31.1547 18.2182 27.6598 21.5178 24.4681C24.7911 21.316 28.4339 18.8893 32.4726 17.188C36.485 15.4867 40.6426 14.6426 44.9453 14.6426V14.6294Z" fill="black"/>
<path d="M194.537 34.8739C186.023 52.1115 165.698 66.0782 149.147 66.0782C132.596 66.0782 126.076 52.1115 134.589 34.8739C143.102 17.6364 163.428 3.66968 179.979 3.66968C196.543 3.66968 203.063 17.6364 194.537 34.8739Z" fill="#88E4FF"/>
<path d="M148.619 67.12C131.54 67.12 124.782 52.6521 133.572 34.8739C142.349 17.0956 163.401 2.62769 180.48 2.62769C197.572 2.62769 204.317 17.0956 195.527 34.8739C186.736 52.6521 165.698 67.12 148.619 67.12ZM179.451 4.71149C163.48 4.71149 143.788 18.243 135.579 34.8739C127.369 51.5047 133.678 65.0362 149.648 65.0362C165.619 65.0362 185.298 51.5047 193.52 34.8739C201.743 18.243 195.421 4.71149 179.451 4.71149Z" fill="black"/>
<path d="M190.262 15.2229L185.339 25.1803H170.86L167.31 32.3813H178.04L173.117 42.3387H162.387L156.183 54.8942H139.329L158.915 15.2361H190.249L190.262 15.2229Z" fill="black"/>
<path d="M259.052 34.8739C250.525 52.1115 230.2 66.0782 213.649 66.0782C197.098 66.0782 190.578 52.1115 199.091 34.8739C207.604 17.6364 227.929 3.66968 244.494 3.66968C261.058 3.66968 267.565 17.6364 259.052 34.8739Z" fill="#88E4FF"/>
<path d="M213.134 67.12C196.055 67.12 189.311 52.6521 198.088 34.8739C206.878 17.0956 227.93 2.62769 245.009 2.62769C262.101 2.62769 268.845 17.0956 260.055 34.8739C251.265 52.6521 230.213 67.12 213.134 67.12ZM243.979 4.71149C228.009 4.71149 208.317 18.243 200.107 34.8739C191.884 51.5047 198.193 65.0362 214.177 65.0362C230.16 65.0362 249.826 51.5047 258.049 34.8739C266.271 18.243 259.963 4.71149 243.979 4.71149Z" fill="black"/>
<path d="M255.224 15.2229L246.54 32.7901H238.053L227.138 54.881H210.257L221.172 32.7901H212.685L221.37 15.2229H255.224Z" fill="black"/>
<path d="M324.412 33.2387C315.899 50.4762 295.587 64.4429 279.036 64.4429C262.485 64.4429 255.964 50.4762 264.464 33.2387C272.964 16.0012 293.277 2.03442 309.841 2.03442C326.392 2.03442 332.912 16.0012 324.412 33.2387Z" fill="#88E4FF"/>
<path d="M278.52 65.4847C261.441 65.4847 254.684 51.0168 263.461 33.2386C272.238 15.4603 293.276 0.992432 310.355 0.992432C327.434 0.992432 334.192 15.4603 325.415 33.2386C316.638 51.0168 295.599 65.4847 278.52 65.4847ZM309.326 3.07623C293.356 3.07623 273.676 16.6077 265.48 33.2386C257.271 49.8694 263.593 63.4009 279.563 63.4009C295.533 63.4009 315.199 49.8694 323.409 33.2386C331.618 16.6077 325.309 3.07623 309.326 3.07623Z" fill="black"/>
<path d="M305.748 12.9543C307.041 12.9543 308.335 13.0203 309.602 13.1522C310.869 13.2841 312.149 13.4687 313.443 13.7061C314.736 13.9435 315.911 14.2205 316.953 14.537C317.996 14.8535 318.92 15.2096 319.725 15.6053L309.364 28.108C308.955 26.2748 308.19 24.8505 307.081 23.835C305.972 22.8194 304.534 22.3183 302.765 22.3183C301.722 22.3183 300.851 22.5425 300.165 22.9777C299.479 23.4261 298.977 23.9668 298.647 24.6263C298.343 25.2461 298.502 25.8528 299.122 26.4199C299.743 26.987 300.825 27.6464 302.356 28.3982C306.368 30.2842 308.638 32.1701 309.153 34.0429C309.655 35.8761 309.245 38.1446 307.912 40.8483C305.84 45.0554 302.699 48.2866 298.528 50.5287C294.344 52.7708 289.223 53.8918 283.152 53.8918C279.984 53.8918 277.094 53.6676 274.48 53.2192C271.854 52.7708 269.439 51.9926 267.234 50.9112L277.899 37.6566C278.123 39.569 278.836 41.0988 280.05 42.2594C281.238 43.42 282.664 44.0004 284.313 44.0004C285.132 44.0004 285.91 43.7893 286.663 43.3673C287.415 42.9452 287.943 42.4045 288.26 41.7715C288.629 41.0065 288.59 40.3471 288.101 39.78C287.626 39.2129 286.742 38.6194 285.462 37.9731C282.294 36.4301 280.42 34.7551 279.852 32.9615C279.298 31.1415 279.681 28.9126 280.974 26.2881C283.152 21.8699 286.32 18.5463 290.49 16.3174C294.648 14.0886 299.742 12.9807 305.774 12.9807L305.748 12.9543Z" fill="black"/>
<path d="M453.415 33.2387C444.902 50.4762 424.576 64.4429 408.025 64.4429C391.474 64.4429 384.968 50.4762 393.481 33.2387C401.994 16.0012 422.319 2.03442 438.871 2.03442C455.422 2.03442 461.942 16.0012 453.415 33.2387Z" fill="#88E4FF"/>
<path d="M407.51 65.4847C390.431 65.4847 383.687 51.0168 392.477 33.2386C401.267 15.4603 422.306 0.992432 439.385 0.992432C456.464 0.992432 463.208 15.4603 454.418 33.2386C445.628 51.0168 424.589 65.4847 407.51 65.4847ZM438.355 3.07623C422.385 3.07623 402.706 16.6077 394.483 33.2386C386.274 49.8694 392.583 63.4009 408.54 63.4009C424.51 63.4009 444.189 49.8694 452.412 33.2386C460.635 16.6077 454.326 3.07623 438.355 3.07623Z" fill="black"/>
<path d="M433.722 12.9543C437.312 12.9543 440.163 13.8775 442.275 15.7108C444.374 17.544 445.509 20.0235 445.667 23.1492C445.852 26.2485 445.02 29.6643 443.172 33.3835C441.338 37.0895 438.791 40.5186 435.517 43.6706C432.257 46.8227 428.667 49.3154 424.76 51.1618C420.827 52.9818 417.079 53.8918 413.502 53.8918C409.925 53.8918 407.074 52.9818 404.963 51.1618C402.877 49.3549 401.742 46.8755 401.584 43.697C401.425 40.5449 402.27 37.1027 404.105 33.3835C405.9 29.7434 408.421 26.354 411.654 23.2019C414.875 20.0894 418.465 17.5968 422.398 15.7372C426.344 13.8776 430.119 12.9543 433.709 12.9543H433.722ZM420.378 32.3152C419.758 33.5681 419.626 34.5705 419.956 35.3354C420.312 36.1004 421.025 36.4828 422.081 36.4828C423.137 36.4828 424.232 36.1004 425.341 35.3354C426.463 34.5441 427.334 33.5286 427.928 32.3152C428.232 31.7085 428.403 31.1546 428.469 30.6403C428.535 30.1259 428.482 29.6907 428.337 29.3214C428.179 28.9521 427.928 28.6752 427.545 28.4642C427.176 28.2531 426.714 28.1476 426.159 28.1476C425.09 28.1476 424.008 28.5433 422.913 29.3214C421.817 30.0864 420.972 31.0755 420.365 32.3152H420.378Z" fill="black"/>
<path d="M517.916 33.2387C509.39 50.4762 489.064 64.4429 472.513 64.4429C455.962 64.4429 449.455 50.4762 457.968 33.2387C466.481 16.0012 486.807 2.03442 503.371 2.03442C519.922 2.03442 526.429 16.0012 517.916 33.2387Z" fill="#88E4FF"/>
<path d="M471.998 65.4847C454.919 65.4847 448.175 51.0168 456.965 33.2386C465.755 15.4603 486.807 0.992432 503.886 0.992432C520.965 0.992432 527.709 15.4603 518.919 33.2386C510.129 51.0168 489.077 65.4847 471.998 65.4847ZM502.856 3.07623C486.886 3.07623 467.207 16.6077 458.984 33.2386C450.762 49.8694 457.07 63.4009 473.041 63.4009C489.011 63.4009 508.69 49.8694 516.913 33.2386C525.136 16.6077 518.827 3.07623 502.856 3.07623Z" fill="black"/>
<path d="M512.57 26.6704C511.356 29.1103 509.68 31.3524 507.515 33.3966C505.324 35.4804 502.975 37.1026 500.467 38.2632C497.92 39.437 495.531 40.0305 493.274 40.0305C491.756 40.0305 490.463 39.7667 489.367 39.2523C488.272 38.6984 487.242 37.8016 486.279 36.5751L478.201 52.9289H461.347L480.96 13.2708H504.321C505.707 13.2708 506.961 13.4026 508.109 13.6532C509.244 13.9038 510.247 14.2863 511.092 14.8138C511.937 15.3282 512.623 15.9876 513.138 16.7789C513.653 17.5702 513.983 18.4935 514.101 19.5485C514.365 21.6983 513.864 24.0854 512.57 26.6968V26.6704ZM489.301 30.4687C489.737 30.6138 490.159 30.6797 490.595 30.6797C491.215 30.6797 491.835 30.5742 492.469 30.35C493.102 30.139 493.696 29.8357 494.264 29.44C494.831 29.0443 495.359 28.5696 495.848 28.0157C496.336 27.4485 496.745 26.8287 497.075 26.1561C497.748 24.8108 497.933 23.7425 497.63 22.9908C497.339 22.2259 496.587 21.8434 495.386 21.8434H493.564L489.301 30.4687Z" fill="black"/>
<path d="M388.913 33.2387C380.4 50.4762 360.088 64.4429 343.537 64.4429C326.986 64.4429 320.466 50.4762 328.979 33.2387C337.492 16.0012 357.804 2.03442 374.355 2.03442C390.906 2.03442 397.427 16.0012 388.913 33.2387Z" fill="#88E4FF"/>
<path d="M343.022 65.4847C325.943 65.4847 319.199 51.0168 327.976 33.2386C336.753 15.4603 357.791 0.992432 374.884 0.992432C391.963 0.992432 398.72 15.4603 389.93 33.2386C381.14 51.0168 360.101 65.4847 343.022 65.4847ZM373.841 3.07623C357.871 3.07623 338.191 16.6077 329.982 33.2386C321.772 49.8694 328.081 63.4009 344.052 63.4009C360.022 63.4009 379.701 49.8694 387.911 33.2386C396.12 16.6077 389.811 3.07623 373.841 3.07623Z" fill="black"/>
<path d="M364.099 14.2732L357.104 28.4378H365.472L372.467 14.2732H388.913L369.814 52.929H353.369L360.457 38.5666H352.089L345.001 52.929H328.556L347.641 14.2732H364.086H364.099Z" fill="black"/>
<path d="M129.998 34.9135C121.485 52.151 101.172 66.1178 84.621 66.1178C68.0699 66.1178 61.5499 52.151 70.0497 34.9135C78.5496 17.676 98.8754 3.70923 115.426 3.70923C131.991 3.70923 138.511 17.676 129.998 34.9135Z" fill="#88E4FF"/>
<path d="M84.1058 67.1596C67.0269 67.1596 60.2692 52.6916 69.0462 34.9134C77.8233 17.1351 98.8618 2.66724 115.954 2.66724C133.046 2.66724 139.791 17.1351 131.014 34.9134C122.237 52.6916 101.185 67.1596 84.1058 67.1596ZM114.911 4.75104C98.941 4.75104 79.2619 18.2825 71.0524 34.9134C62.8429 51.5442 69.165 65.0757 85.1353 65.0757C101.106 65.0757 120.785 51.5442 128.994 34.9134C137.204 18.2825 130.895 4.75104 114.911 4.75104Z" fill="black"/>
<path d="M118.566 15.2625L98.9791 54.9206H82.1245L101.698 15.2625H118.553H118.566Z" fill="black"/>
</svg>
