<svg width="1184" height="268" viewBox="0 0 1184 268" fill="none" xmlns="http://www.w3.org/2000/svg">
<path d="M167.165 46.0929C183.946 46.0929 191.688 39.7958 191.688 25.8309C191.688 14.3505 183.444 6.68262 170.638 6.68262C154.652 6.68262 146.366 13.2367 146.366 26.6876C146.366 38.7249 154.61 46.1358 167.165 46.1358V46.0929Z" fill="black"/>
<path d="M167.165 49.991C152.435 49.991 142.559 40.6096 142.559 26.6447C142.559 15.7211 147.413 2.74146 170.639 2.74146C185.537 2.74146 195.497 11.9943 195.497 25.8307C195.497 42.1089 186.207 49.991 167.165 49.991ZM170.639 10.5378C152.309 10.5378 150.217 19.705 150.217 26.6018C150.217 36.3259 156.578 42.1517 167.207 42.1517C185.411 42.1517 187.922 34.2697 187.922 25.7879C187.922 16.3637 181.31 10.5378 170.681 10.5378H170.639Z" fill="black"/>
<path d="M194.243 198.594C190.226 194.824 189.054 190.712 189.054 183.258V66.9975C189.054 64.8556 186.836 63.4848 184.995 64.4701C166.246 74.5797 158.672 77.8781 145.238 81.3051C142.811 81.9477 142.309 85.3318 144.527 86.6169C149.8 89.6155 151.725 94.3705 151.725 102.21V183.815C151.725 190.669 150.386 194.867 146.327 198.508C144.36 200.264 145.531 203.52 148.126 203.52H192.402C194.913 203.52 196.168 200.307 194.285 198.551L194.243 198.594Z" fill="black"/>
<path d="M192.36 207.461H148.084C145.322 207.461 142.895 205.747 141.932 203.091C140.97 200.392 141.681 197.437 143.816 195.552C146.829 192.853 147.917 189.812 147.917 183.814V102.209C147.917 94.5415 145.908 91.8427 142.644 90.0007C140.259 88.6299 138.961 85.974 139.338 83.2324C139.714 80.448 141.64 78.1776 144.276 77.4923C157.165 74.1509 164.447 71.0667 183.153 60.9571C185.204 59.8433 187.631 59.929 189.64 61.1284C191.648 62.3707 192.82 64.5126 192.82 66.9114V183.215C192.82 189.897 193.741 192.81 196.754 195.637C198.763 197.522 199.432 200.435 198.47 203.048C197.465 205.661 195.08 207.375 192.318 207.375L192.36 207.461ZM150.637 199.621H189.891C186.041 195.081 185.204 189.897 185.204 183.257V68.7106C168.171 77.835 160.178 81.3048 148.377 84.4747C154.654 89.1868 155.533 96.3407 155.533 102.167V183.772C155.533 190.883 154.11 195.68 150.637 199.578V199.621Z" fill="black"/>
<path d="M288.401 67.9827C289.74 74.8367 293.464 78.3922 299.867 78.3922C306.27 78.3922 311.082 72.909 311.082 66.055C311.082 57.5733 304.428 50.9763 295.891 50.9763C287.898 50.9763 279.905 57.5304 274.591 69.0537C267.937 65.4982 265.007 64.3844 258.06 63.3135C253.792 62.4995 250.067 61.9427 246.343 61.9427C217.551 61.9427 195.957 83.8325 195.957 112.319C195.957 135.58 209.809 153.957 232.198 160.254C214.078 172.034 207.131 179.402 207.131 186.556C207.131 193.71 212.446 198.893 225.795 202.449C204.996 210.374 190.894 222.968 190.894 233.677C190.894 250.384 211.692 259.423 247.933 259.423C284.174 259.423 308.153 244.344 308.153 221.083C308.153 202.192 292.962 190.155 255.926 180.002C243.413 176.447 240.191 174.262 240.191 170.706C240.191 167.708 241.53 165.78 245.506 161.925C276.139 160.554 296.143 140.849 296.143 110.991C296.143 96.4695 291.623 84.6893 282.291 74.5797C284.425 71.2812 284.969 70.7243 288.401 67.9827ZM248.686 209.817C266.807 214.743 274.8 221.597 274.8 231.45C274.8 242.116 261.743 248.97 243.079 248.97C227.344 248.97 215.877 242.416 215.877 232.521C215.877 228.965 217.76 225.11 220.397 221.554C224.665 215.514 227.344 213.629 238.266 206.775C242.786 207.889 246.259 209.26 248.644 209.774L248.686 209.817ZM245.506 151.216C234.332 151.216 229.52 140.249 229.52 112.319C229.52 84.3894 234.583 73.423 245.757 73.423C256.93 73.423 261.743 85.2033 261.743 111.206C261.743 139.949 257.223 151.173 245.506 151.173V151.216Z" fill="black"/>
<path d="M247.891 263.321C194.952 263.321 187.043 244.729 187.043 233.677C187.043 222.625 197.798 211.402 215.123 202.835C208.595 199.75 203.322 194.91 203.322 186.556C203.322 178.76 208.93 171.606 223.619 161.368C203.992 152.886 192.148 134.723 192.148 112.362C192.148 81.3909 215.458 58.0446 246.342 58.0446C250.695 58.0446 254.879 58.73 258.771 59.5011C264.881 60.4863 268.229 61.5144 272.958 63.8705C278.859 53.2897 287.228 47.1211 295.933 47.1211C306.604 47.1211 314.932 55.4744 314.932 66.098C314.932 75.3509 308.487 82.3333 299.908 82.3333C296.56 82.3333 293.673 81.5194 291.329 79.9344C297.146 88.9731 299.992 99.2112 299.992 110.991C299.992 142.348 279.319 163.724 247.137 165.737C244.166 168.693 243.999 169.55 243.999 170.664C243.999 171.221 245.254 172.891 256.93 176.19C295.514 186.728 311.961 200.136 311.961 221.04C311.961 246.7 286.81 263.278 247.891 263.278V263.321ZM246.3 65.8838C219.768 65.8838 199.765 85.846 199.765 112.362C199.765 133.781 212.571 150.702 233.202 156.527L241.53 158.884L234.248 163.596C217.927 174.176 210.98 181.073 210.98 186.599C210.98 190.497 212.863 194.995 226.799 198.722L238.475 201.849L227.176 206.176C205.875 214.315 194.743 226.181 194.743 233.72C194.743 247.6 214.119 255.567 247.974 255.567C281.83 255.567 304.386 242.074 304.386 221.126C304.386 204.248 290.074 193.41 254.963 183.815C244.082 180.731 236.424 177.989 236.424 170.749C236.424 165.78 239.144 162.825 242.953 159.141L243.999 158.155H245.422C274.423 156.785 292.417 138.793 292.417 111.077C292.417 97.5406 288.358 86.8312 279.612 77.3214L277.519 75.051L279.193 72.4808C281.662 68.7111 282.499 67.8972 286.182 64.9842L291.078 61.1289L292.292 67.3403C293.547 73.723 296.728 74.5798 299.992 74.5798C304.344 74.5798 307.357 71.11 307.357 66.1837C307.357 59.8438 302.461 55.046 295.975 55.046C289.488 55.046 282.709 60.9575 278.105 70.8958L276.39 74.5798L272.874 72.6949C266.388 69.2251 263.835 68.3255 257.516 67.3403C253.875 66.6549 250.109 66.0123 246.384 66.0123L246.3 65.8838ZM243.12 252.911C224.874 252.911 212.11 244.558 212.11 232.564C212.11 228.451 213.91 223.953 217.425 219.241C222.196 212.516 225.502 210.288 236.34 203.477L237.68 202.62L239.228 203.006C241.906 203.648 244.208 204.377 246.091 204.976C247.472 205.405 248.686 205.79 249.565 206.005H249.732C262.161 209.432 278.691 215.729 278.691 231.45C278.691 244.258 264.421 252.868 243.162 252.868L243.12 252.911ZM238.935 211.016C229.394 217.014 227.176 218.727 223.535 223.911C221.024 227.252 219.727 230.25 219.727 232.564C219.727 239.803 229.561 245.072 243.078 245.072C259.483 245.072 270.991 239.46 270.991 231.45C270.991 226.524 268.564 219.284 247.765 213.63C246.593 213.373 245.254 212.944 243.748 212.473C242.283 212.002 240.693 211.488 238.893 211.016H238.935ZM245.505 155.157C228.054 155.157 225.711 133.524 225.711 112.362C225.711 92.4429 228.013 69.5678 245.798 69.5678C263.584 69.5678 265.593 93.3853 265.593 111.248C265.593 137.593 262.161 155.157 245.505 155.157ZM245.756 77.3642C242.367 77.3642 233.327 77.3642 233.327 112.319C233.327 143.162 239.479 147.317 245.505 147.317C251.531 147.317 257.934 144.533 257.934 111.248C257.934 80.8769 250.987 77.3642 245.756 77.3642Z" fill="black"/>
<path d="M655.956 6.38281H606.533C604.022 6.38281 602.892 9.59561 604.817 11.2663C610.006 15.807 610.927 19.3197 610.927 27.2017V176.961C610.927 184.372 610.425 188.227 608.709 191.183C608.583 191.354 608.458 191.526 608.332 191.697C605.905 194.567 601.469 196.666 597.326 196.666C588.245 196.666 584.813 191.483 584.813 177.218C584.813 164.067 584.018 159.44 581.34 154.214C578.41 149.031 573.347 145.99 566.944 145.99C555.226 145.99 547.484 154.214 547.484 167.879C547.484 191.44 568.283 207.847 598.121 207.847C620.761 207.847 640.514 198.808 646.623 185.1C649.804 178.803 651.436 170.321 651.436 159.912V27.2017C651.436 19.2768 652.231 15.9355 657.671 11.3091C659.596 9.63845 658.508 6.38281 655.956 6.38281Z" fill="black"/>
<path d="M598.122 211.83C566.066 211.83 543.677 193.796 543.677 167.922C543.677 152.244 552.8 142.091 566.945 142.091C574.561 142.091 581.006 145.818 584.646 152.244L584.73 152.372C587.785 158.369 588.622 163.681 588.622 177.175C588.622 191.611 592.221 192.725 597.327 192.725C600.256 192.725 603.646 191.226 605.445 189.127C606.659 187.027 607.119 183.815 607.119 176.918V27.2016C607.119 19.9193 606.324 17.7346 602.348 14.2648C600.256 12.4228 599.503 9.50982 600.465 6.85391C601.428 4.198 603.813 2.52734 606.575 2.52734H655.998C658.76 2.52734 661.187 4.24083 662.108 6.93958C663.071 9.63833 662.275 12.5513 660.141 14.3504C655.998 17.8631 655.287 19.7908 655.287 27.2445V160.04C655.287 171.092 653.529 180.131 650.097 186.942C643.36 201.849 622.519 211.873 598.164 211.873L598.122 211.83ZM566.945 149.93C557.152 149.93 551.293 156.656 551.293 167.922C551.293 189.169 570.544 203.991 598.122 203.991C619.255 203.991 637.752 195.595 643.151 183.558L643.234 183.386C646.122 177.689 647.587 169.807 647.587 159.997V27.2016C647.587 19.4909 648.382 15.0358 653.027 10.2809H609.337C613.857 15.0787 614.694 19.6623 614.694 27.2016V176.961C614.694 184.414 614.233 189.212 611.932 193.196C611.681 193.582 611.429 193.967 611.178 194.267C607.914 198.079 602.474 200.564 597.285 200.564C582.889 200.564 580.922 188.741 580.922 177.218C580.922 164.324 580.127 160.426 577.951 156.099C575.649 152.029 571.841 149.888 566.903 149.888L566.945 149.93Z" fill="black"/>
<path d="M777.316 188.484C775.935 189.041 774.429 189.298 772.755 189.298C767.44 189.298 765.557 185.443 765.557 175.59V90.4296C765.557 72.0953 753.295 62.2427 730.907 62.2427C699.185 62.2427 669.598 80.577 669.598 100.839C669.598 109.878 676.796 116.732 686.38 116.732C696.507 116.732 703.956 109.064 704.751 98.3973L705.002 89.9156C705.546 80.063 710.066 74.5798 717.264 74.5798C724.462 74.5798 727.935 78.9492 727.935 89.1016V116.475C727.935 117.631 727.182 118.659 726.136 119.002C723.834 119.73 722.035 120.159 720.737 120.587C688.765 130.44 679.182 134.552 670.352 143.034C661.564 151.516 657.044 162.182 657.044 173.148C657.044 192.597 671.691 207.632 691.694 207.632C700.483 207.632 709.815 204.334 717.557 198.594C719.607 196.923 720.695 196.109 725.424 191.654C726.68 190.497 728.689 190.84 729.442 192.382C731.409 196.409 732.706 198.251 734.882 200.479C739.402 204.848 746.6 207.59 754.593 207.59C766.394 207.59 775.14 202.449 780.455 192.211C781.585 190.026 779.534 187.542 777.275 188.441L777.316 188.484ZM727.977 175.804C727.977 176.533 727.684 177.261 727.14 177.775C719.482 184.8 716.05 186.556 710.401 186.556C700.022 186.556 693.327 178.632 693.327 166.037C693.327 150.53 705.672 136.48 724.546 129.412C726.219 128.769 727.977 130.054 727.977 131.896V175.804Z" fill="black"/>
<path d="M754.635 211.573C745.805 211.573 737.687 208.575 732.288 203.392C729.987 201.035 728.564 199.065 726.848 195.724C723.165 199.193 721.994 200.093 720.152 201.549L719.943 201.721C711.49 208.018 701.237 211.573 691.737 211.573C669.808 211.573 653.278 195.081 653.278 173.148C653.278 160.94 658.426 149.202 667.8 140.164C677.55 130.782 688.18 126.541 719.692 116.817C720.32 116.603 721.157 116.346 722.203 116.089C722.789 115.918 723.458 115.746 724.17 115.532V89.1016C724.17 79.2919 720.947 78.478 717.348 78.478C710.904 78.478 709.188 84.8179 708.895 90.1297L708.602 98.6972C707.64 111.634 698.517 120.673 686.422 120.673C674.328 120.673 665.791 112.148 665.791 100.882C665.791 78.6065 696.843 58.3445 730.907 58.3445C755.347 58.3445 769.366 70.0391 769.366 90.4724V175.633C769.366 185.4 771.166 185.4 772.756 185.4C773.969 185.4 775.016 185.229 775.978 184.843C778.489 183.858 781.251 184.543 783.009 186.599C784.808 188.698 785.143 191.611 783.887 194.096C777.987 205.533 767.859 211.531 754.635 211.531V211.573ZM727.183 187.113C727.559 187.113 727.936 187.113 728.355 187.242C730.321 187.627 731.995 188.87 732.916 190.712C734.841 194.61 735.929 196.066 737.645 197.823C741.495 201.507 747.856 203.777 754.677 203.777C764.135 203.777 771.04 200.264 775.685 193.025C774.764 193.196 773.802 193.282 772.798 193.282C761.791 193.282 761.791 180.945 761.791 175.676V90.4296C761.791 74.3228 751.413 66.1409 730.949 66.1409C701.404 66.1409 673.449 83.0188 673.449 100.839C673.449 107.779 678.89 112.833 686.422 112.833C694.457 112.833 700.316 106.965 700.986 98.1832L701.237 89.787C701.864 77.7926 707.891 70.6816 717.307 70.6816C729.275 70.6816 731.786 80.7055 731.786 89.1016V116.475C731.786 119.345 729.945 121.872 727.266 122.729C726.137 123.072 725.09 123.371 724.211 123.628C723.333 123.886 722.621 124.1 721.994 124.271C689.854 134.166 681.149 138.022 673.031 145.861C665.205 153.4 660.895 163.082 660.895 173.148C660.895 190.583 674.161 203.734 691.737 203.734C699.646 203.734 708.267 200.693 715.34 195.467L715.423 195.381C717.348 193.839 718.395 192.982 722.872 188.784C724.086 187.67 725.593 187.07 727.183 187.07V187.113ZM710.402 190.497C697.931 190.497 689.519 180.688 689.519 166.037C689.519 148.988 702.45 133.524 723.249 125.77C725.174 125.042 727.392 125.342 729.066 126.541C730.782 127.784 731.786 129.754 731.786 131.896V175.804C731.786 177.689 730.991 179.445 729.652 180.688C722.119 187.585 717.767 190.455 710.36 190.455L710.402 190.497ZM724.17 133.781C707.472 140.549 697.177 152.801 697.177 166.037C697.177 176.447 702.116 182.658 710.402 182.658C714.628 182.658 717.139 181.63 724.17 175.247V133.781Z" fill="black"/>
<path d="M1129.56 184.114V83.3184C1129.56 69.9103 1120.77 61.6855 1106.37 61.6855C1099.72 61.6855 1092.77 63.8702 1082.94 68.7965C1074.99 72.6519 1070.72 75.6505 1063.19 80.7053C1060.34 82.5901 1058.16 83.404 1058.16 78.0494V66.9545C1058.16 64.9412 1056.07 63.6561 1054.36 64.5985C1035.15 74.9651 1027.61 78.2207 1013.8 81.7334C1011.42 82.3331 1011.08 85.5887 1013.22 86.7882C1018.57 89.7868 1020.54 94.5846 1020.54 102.509V183.558C1020.54 191.14 1019.33 195.252 1014.93 199.065C1013.05 200.693 1014.1 203.82 1016.57 203.82H1061.85C1064.27 203.82 1065.32 200.778 1063.52 199.15C1059.38 195.338 1058.12 191.354 1058.12 184.114V96.7693C1058.12 95.9125 1058.54 95.0986 1059.21 94.5846C1069.96 86.7454 1075.66 84.1751 1081.85 84.1751C1089.05 84.1751 1091.98 87.7306 1091.98 97.883V184.157C1091.98 191.354 1090.64 195.338 1086.16 199.108C1084.28 200.693 1085.32 203.862 1087.75 203.862H1133.24C1135.63 203.862 1136.71 200.864 1135 199.236C1130.81 195.252 1129.56 191.054 1129.56 184.157V184.114Z" fill="black"/>
<path d="M1133.24 207.718H1087.75C1085.03 207.718 1082.64 206.004 1081.72 203.391C1080.8 200.735 1081.56 197.865 1083.69 196.023C1087.08 193.153 1088.13 190.369 1088.13 184.072V97.8403C1088.13 88.0734 1085.32 88.0734 1081.81 88.0734C1077.25 88.0734 1072.68 89.5727 1061.93 97.412V184.115C1061.93 190.54 1062.89 193.367 1066.03 196.238C1068.04 198.08 1068.75 200.95 1067.79 203.52C1066.83 206.09 1064.48 207.718 1061.8 207.718H1016.52C1013.8 207.718 1011.46 206.047 1010.5 203.434C1009.54 200.778 1010.29 197.908 1012.42 196.066C1015.69 193.239 1016.69 190.326 1016.69 183.515V102.51C1016.69 94.7561 1014.64 92.0573 1011.33 90.2153C1008.95 88.8873 1007.65 86.2314 1007.99 83.4898C1008.32 80.7911 1010.2 78.6064 1012.8 77.9638C1026.19 74.5369 1033.22 71.5811 1052.47 61.1716C1054.48 60.1007 1056.82 60.1435 1058.79 61.343C1060.76 62.5424 1061.89 64.6415 1061.89 66.9975V76.8929L1062.98 76.1647C1069.46 71.8381 1073.73 68.9252 1081.18 65.3268C1091.81 60.015 1099.09 57.8303 1106.29 57.8303C1122.69 57.8303 1133.28 67.8542 1133.28 83.3613V184.157C1133.28 190.369 1134.29 193.367 1137.51 196.366C1139.47 198.208 1140.1 201.078 1139.14 203.606C1138.18 206.133 1135.83 207.761 1133.2 207.761L1133.24 207.718ZM1090.85 199.879H1130.39C1126.59 195.209 1125.75 190.112 1125.75 184.072V83.3185C1125.75 72.0523 1118.68 65.5839 1106.37 65.5839C1100.47 65.5839 1094.15 67.5115 1084.61 72.3093C1077.58 75.6935 1073.48 78.4779 1067.24 82.6331L1065.24 83.9611C1063.69 84.9892 1060.51 87.0882 1057.45 85.4175C1054.31 83.6612 1054.31 79.5917 1054.31 78.0495V69.0109C1037.16 78.2209 1029.33 81.605 1017.32 84.8178C1023.51 89.5727 1024.35 96.6409 1024.35 102.467V183.515C1024.35 190.155 1023.47 195.338 1019.54 199.879H1058.87C1055.11 195.381 1054.27 190.369 1054.27 184.072V96.7694C1054.27 94.6275 1055.28 92.657 1056.95 91.4147C1068.33 83.0615 1074.61 80.2771 1081.81 80.2771C1094.32 80.2771 1095.74 90.3438 1095.74 97.8832V184.157C1095.74 190.455 1094.86 195.466 1090.8 199.964L1090.85 199.879Z" fill="black"/>
<path d="M854.025 62.7996C845.488 62.7996 835.863 66.098 828.916 72.1381C828.288 72.6093 827.619 73.1233 826.907 73.7659C824.94 75.4366 821.969 74.0229 821.969 71.4099V67.683C821.969 65.3698 819.542 63.8705 817.575 64.9414C799.204 74.8368 791.587 78.1353 778.489 81.5623C775.894 82.2477 775.392 85.8032 777.735 87.2168C782.715 90.2583 784.599 94.9704 784.599 102.638V230.55C784.599 236.805 783.803 249.356 780.581 252.783C778.154 255.353 779.619 259.894 783.845 259.465C786.147 259.251 786.942 258.352 788.574 257.152C794.935 252.612 804.686 249.998 804.686 249.998C804.686 249.998 816.822 245.715 822.722 245.372C826.447 245.158 828.037 241.217 825.777 238.647C822.722 235.22 822.011 227.552 822.011 221.212V207.161C822.011 205.019 824.145 203.52 826.07 204.291C832.766 206.947 836.7 207.504 842.559 207.504C870.89 207.504 892.233 173.748 892.233 129.54C892.233 89.7442 877 62.8424 854.025 62.8424V62.7996ZM835.863 195.638C830.925 195.638 827.158 194.01 823.015 190.326C822.346 189.726 821.969 188.87 821.969 187.97V92.0146C821.969 91.2007 822.262 90.4296 822.806 89.8727C827.912 84.5609 831.301 83.1044 836.114 83.1044C850.008 83.1044 856.955 102.338 856.955 141.02C856.955 177.518 850.008 195.638 835.863 195.638Z" fill="black"/>
<path d="M783.26 263.363C780.205 263.363 777.61 261.778 776.313 259.037C774.89 256.038 775.518 252.44 777.819 249.998C779.2 248.542 780.749 240.146 780.749 230.507V102.595C780.749 95.0986 778.74 92.357 775.769 90.515C773.384 89.0586 772.086 86.317 772.463 83.4897C772.839 80.7053 774.848 78.4349 777.527 77.7067C790.165 74.4082 797.321 71.3668 815.776 61.4285C817.91 60.2719 820.421 60.3576 822.472 61.6427C824.522 62.9278 825.778 65.1554 825.778 67.6399V69.6533C826.029 69.4391 826.322 69.2249 826.573 69.0536C833.938 62.6708 844.191 58.9011 854.026 58.9011C879.177 58.9011 896.041 87.2594 896.041 129.497C896.041 176.147 873.025 211.359 842.517 211.359C836.826 211.359 832.557 210.888 825.778 208.318V221.169C825.778 232.007 827.912 235.219 828.54 235.948C830.59 238.261 831.134 241.388 830.046 244.215C828.875 247.128 826.154 249.056 822.89 249.227C818.496 249.484 809.122 252.526 805.858 253.682L805.607 253.768C805.607 253.768 796.4 256.295 790.709 260.365C790.458 260.536 790.207 260.75 789.997 260.879C788.658 261.907 787.11 263.064 784.139 263.363C783.846 263.363 783.511 263.406 783.218 263.406L783.26 263.363ZM783.26 255.524C783.26 255.524 783.385 255.524 783.469 255.524C784.348 255.439 784.515 255.31 785.52 254.539C785.813 254.325 786.105 254.111 786.398 253.896C792.843 249.27 802.217 246.571 803.556 246.186C805.356 245.543 816.404 241.731 822.514 241.388C822.89 241.388 823.016 241.259 823.016 241.217C819.794 237.618 818.161 230.893 818.161 221.126V207.075C818.161 204.762 819.291 202.62 821.133 201.292C822.974 200.007 825.359 199.707 827.452 200.521C833.855 203.049 837.286 203.477 842.559 203.477C868.714 203.477 888.425 171.649 888.425 129.411C888.425 91.843 874.615 66.6118 854.026 66.6118C846.033 66.6118 837.328 69.8246 831.386 75.0079L831.134 75.2221C830.59 75.6077 830.005 76.1217 829.335 76.6357C827.284 78.3921 824.522 78.7776 822.095 77.621C819.668 76.4644 818.161 74.0227 818.161 71.2811V68.925C801.004 78.1351 793.136 81.562 781.209 84.732C787.528 89.4869 788.407 96.6408 788.407 102.467V230.379C788.407 234.962 788.031 250.298 783.302 255.31C783.302 255.31 783.26 255.353 783.218 255.396L783.26 255.524ZM835.905 199.536C830.13 199.536 825.401 197.608 820.547 193.239C819.04 191.911 818.161 189.94 818.161 187.927V92.0143C818.161 90.1723 818.873 88.3732 820.128 87.088C825.736 81.305 830.046 79.1631 836.156 79.1631C852.728 79.1631 860.805 99.3823 860.805 140.977C860.805 155.456 860.805 199.493 835.863 199.493L835.905 199.536ZM825.82 187.584C829.209 190.54 832.055 191.739 835.905 191.739C847.372 191.739 853.189 174.69 853.189 141.02C853.189 116.389 850.217 87.0024 836.156 87.0024C832.725 87.0024 830.256 87.8163 825.82 92.357V187.584Z" fill="black"/>
<path d="M1010.83 188.484C1009.45 189.041 1007.94 189.298 1006.27 189.298C1000.95 189.298 999.071 185.443 999.071 175.59V90.4296C999.071 72.0953 986.809 62.2427 964.42 62.2427C932.699 62.2427 903.112 80.577 903.112 100.839C903.112 109.878 910.31 116.732 919.893 116.732C930.021 116.732 937.47 109.064 938.265 98.3973L938.516 89.9156C939.06 80.063 943.58 74.5798 950.778 74.5798C957.976 74.5798 961.449 78.9492 961.449 89.1016V116.475C961.449 117.631 960.696 118.659 959.65 119.002C957.348 119.73 955.548 120.159 954.251 120.587C922.279 130.44 912.695 134.552 903.865 143.034C895.077 151.516 890.558 162.182 890.558 173.148C890.558 192.597 905.205 207.632 925.208 207.632C933.996 207.632 943.329 204.334 951.071 198.594C953.163 196.923 954.209 196.109 958.938 191.654C960.194 190.497 962.202 190.84 962.956 192.382C964.922 196.409 966.22 198.251 968.396 200.479C972.915 204.848 980.113 207.59 988.106 207.59C999.908 207.59 1008.65 202.449 1013.97 192.211C1015.1 190.026 1013.05 187.542 1010.79 188.441L1010.83 188.484ZM961.491 175.804C961.491 176.533 961.198 177.261 960.654 177.775C952.996 184.8 949.564 186.556 943.914 186.556C933.536 186.556 926.84 178.632 926.84 166.037C926.84 150.53 939.186 136.48 958.059 129.412C959.733 128.769 961.491 130.054 961.491 131.896V175.804Z" fill="black"/>
<path d="M988.107 211.573C979.277 211.573 971.159 208.575 965.76 203.392C963.458 201.035 962.036 199.065 960.32 195.724C956.595 199.193 955.424 200.136 953.624 201.592L953.457 201.721C945.003 208.018 934.75 211.573 925.251 211.573C903.322 211.573 886.792 195.081 886.792 173.148C886.792 160.94 891.939 149.202 901.313 140.164C911.064 130.782 921.694 126.541 953.206 116.817C953.833 116.603 954.67 116.346 955.716 116.089C956.302 115.918 956.972 115.746 957.683 115.532V89.1016C957.683 79.2919 954.461 78.478 950.862 78.478C944.417 78.478 942.702 84.8179 942.409 90.1297L942.116 98.6972C941.153 111.634 932.03 120.673 919.936 120.673C907.842 120.673 899.305 112.148 899.305 100.882C899.305 78.6065 930.356 58.3445 964.421 58.3445C988.86 58.3445 1002.88 70.0391 1002.88 90.4724V175.633C1002.88 185.4 1004.68 185.4 1006.27 185.4C1007.48 185.4 1008.53 185.229 1009.49 184.843C1012 183.858 1014.76 184.543 1016.52 186.599C1018.32 188.698 1018.66 191.611 1017.4 194.096C1011.5 205.533 1001.37 211.531 988.149 211.531L988.107 211.573ZM960.655 187.113C961.031 187.113 961.408 187.113 961.826 187.242C963.793 187.627 965.467 188.87 966.388 190.712C968.313 194.61 969.401 196.066 971.117 197.823C974.967 201.507 981.328 203.777 988.149 203.777C997.607 203.777 1004.51 200.264 1009.16 193.025C1008.24 193.196 1007.27 193.282 1006.27 193.282C995.263 193.282 995.263 180.945 995.263 175.676V90.4296C995.263 74.3228 984.885 66.1409 964.421 66.1409C934.876 66.1409 906.921 83.0188 906.921 100.839C906.921 107.779 912.361 112.833 919.894 112.833C927.929 112.833 933.788 106.965 934.457 98.1832L934.708 89.787C935.336 77.7926 941.362 70.6816 950.778 70.6816C962.747 70.6816 965.258 80.7055 965.258 89.1016V116.475C965.258 119.345 963.417 121.872 960.738 122.729C959.608 123.072 958.562 123.371 957.683 123.628C956.805 123.886 956.093 124.1 955.465 124.271C923.326 134.166 914.621 138.022 906.503 145.861C898.677 153.4 894.367 163.082 894.367 173.148C894.367 190.583 907.633 203.734 925.209 203.734C933.118 203.734 941.739 200.693 948.811 195.467L948.895 195.381C950.82 193.839 951.866 192.982 956.344 188.784C957.558 187.67 959.064 187.07 960.655 187.07V187.113ZM943.873 190.497C931.402 190.497 922.991 180.688 922.991 166.037C922.991 148.988 935.922 133.524 956.721 125.77C958.646 125.042 960.864 125.342 962.538 126.541C964.254 127.784 965.258 129.754 965.258 131.896V175.804C965.258 177.646 964.463 179.445 963.124 180.688C955.591 187.585 951.239 190.455 943.832 190.455L943.873 190.497ZM957.641 133.781C940.944 140.549 930.649 152.801 930.649 166.037C930.649 176.447 935.587 182.658 943.873 182.658C948.1 182.658 950.611 181.63 957.641 175.247V133.781Z" fill="black"/>
<path d="M366.364 46.5214C383.145 46.5214 390.887 40.2243 390.887 26.2593C390.887 14.779 382.643 7.11108 369.838 7.11108C353.851 7.11108 345.565 13.6652 345.565 27.1161C345.565 39.1534 353.81 46.5642 366.364 46.5642V46.5214Z" fill="black"/>
<path d="M366.365 50.4192C351.634 50.4192 341.758 41.0378 341.758 27.0729C341.758 16.1494 346.612 3.16968 369.838 3.16968C384.736 3.16968 394.696 12.4225 394.696 26.259C394.696 42.5371 385.406 50.4192 366.365 50.4192ZM369.838 10.9661C351.509 10.9661 349.416 20.1332 349.416 27.03C349.416 36.7541 355.777 42.58 366.407 42.58C384.611 42.58 387.122 34.6979 387.122 26.2161C387.122 16.7919 380.509 10.9661 369.88 10.9661H369.838Z" fill="black"/>
<path d="M388.209 183.686V67.3832C388.209 65.2413 385.991 63.8705 384.15 64.8558C365.402 74.9654 357.827 78.2639 344.394 81.6909C341.967 82.3334 341.464 85.7176 343.682 87.0027C348.955 90.0013 350.88 94.7562 350.88 102.595V184.2C350.88 191.054 349.541 195.252 345.482 198.894C343.515 200.65 344.687 203.906 347.281 203.906H391.557C394.068 203.906 395.323 200.693 393.44 198.936C389.423 195.167 388.251 191.054 388.251 183.601L388.209 183.686Z" fill="black"/>
<path d="M391.515 207.889H347.239C344.477 207.889 342.05 206.176 341.088 203.52C340.125 200.821 340.837 197.866 342.971 195.981C345.984 193.282 347.072 190.24 347.072 184.243V102.638C347.072 94.9704 345.063 92.2716 341.799 90.4296C339.414 89.0588 338.116 86.4029 338.493 83.6613C338.87 80.8769 340.795 78.6065 343.473 77.9212C356.362 74.5798 363.644 71.4956 382.35 61.386C384.401 60.2722 386.828 60.3579 388.837 61.6001C390.846 62.8424 392.017 64.9843 392.017 67.3832V183.686C392.017 190.369 392.938 193.282 395.951 196.109C397.96 197.994 398.629 200.907 397.667 203.52C396.663 206.133 394.277 207.847 391.515 207.847V207.889ZM349.792 200.05H389.046C385.196 195.509 384.359 190.326 384.359 183.686V69.1395C367.327 78.2638 359.334 81.7337 347.532 84.9036C353.81 89.6157 354.689 96.7696 354.689 102.595V184.2C354.689 191.311 353.266 196.109 349.792 200.007V200.05Z" fill="black"/>
<path d="M514.049 184.244V83.4902C514.049 70.0822 505.261 61.8574 490.865 61.8574C484.211 61.8574 477.264 64.0421 467.43 68.9684C459.479 72.8238 455.21 75.8224 447.678 80.8772C444.832 82.762 442.656 83.5759 442.656 78.2213V67.1264C442.656 65.1131 440.563 63.8279 438.848 64.7704C419.639 75.137 412.106 78.3926 398.296 81.9053C395.911 82.505 395.576 85.7606 397.71 86.9601C403.025 89.9587 405.034 94.7565 405.034 102.681V183.729C405.034 191.312 403.82 195.424 399.426 199.237C397.543 200.864 398.589 203.992 401.058 203.992H446.338C448.766 203.992 449.812 200.95 448.012 199.322C443.869 195.51 442.614 191.526 442.614 184.286V96.8983C442.614 96.0416 443.032 95.2277 443.702 94.7136C454.457 86.8744 460.148 84.3042 466.342 84.3042C473.54 84.3042 476.469 87.8596 476.469 98.0121V184.286C476.469 191.483 475.13 195.467 470.652 199.237C468.769 200.822 469.815 203.992 472.243 203.992H517.732C520.117 203.992 521.205 200.993 519.49 199.365C515.305 195.381 514.049 191.183 514.049 184.286V184.244Z" fill="black"/>
<path d="M517.773 207.889H472.284C469.564 207.889 467.179 206.176 466.258 203.563C465.337 200.907 466.09 198.037 468.225 196.195C471.614 193.325 472.661 190.54 472.661 184.243V97.969C472.661 88.2021 469.857 88.2021 466.342 88.2021C461.78 88.2021 457.219 89.7014 446.464 97.5406V184.243C446.464 190.669 447.426 193.496 450.565 196.366C452.573 198.208 453.285 201.078 452.322 203.649C451.36 206.219 449.016 207.847 446.338 207.847H401.058C398.338 207.847 395.994 206.176 395.032 203.563C394.069 200.907 394.823 198.037 396.957 196.195C400.221 193.368 401.225 190.455 401.225 183.644V102.638C401.225 94.8847 399.175 92.186 395.869 90.344C393.483 89.016 392.186 86.3601 392.521 83.6185C392.856 80.9198 394.739 78.7351 397.333 78.0925C410.725 74.6655 417.797 71.7098 437.006 61.3003C439.015 60.2294 441.358 60.2722 443.325 61.4716C445.292 62.6711 446.422 64.7701 446.422 67.1262V77.0216L447.552 76.2505C454.038 71.9239 458.307 69.0538 465.756 65.4555C476.385 60.1437 483.667 57.959 490.865 57.959C507.269 57.959 517.857 67.9829 517.857 83.49V184.286C517.857 190.498 518.861 193.496 522.084 196.495C524.051 198.337 524.678 201.207 523.716 203.734C522.753 206.262 520.41 207.889 517.773 207.889ZM475.381 200.05H514.928C511.119 195.381 510.283 190.283 510.283 184.243V83.49C510.283 72.2238 503.21 65.7554 490.907 65.7554C485.006 65.7554 478.687 67.683 469.145 72.4808C462.157 75.865 458.056 78.6066 451.82 82.8046L449.811 84.1754C448.305 85.2035 445.124 87.3025 442.028 85.6319C438.889 83.8755 438.889 79.806 438.889 78.2639V69.2252C421.731 78.4352 413.905 81.8193 401.895 85.0321C408.088 89.7871 408.925 96.8552 408.925 102.681V183.729C408.925 190.369 408.047 195.552 404.113 200.093H443.45C439.684 195.595 438.847 190.583 438.847 184.286V96.8981C438.847 94.7562 439.851 92.7857 441.525 91.5434C452.908 83.1901 459.186 80.4057 466.383 80.4057C478.896 80.4057 480.319 90.4725 480.319 98.0118V184.286C480.319 190.583 479.44 195.595 475.381 200.093V200.05Z" fill="black"/>
<path d="M1154.41 193.882L1149.98 185.871H1147.51V197.351H1149.68V189.212L1154.25 197.351H1156.55V185.871H1154.41V193.882Z" fill="black"/>
<path d="M1156.55 201.25H1154.2C1153.37 201.25 1152.57 200.993 1151.94 200.479C1151.32 200.95 1150.52 201.25 1149.68 201.25H1147.51C1145.42 201.25 1143.7 199.493 1143.7 197.351V185.871C1143.7 183.729 1145.42 181.973 1147.51 181.973H1149.94C1150.73 181.973 1151.53 182.23 1152.15 182.701C1152.78 182.23 1153.53 181.973 1154.37 181.973H1156.55C1158.64 181.973 1160.36 183.729 1160.36 185.871V197.351C1160.36 199.493 1158.64 201.25 1156.55 201.25Z" fill="black"/>
<path d="M1165.59 197.352V193.025L1169.31 185.871H1166.67L1164.46 190.883L1162.11 185.871H1159.39L1163.24 193.025V197.352H1165.59Z" fill="black"/>
<path d="M1165.59 201.25H1163.24C1161.15 201.25 1159.43 199.493 1159.43 197.351V194.053L1156.05 187.756C1155.38 186.556 1155.42 185.057 1156.09 183.901C1156.76 182.744 1158.01 181.973 1159.39 181.973H1162.16C1162.99 181.973 1163.79 182.23 1164.41 182.744C1165.04 182.273 1165.84 181.973 1166.67 181.973H1169.31C1170.65 181.973 1171.91 182.701 1172.58 183.858C1173.29 185.014 1173.29 186.514 1172.66 187.713L1169.39 194.01V197.351C1169.39 199.493 1167.68 201.25 1165.59 201.25Z" fill="black"/>
<path d="M1163.79 179.06C1161.61 179.06 1159.44 179.66 1157.55 180.774L1158.72 182.873C1160.23 181.973 1161.99 181.459 1163.79 181.459C1169.23 181.459 1173.66 185.957 1173.66 191.44C1173.66 196.923 1169.23 201.421 1163.79 201.421C1161.74 201.421 1159.77 200.779 1158.1 199.579L1156.76 201.55C1158.81 203.006 1161.23 203.82 1163.79 203.82C1170.52 203.82 1176.01 198.251 1176.01 191.44C1176.01 184.629 1170.52 179.06 1163.79 179.06Z" fill="black"/>
<path d="M1163.79 207.718C1160.48 207.718 1157.26 206.69 1154.58 204.762C1152.86 203.52 1152.45 201.121 1153.62 199.322L1154.96 197.351C1155.54 196.495 1156.42 195.895 1157.43 195.723C1158.43 195.552 1159.44 195.766 1160.27 196.366C1161.32 197.094 1162.53 197.48 1163.79 197.48C1167.14 197.48 1169.81 194.738 1169.81 191.397C1169.81 188.056 1167.09 185.314 1163.79 185.314C1162.7 185.314 1161.61 185.614 1160.69 186.171C1159.81 186.685 1158.77 186.856 1157.8 186.599C1156.84 186.342 1155.96 185.7 1155.46 184.8L1154.29 182.701C1153.24 180.859 1153.83 178.46 1155.67 177.346C1158.14 175.847 1160.94 175.076 1163.83 175.076C1172.66 175.076 1179.86 182.401 1179.86 191.354C1179.86 200.307 1172.66 207.632 1163.83 207.632L1163.79 207.718Z" fill="black"/>
<path d="M119.207 102.21C118.371 101.696 117.534 101.224 116.697 100.796C116.446 100.668 116.194 100.539 115.943 100.411C115.357 100.111 114.772 99.8108 114.228 99.511C113.976 99.3825 113.725 99.254 113.474 99.1255C112.805 98.7827 112.177 98.4829 111.549 98.183C111.466 98.1402 111.34 98.0974 111.214 98.0545C110.503 97.7547 109.875 97.4548 109.206 97.1549C108.913 97.0264 108.662 96.9408 108.369 96.8122C108.034 96.6837 107.699 96.5124 107.364 96.3839C107.071 96.2553 106.737 96.1268 106.444 96.0412C106.234 95.9555 106.025 95.8698 105.858 95.827C104.393 95.2701 103.18 94.8846 102.343 94.6275C101.966 94.499 101.966 93.9421 102.343 93.8136C103.263 93.4709 104.602 92.9997 106.193 92.3572H106.276C106.862 92.1001 107.448 91.8431 108.076 91.5433C108.662 91.2862 109.248 90.9864 109.875 90.7293L110.085 90.6437C110.67 90.3438 111.256 90.0868 111.842 89.7441L112.219 89.5727C112.805 89.2729 113.432 88.9302 114.018 88.5875L114.144 88.5018C114.688 88.2019 116.864 86.874 119.417 84.7321C129 77.3213 134.608 65.027 134.608 52.4328C134.608 40.6526 129.544 28.0584 122.095 21.5043C108.034 8.56746 89.9136 3.89819 52.3336 3.89819C41.1182 3.89819 23.2908 5.01196 12.0754 5.82587C10.8618 5.91155 9.39707 6.04006 7.72313 6.16857C4.79374 6.38276 3.53828 10.0668 5.67256 12.1229C9.64816 15.8498 10.7362 20.1335 10.7362 27.2017V183.815C10.7362 190.412 9.73186 194.567 6.17474 198.08C4.04047 200.179 5.29592 203.863 8.22532 204.034L26.1783 204.891C41.6204 206.004 56.0163 206.518 62.4191 206.518C98.9528 206.518 120.254 198.594 133.059 180.516C139.462 170.921 143.187 158.883 143.187 147.36C143.187 127.655 134.398 111.505 119.207 102.167V102.21ZM51.2456 20.0478C51.2456 18.3344 52.501 16.8779 54.175 16.6637C58.0669 16.1497 60.2011 15.9783 63.2561 15.9783C83.5107 15.9783 93.8892 28.8295 93.8892 53.7608C93.8892 66.8261 91.0016 76.3789 85.2684 82.2476C84.8499 82.6759 84.3896 83.0615 83.9292 83.4898C83.72 83.6612 83.5526 83.8325 83.3433 84.0039C82.9249 84.3466 82.4645 84.6465 82.046 84.9463C81.795 85.1177 81.502 85.3318 81.2091 85.5032C80.7906 85.7602 80.3303 86.0172 79.9118 86.2743C79.577 86.4456 79.2422 86.617 78.9074 86.7883C78.4889 87.0025 78.0286 87.1739 77.5683 87.3452C77.1498 87.5165 76.7731 87.6451 76.3547 87.7736C75.9362 87.9021 75.4758 88.0734 75.0155 88.2019C74.5133 88.3305 74.0111 88.459 73.5508 88.5446C73.1323 88.6303 72.7138 88.716 72.2953 88.8017C71.6676 88.8873 71.0399 88.973 70.4122 89.0587C70.0355 89.0587 69.7007 89.1444 69.3241 89.1872C68.3197 89.2729 67.2317 89.3157 66.1855 89.3157H54.5934C52.7521 89.3157 51.2874 87.7736 51.2874 85.8887V20.0478H51.2456ZM67.7757 194.781C63.5072 194.781 60.5359 194.139 53.9657 192.853C52.4173 192.554 51.2456 191.14 51.2456 189.512V104.266C51.2456 102.381 52.7521 100.839 54.5516 100.839H66.4366C67.5665 100.839 68.6545 100.839 69.7007 100.925C70.0774 100.925 70.454 100.967 70.8307 101.01C71.4584 101.01 72.0861 101.096 72.672 101.139C73.1323 101.139 73.5927 101.224 74.0111 101.31C74.4715 101.353 74.9318 101.439 75.3503 101.481C75.8525 101.567 76.3128 101.653 76.7731 101.739C77.1079 101.824 77.4427 101.867 77.7775 101.953C78.2797 102.081 78.7819 102.167 79.284 102.338C79.4933 102.381 79.6607 102.467 79.8699 102.51C81.795 103.109 83.5526 103.838 85.1428 104.78C85.938 105.251 86.7331 105.765 87.4863 106.365C96.2745 113.776 102.133 129.369 102.133 146.632C102.133 178.674 90.6668 194.824 67.7339 194.824L67.7757 194.781Z" fill="black"/>
<path d="M62.4611 210.46C55.8909 210.46 41.2439 209.903 25.9692 208.789L8.0999 207.932C5.21235 207.804 2.78514 206.004 1.78077 203.263C0.776411 200.478 1.44599 197.351 3.53841 195.295C6.04932 192.811 6.96999 189.812 6.96999 183.815V27.2017C6.96999 20.7761 6.00747 17.6918 3.11993 14.993C0.985653 12.9797 0.232381 9.89541 1.1949 7.15382C2.11556 4.3694 4.58462 2.44172 7.43032 2.27038C9.14611 2.14186 10.569 2.05619 11.7407 1.92768C17.9343 1.45647 38.9841 0 52.2919 0C90.7088 0 109.666 4.84061 124.648 18.5057C132.892 25.7452 138.458 39.3675 138.458 52.39C138.458 66.5263 132.223 79.763 121.76 87.8164C118.915 90.1296 116.487 91.5861 116.069 91.8431C115.985 91.886 115.902 91.9288 115.818 92.0145C115.316 92.3143 114.688 92.657 114.018 92.9997L113.642 93.2139C113.056 93.5138 112.47 93.8136 111.926 94.0707C112.219 94.1992 112.554 94.3277 112.847 94.499L113.056 94.6275C113.809 94.9702 114.479 95.3129 115.148 95.6556L115.902 96.0412C116.529 96.341 117.115 96.6837 117.743 96.9836C118.036 97.1549 118.287 97.2835 118.538 97.412C119.375 97.8832 120.254 98.3544 121.133 98.9113C137.537 108.978 146.995 126.67 146.995 147.489C146.995 159.655 143.061 172.549 136.198 182.829C122.597 202.021 99.8736 210.545 62.4192 210.545L62.4611 210.46ZM9.52274 200.179L26.3877 200.992C41.6205 202.063 56.0164 202.62 62.4611 202.62C97.6975 202.62 117.91 195.338 130.005 178.203C135.947 169.293 139.42 158.027 139.42 147.36C139.42 129.154 131.553 114.29 117.324 105.551C116.529 105.08 115.734 104.609 114.981 104.18L114.353 103.838C113.684 103.495 113.14 103.195 112.596 102.938L111.884 102.595C111.298 102.295 110.671 101.996 110.085 101.739L109.75 101.61C109.08 101.31 108.453 101.01 107.825 100.753L104.644 99.4682C103.431 98.9969 102.217 98.6114 101.338 98.3116C99.5807 97.7547 98.3671 96.1697 98.3252 94.2848C98.2834 92.4 99.4133 90.7294 101.129 90.0868C102.008 89.7869 103.305 89.2729 104.812 88.6732H104.937C105.439 88.4161 105.942 88.202 106.486 87.9878L106.779 87.8593C107.281 87.6451 107.825 87.388 108.327 87.131L108.494 87.0453C109.08 86.7455 109.666 86.4885 110.21 86.1886L110.545 86.0173C111.089 85.7174 111.633 85.4175 112.177 85.1177C112.512 84.9035 114.562 83.704 117.073 81.6479C125.61 75.0937 130.842 63.8704 130.842 52.39C130.842 41.7235 126.238 30.2003 119.626 24.4172C106.193 12.1658 88.5745 7.83922 52.2919 7.83922C41.9135 7.83922 24.8393 8.82448 12.3266 9.7669C11.3641 9.85257 10.276 9.93825 9.02056 10.0239C13.582 14.7789 14.5446 20.3905 14.5446 27.2445V183.815C14.5446 190.326 13.6657 195.638 9.4809 200.179H9.52274ZM67.7758 198.722C63.4236 198.722 60.2013 198.08 54.3843 196.923L53.2544 196.709C49.9065 196.066 47.4375 193.025 47.4375 189.512V104.266C47.4375 100.239 50.6598 96.9408 54.5936 96.9408H66.4785C67.6921 96.9408 68.8221 96.9408 69.9101 97.0264L71.1237 97.1121C71.7933 97.1121 72.4629 97.1978 73.0906 97.2406C73.5928 97.2835 74.095 97.3263 74.5553 97.412C75.0156 97.4548 75.5178 97.5405 76.02 97.6262C76.5222 97.7118 77.0662 97.7975 77.5684 97.8832C77.9032 97.9688 78.238 98.0117 78.6146 98.0974H78.8238C79.326 98.2687 79.87 98.3972 80.3722 98.5257C80.5396 98.5686 80.707 98.6114 80.8744 98.6543H81.0418C83.3016 99.3825 85.3103 100.282 87.1098 101.353C88.1979 101.996 89.0767 102.595 89.8718 103.238C99.8318 111.634 105.984 128.212 105.984 146.589C105.984 170.364 99.3714 198.679 67.7758 198.679V198.722ZM55.0539 189.127L55.8072 189.255C61.4986 190.369 64.135 190.883 67.7758 190.883C98.3252 190.883 98.3252 157.556 98.3252 146.589C98.3252 130.739 93.136 116.132 85.0593 109.364C84.5989 109.021 84.0131 108.592 83.2179 108.121C81.9206 107.35 80.4978 106.75 78.8238 106.236L78.3217 106.065C77.945 105.937 77.5265 105.851 77.1499 105.765L77.7776 101.91L76.9825 105.722C76.6896 105.68 76.4385 105.594 76.1455 105.551C75.7271 105.465 75.2667 105.38 74.8482 105.337C74.4297 105.251 74.0531 105.208 73.6346 105.166C73.2161 105.123 72.7977 105.08 72.3792 105.037C71.7933 104.994 71.2493 104.951 70.6634 104.908L69.5753 104.823C68.571 104.823 67.5666 104.737 66.4785 104.737H55.0957V189.041L55.0539 189.127ZM66.1438 93.2996H54.5517C50.618 93.2996 47.3956 90.0011 47.3956 85.9744V20.0478C47.3956 16.3638 50.0739 13.2367 53.6311 12.7655C57.8577 12.2086 60.0757 12.0373 63.2144 12.0373C78.9494 12.0373 97.6975 19.2768 97.6975 53.7179C97.6975 67.8114 94.4333 78.3065 87.9887 84.9892C87.4865 85.5032 86.9843 85.9744 86.4403 86.4456L86.2729 86.617C86.2729 86.617 85.9381 86.9168 85.7707 87.0882C85.2685 87.5166 84.7245 87.8593 84.2223 88.2448C83.8457 88.5018 83.5527 88.716 83.2598 88.8874C82.7576 89.1872 82.2554 89.4871 81.7114 89.7441C81.3347 89.9583 80.9163 90.1725 80.5396 90.3438C80.0374 90.558 79.5353 90.815 78.9912 91.0292C78.5309 91.2006 78.0287 91.3719 77.5684 91.5433C77.108 91.7146 76.6059 91.886 76.0618 92.0145C75.5178 92.1858 74.9319 92.3143 74.3879 92.4428H74.095C73.7183 92.5714 73.3417 92.657 72.9232 92.7427C72.2536 92.8712 71.5422 92.9569 70.8726 93.0426H70.5378C70.2449 93.1282 69.952 93.1711 69.659 93.1711C68.4873 93.2568 67.3574 93.2996 66.1856 93.2996H66.1438ZM55.0539 85.4604H66.1438C67.1063 85.4604 68.0269 85.4604 68.9894 85.3319C69.1568 85.3319 69.3242 85.3319 69.4916 85.289H69.952C70.496 85.1605 71.04 85.1177 71.5841 84.9892C71.877 84.9463 72.1281 84.8606 72.3792 84.8178L72.6721 84.7321C73.0906 84.6465 73.5509 84.5179 73.9694 84.4323C74.346 84.3466 74.7227 84.2181 75.0993 84.0896C75.476 83.9611 75.8107 83.8326 76.1455 83.704C76.5222 83.5755 76.8988 83.4042 77.2336 83.2328C77.5265 83.1043 77.8195 82.933 78.1124 82.8045C78.489 82.5903 78.8657 82.4189 79.2005 82.1619C79.4097 82.0334 79.5771 81.9049 79.7445 81.7764C80.2467 81.4337 80.5815 81.1766 80.9581 80.9196L81.4184 80.4912C81.7951 80.1486 82.1717 79.8487 82.5065 79.4631C87.4865 74.3227 89.9974 65.6695 89.9974 53.7179C89.9974 30.9285 81.2092 19.8337 63.1725 19.8337C60.4942 19.8337 58.611 19.9622 55.0121 20.4334V85.3747L55.0539 85.4604Z" fill="black"/>
<path d="M171.308 50.3339C188.09 50.3339 195.832 44.0368 195.832 30.0718C195.832 18.5915 187.588 10.9236 174.782 10.9236C158.796 10.9236 150.51 17.4777 150.51 30.9286C150.51 42.9659 158.754 50.3767 171.308 50.3767V50.3339Z" fill="black"/>
<path d="M171.31 54.2317C156.579 54.2317 146.703 44.8503 146.703 30.8854C146.703 19.9619 151.558 6.98218 174.783 6.98218C189.682 6.98218 199.641 16.235 199.641 30.0715C199.641 46.3496 190.351 54.2317 171.31 54.2317ZM174.783 14.7786C156.454 14.7786 154.361 23.9457 154.361 30.8425C154.361 40.5666 160.722 46.3925 171.352 46.3925C189.556 46.3925 192.067 38.5104 192.067 30.0286C192.067 20.6044 185.455 14.7786 174.825 14.7786H174.783Z" fill="black"/>
<path d="M198.385 202.834C194.367 199.065 193.195 194.952 193.195 187.499V71.1955C193.195 69.0536 190.977 67.6828 189.136 68.6681C170.388 78.7777 162.813 82.0761 149.38 85.5031C146.953 86.1457 146.451 89.5298 148.669 90.8149C153.942 93.8135 155.867 98.5685 155.867 106.408V188.013C155.867 194.867 154.527 199.065 150.468 202.706C148.501 204.462 149.673 207.718 152.268 207.718H196.543C199.054 207.718 200.31 204.505 198.427 202.749L198.385 202.834Z" fill="black"/>
<path d="M196.501 211.701H152.226C149.464 211.701 147.037 209.988 146.074 207.332C145.112 204.633 145.823 201.678 147.957 199.793C150.97 197.094 152.058 194.053 152.058 188.055V106.45C152.058 98.7824 150.05 96.0837 146.785 94.2417C144.4 92.8709 143.103 90.215 143.479 87.4734C143.856 84.689 145.781 82.4186 148.418 81.7332C161.307 78.3919 168.589 75.3076 187.295 65.198C189.345 64.0843 191.773 64.1699 193.781 65.3694C195.79 66.6117 196.962 68.7535 196.962 71.1524V187.456C196.962 194.138 197.882 197.051 200.896 199.878C202.904 201.763 203.574 204.676 202.611 207.289C201.607 209.902 199.222 211.616 196.46 211.616L196.501 211.701ZM154.779 203.862H194.032C190.182 199.322 189.345 194.138 189.345 187.498V72.9516C172.313 82.0759 164.32 85.5457 152.519 88.7157C158.796 93.4278 159.675 100.582 159.675 106.407V188.012C159.675 195.123 158.252 199.921 154.779 203.819V203.862Z" fill="black"/>
<path d="M292.541 72.2237C293.88 79.0777 297.605 82.6331 304.008 82.6331C310.41 82.6331 315.223 77.15 315.223 70.296C315.223 61.8142 308.569 55.2173 300.032 55.2173C292.039 55.2173 284.046 61.7714 278.731 73.2946C272.077 69.7391 269.148 68.6254 262.201 67.5544C257.932 66.7405 254.208 66.1836 250.483 66.1836C221.692 66.1836 200.098 88.0735 200.098 116.56C200.098 139.821 213.95 158.198 236.339 164.495C218.218 176.275 211.271 183.643 211.271 190.797C211.271 197.951 216.586 203.134 229.936 206.69C209.137 214.615 195.034 227.209 195.034 237.918C195.034 254.625 215.833 263.663 252.074 263.663C288.314 263.663 312.294 248.585 312.294 225.324C312.294 206.433 297.103 194.396 260.067 184.243C247.554 180.688 244.332 178.503 244.332 174.947C244.332 171.949 245.671 170.021 249.646 166.166C280.28 164.795 300.283 145.09 300.283 115.232C300.283 100.71 295.764 88.9302 286.431 78.8206C288.566 75.5222 289.11 74.9653 292.541 72.2237ZM252.827 214.058C270.947 218.984 278.94 225.838 278.94 235.691C278.94 246.357 265.884 253.211 247.219 253.211C231.484 253.211 220.018 246.657 220.018 236.762C220.018 233.206 221.901 229.351 224.537 225.795C228.806 219.755 231.484 217.87 242.407 211.016C246.926 212.13 250.4 213.501 252.785 214.015L252.827 214.058ZM249.646 155.457C238.473 155.457 233.66 144.49 233.66 116.56C233.66 88.6304 238.724 77.664 249.898 77.664C261.071 77.664 265.884 89.4443 265.884 115.446C265.884 144.19 261.364 155.414 249.646 155.414V155.457Z" fill="black"/>
<path d="M252.033 267.562C199.095 267.562 191.186 248.97 191.186 237.918C191.186 226.866 201.941 215.643 219.266 207.075C212.738 203.991 207.465 199.15 207.465 190.797C207.465 183.001 213.072 175.847 227.761 165.609C208.134 157.127 196.291 138.964 196.291 116.603C196.291 85.6316 219.601 62.2853 250.485 62.2853C254.837 62.2853 259.022 62.9707 262.914 63.7418C269.024 64.727 272.372 65.7551 277.1 68.1112C283.001 57.5304 291.371 51.3618 300.075 51.3618C310.747 51.3618 319.075 59.7151 319.075 70.3387C319.075 79.5916 312.63 86.5741 304.051 86.5741C300.703 86.5741 297.815 85.7601 295.472 84.1752C301.289 93.2138 304.135 103.452 304.135 115.232C304.135 146.589 283.461 167.965 251.28 169.978C248.309 172.934 248.141 173.791 248.141 174.905C248.141 175.461 249.397 177.132 261.073 180.431C299.657 190.968 316.103 204.377 316.103 225.281C316.103 250.941 290.952 267.519 252.033 267.519V267.562ZM250.443 70.1245C223.911 70.1245 203.907 90.0867 203.907 116.603C203.907 138.022 216.713 154.942 237.344 160.768L245.672 163.124L238.391 167.836C222.07 178.417 215.123 185.314 215.123 190.84C215.123 194.738 217.006 199.236 230.942 202.963L242.617 206.09L231.318 210.417C210.017 218.556 198.886 230.422 198.886 237.961C198.886 251.84 218.262 259.808 252.117 259.808C285.972 259.808 308.529 246.314 308.529 225.367C308.529 208.489 294.217 197.651 259.106 188.056C248.225 184.971 240.567 182.23 240.567 174.99C240.567 170.021 243.287 167.065 247.095 163.381L248.141 162.396H249.564C278.565 161.025 296.56 143.034 296.56 115.318C296.56 101.781 292.501 91.072 283.754 81.5621L281.662 79.2917L283.336 76.7215C285.763 72.9518 286.642 72.1379 290.325 69.225L295.221 65.3696L296.435 71.581C297.69 77.9638 300.87 78.8205 304.135 78.8205C308.487 78.8205 311.5 75.3507 311.5 70.4244C311.5 64.0845 306.604 59.2867 300.117 59.2867C293.631 59.2867 286.851 65.1983 282.248 75.1365L280.532 78.8205L277.017 76.9357C270.53 73.4658 267.978 72.5663 261.658 71.581C258.018 70.8956 254.251 70.2531 250.527 70.2531L250.443 70.1245ZM247.263 257.152C229.017 257.152 216.253 248.799 216.253 236.804C216.253 232.692 218.052 228.194 221.568 223.482C226.338 216.757 229.644 214.529 240.483 207.718L241.822 206.861L243.371 207.247C246.049 207.889 248.351 208.617 250.234 209.217C251.615 209.646 252.828 210.031 253.707 210.245H253.875C266.304 213.672 282.834 219.969 282.834 235.691C282.834 248.499 268.563 257.109 247.304 257.109L247.263 257.152ZM243.078 215.257C233.536 221.254 231.318 222.968 227.677 228.151C225.167 231.493 223.869 234.491 223.869 236.804C223.869 244.044 233.704 249.313 247.221 249.313C263.625 249.313 275.134 243.701 275.134 235.691C275.134 230.764 272.706 223.525 251.908 217.87C250.736 217.613 249.397 217.185 247.89 216.714C246.426 216.242 244.835 215.728 243.036 215.257H243.078ZM249.648 159.397C232.197 159.397 229.854 137.765 229.854 116.603C229.854 96.6836 232.155 73.8085 249.941 73.8085C267.726 73.8085 269.735 97.6261 269.735 115.489C269.735 141.834 266.304 159.397 249.648 159.397ZM249.899 81.6478C246.509 81.6478 237.47 81.6478 237.47 116.603C237.47 147.403 243.622 151.601 249.648 151.601C255.674 151.601 262.077 148.817 262.077 115.532C262.077 85.1604 255.13 81.6478 249.899 81.6478Z" fill="black"/>
<path d="M660.055 10.6232H610.632C608.121 10.6232 606.991 13.836 608.916 15.5066C614.106 20.0474 615.026 23.56 615.026 31.4421V181.201C615.026 188.612 614.524 192.467 612.808 195.423C612.683 195.594 612.557 195.766 612.432 195.937C610.005 198.807 605.569 200.906 601.426 200.906C592.344 200.906 588.913 195.723 588.913 181.458C588.913 168.307 588.118 163.681 585.439 158.455C582.51 153.271 577.446 150.23 571.044 150.23C559.326 150.23 551.584 158.455 551.584 172.12C551.584 195.68 572.383 212.087 602.221 212.087C624.861 212.087 644.613 203.048 650.723 189.34C653.904 183.043 655.536 174.561 655.536 164.152V31.3992C655.536 23.4743 656.331 20.133 661.771 15.5066C663.696 13.836 662.608 10.5803 660.055 10.5803V10.6232Z" fill="black"/>
<path d="M602.263 216.071C570.207 216.071 547.818 198.036 547.818 172.163C547.818 156.484 556.941 146.332 571.086 146.332C578.703 146.332 585.147 150.059 588.788 156.484L588.872 156.613C591.927 162.61 592.764 167.922 592.764 181.416C592.764 195.852 596.363 196.965 601.468 196.965C604.397 196.965 607.787 195.466 609.587 193.367C610.8 191.268 611.261 188.055 611.261 181.158V31.3994C611.261 24.117 610.466 21.9323 606.49 18.4625C604.398 16.6205 603.644 13.7076 604.607 11.0517C605.569 8.39575 607.955 6.7251 610.717 6.7251H660.14C662.902 6.7251 665.329 8.43859 666.25 11.1373C667.212 13.8361 666.417 16.749 664.283 18.5482C660.14 22.0608 659.428 23.9885 659.428 31.4422V164.238C659.428 175.29 657.671 184.328 654.239 191.14C647.501 206.047 626.661 216.071 602.305 216.071H602.263ZM571.086 154.171C561.294 154.171 555.435 160.896 555.435 172.163C555.435 193.41 574.685 208.232 602.263 208.232C623.397 208.232 641.894 199.836 647.292 187.798L647.376 187.627C650.263 181.93 651.728 174.048 651.728 164.238V31.3994C651.728 23.6887 652.523 19.2336 657.168 14.4786H613.479C617.998 19.2764 618.835 23.86 618.835 31.3994V181.201C618.835 188.655 618.375 193.453 616.073 197.437C615.822 197.822 615.571 198.208 615.32 198.508C612.056 202.32 606.615 204.805 601.426 204.805C587.03 204.805 585.063 192.982 585.063 181.458C585.063 168.564 584.268 164.666 582.092 160.34C579.791 156.27 575.982 154.128 571.044 154.128L571.086 154.171Z" fill="black"/>
<path d="M781.46 192.725C780.079 193.281 778.573 193.538 776.899 193.538C771.584 193.538 769.701 189.683 769.701 179.831V94.6701C769.701 76.3357 757.439 66.4832 735.05 66.4832C703.329 66.4832 673.742 84.8175 673.742 105.08C673.742 114.118 680.94 120.972 690.523 120.972C700.651 120.972 708.1 113.304 708.895 102.638L709.146 94.156C709.69 84.3035 714.21 78.8203 721.407 78.8203C728.605 78.8203 732.079 83.1897 732.079 93.3421V120.715C732.079 121.872 731.326 122.9 730.279 123.243C727.978 123.971 726.178 124.399 724.881 124.828C692.909 134.68 683.325 138.792 674.495 147.274C665.707 155.756 661.188 166.423 661.188 177.389C661.188 196.837 675.834 211.873 695.838 211.873C704.626 211.873 713.958 208.574 721.7 202.834C723.751 201.164 724.839 200.35 729.568 195.895C730.823 194.738 732.832 195.081 733.585 196.623C735.552 200.649 736.85 202.492 739.026 204.719C743.545 209.088 750.743 211.83 758.736 211.83C770.538 211.83 779.284 206.69 784.599 196.451C785.729 194.267 783.678 191.782 781.418 192.682L781.46 192.725ZM732.121 180.045C732.121 180.773 731.828 181.501 731.284 182.015C723.625 189.041 720.194 190.797 714.544 190.797C704.166 190.797 697.47 182.872 697.47 170.278C697.47 154.771 709.815 140.72 728.689 133.652C730.363 133.009 732.121 134.295 732.121 136.137V180.045Z" fill="black"/>
<path d="M758.779 215.771C749.949 215.771 741.83 212.772 736.432 207.589C734.13 205.233 732.707 203.262 730.992 199.921C727.267 203.391 726.137 204.29 724.296 205.747L724.086 205.918C715.633 212.215 705.38 215.771 695.881 215.771C673.952 215.771 657.422 199.278 657.422 177.346C657.422 165.137 662.569 153.4 671.943 144.361C681.694 134.98 692.323 130.739 723.835 121.015C724.463 120.801 725.3 120.544 726.346 120.244C726.932 120.072 727.602 119.901 728.313 119.687V93.2562C728.313 83.4465 725.091 82.6325 721.492 82.6325C715.047 82.6325 713.331 88.9725 713.038 94.2843L712.746 102.852C711.783 115.789 702.66 124.827 690.566 124.827C678.472 124.827 669.935 116.303 669.935 105.036C669.935 82.7611 700.986 62.499 735.051 62.499C759.49 62.499 773.51 74.1936 773.51 94.627V179.787C773.51 189.554 775.309 189.554 776.899 189.554C778.113 189.554 779.159 189.383 780.122 188.997C782.633 188.012 785.395 188.698 787.152 190.754C788.952 192.853 789.286 195.766 788.031 198.25C782.13 209.688 772.003 215.685 758.779 215.685V215.771ZM731.326 191.311C731.703 191.311 732.08 191.311 732.498 191.439C734.465 191.825 736.139 193.067 737.06 194.909C738.985 198.807 740.073 200.264 741.788 202.02C745.639 205.704 751.999 207.974 758.821 207.974C768.279 207.974 775.184 204.462 779.829 197.222C778.908 197.394 777.946 197.479 776.941 197.479C765.935 197.479 765.935 185.142 765.935 179.873V94.6698C765.935 78.563 755.557 70.3811 735.093 70.3811C705.548 70.3811 677.593 87.259 677.593 105.079C677.593 112.019 683.033 117.074 690.566 117.074C698.601 117.074 704.46 111.205 705.129 102.423L705.38 94.0273C706.008 82.0328 712.034 74.9218 721.45 74.9218C733.419 74.9218 735.93 84.9458 735.93 93.3419V120.715C735.93 123.585 734.088 126.112 731.41 126.969C730.28 127.312 729.234 127.612 728.355 127.869C727.476 128.126 726.765 128.34 726.137 128.554C693.997 138.492 685.293 142.305 677.174 150.144C669.349 157.683 665.038 167.365 665.038 177.431C665.038 194.866 678.304 208.017 695.881 208.017C703.79 208.017 712.411 204.976 719.483 199.75L719.567 199.664C721.492 198.122 722.538 197.265 727.016 193.067C728.229 191.953 729.736 191.354 731.326 191.354V191.311ZM714.545 194.695C702.074 194.695 693.663 184.885 693.663 170.235C693.663 153.186 706.594 137.721 727.393 129.968C729.318 129.239 731.536 129.539 733.209 130.739C734.925 131.981 735.93 133.952 735.93 136.093V180.002C735.93 181.886 735.135 183.643 733.795 184.885C726.263 191.782 721.91 194.652 714.503 194.652L714.545 194.695ZM728.313 137.978C711.616 144.747 701.321 156.998 701.321 170.235C701.321 180.644 706.259 186.856 714.545 186.856C718.772 186.856 721.283 185.828 728.313 179.445V137.978Z" fill="black"/>
<path d="M1133.66 188.313V87.5593C1133.66 74.1513 1124.87 65.9265 1110.47 65.9265C1103.82 65.9265 1096.87 68.1112 1087.04 73.0375C1079.09 76.8929 1074.82 79.8915 1067.28 84.9463C1064.44 86.8311 1062.26 87.645 1062.26 82.2903V71.1955C1062.26 69.1821 1060.17 67.897 1058.45 68.8394C1039.25 79.2061 1031.71 82.4617 1017.9 85.9744C1015.52 86.5741 1015.18 89.8297 1017.32 91.0292C1022.67 94.0278 1024.64 98.8255 1024.64 106.75V187.799C1024.64 195.381 1023.43 199.493 1019.03 203.306C1017.15 204.933 1018.2 208.061 1020.67 208.061H1065.95C1068.37 208.061 1069.42 205.019 1067.62 203.391C1063.48 199.579 1062.22 195.595 1062.22 188.355V100.967C1062.22 100.111 1062.64 99.2967 1063.31 98.7827C1074.06 90.9435 1079.76 88.3732 1085.95 88.3732C1093.15 88.3732 1096.08 91.9287 1096.08 102.081V188.355C1096.08 195.552 1094.74 199.536 1090.26 203.306C1088.38 204.891 1089.42 208.061 1091.85 208.061H1137.34C1139.72 208.061 1140.81 205.062 1139.1 203.434C1134.91 199.45 1133.66 195.252 1133.66 188.355V188.313Z" fill="black"/>
<path d="M1137.38 211.959H1091.89C1089.17 211.959 1086.79 210.245 1085.87 207.632C1084.94 204.976 1085.7 202.106 1087.83 200.264C1091.22 197.394 1092.27 194.609 1092.27 188.312V102.081C1092.27 92.314 1089.46 92.314 1085.95 92.314C1080.68 92.314 1075.61 94.6701 1066.07 101.653V188.355C1066.07 194.781 1067.03 197.608 1070.17 200.478C1072.18 202.32 1072.89 205.19 1071.93 207.76C1070.97 210.331 1068.62 211.959 1065.95 211.959H1020.67C1017.95 211.959 1015.6 210.288 1014.64 207.675C1013.68 205.019 1014.43 202.149 1016.56 200.307C1019.83 197.48 1020.83 194.567 1020.83 187.755V106.707C1020.83 98.9538 1018.78 96.2551 1015.48 94.4131C1013.09 93.0851 1011.79 90.4292 1012.13 87.6876C1012.46 84.9889 1014.35 82.8042 1016.94 82.1616C1030.33 78.7346 1037.36 75.7788 1056.61 65.3694C1058.62 64.2985 1060.97 64.3413 1062.93 65.5407C1064.9 66.7402 1066.03 68.8392 1066.03 71.1953V81.0907L1067.12 80.3624C1073.6 75.993 1077.91 73.1229 1085.36 69.5246C1095.99 64.2128 1103.27 62.0281 1110.47 62.0281C1126.88 62.0281 1137.46 72.052 1137.46 87.5591V188.355C1137.46 194.567 1138.47 197.565 1141.69 200.564C1143.66 202.406 1144.29 205.276 1143.32 207.803C1142.36 210.331 1140.02 211.959 1137.38 211.959ZM1094.99 204.119H1134.54C1130.73 199.45 1129.89 194.352 1129.89 188.312V87.5591C1129.89 76.2929 1122.82 69.8245 1110.51 69.8245C1104.61 69.8245 1098.29 71.7521 1088.75 76.5499C1081.72 79.9341 1077.62 82.7185 1071.39 86.8737L1069.42 88.2017C1067.87 89.2297 1064.69 91.3288 1061.64 89.6581C1058.5 87.9018 1058.5 83.8322 1058.5 82.2901V73.2514C1041.34 82.4615 1033.51 85.8456 1021.5 89.0584C1027.7 93.8133 1028.53 100.881 1028.53 106.707V187.755C1028.53 194.395 1027.65 199.579 1023.72 204.119H1063.06C1059.29 199.621 1058.45 194.609 1058.45 188.312V100.967C1058.45 98.8253 1059.46 96.8548 1061.13 95.6125C1072.52 87.2592 1078.79 84.4748 1085.99 84.4748C1098.5 84.4748 1099.93 94.5416 1099.93 102.081V188.355C1099.93 194.652 1099.05 199.664 1094.99 204.162V204.119Z" fill="black"/>
<path d="M858.168 66.9973C849.631 66.9973 840.006 70.2958 833.059 76.3358C832.431 76.807 831.761 77.3211 831.05 77.9637C829.083 79.6343 826.112 78.2207 826.112 75.6076V71.8808C826.112 69.5676 823.685 68.0682 821.718 69.1392C803.346 79.0346 795.73 82.3331 782.631 85.76C780.037 86.4454 779.534 90.0009 781.878 91.4146C786.858 94.456 788.741 99.1681 788.741 106.836V234.748C788.741 241.002 787.946 253.554 784.724 256.981C782.296 259.551 783.761 264.092 787.988 263.663C790.289 263.449 791.085 262.549 792.717 261.35C799.078 256.809 808.828 254.196 808.828 254.196C808.828 254.196 820.964 249.912 826.865 249.57C830.59 249.356 832.18 245.415 829.92 242.844C826.865 239.417 826.154 231.749 826.154 225.41V211.359C826.154 209.217 828.288 207.718 830.213 208.489C836.909 211.145 840.842 211.702 846.701 211.702C875.033 211.702 896.375 177.946 896.375 133.738C896.375 93.942 881.143 67.0401 858.168 67.0401V66.9973ZM840.005 199.836C835.067 199.836 831.301 198.208 827.158 194.524C826.488 193.924 826.112 193.067 826.112 192.168V96.2552C826.112 95.4413 826.405 94.6702 826.949 94.1133C832.054 88.8015 835.444 87.345 840.257 87.345C854.15 87.345 861.097 106.579 861.097 145.261C861.097 181.758 854.15 199.879 840.005 199.879V199.836Z" fill="black"/>
<path d="M787.402 267.604C784.347 267.604 781.753 266.019 780.455 263.277C779.033 260.279 779.66 256.68 781.962 254.239C783.343 252.782 784.891 244.386 784.891 234.748V106.793C784.891 99.2964 782.883 96.5548 779.911 94.7128C777.526 93.2563 776.229 90.5147 776.605 87.6875C776.982 84.903 778.991 82.6327 781.669 81.9044C794.307 78.606 801.463 75.5645 819.919 65.6263C822.053 64.4697 824.564 64.5553 826.614 65.8405C828.665 67.1256 829.92 69.3531 829.92 71.8377V73.851C830.172 73.6368 830.464 73.4227 830.716 73.2513C838.081 66.8686 848.334 63.0989 858.168 63.0989C883.319 63.0989 900.184 91.4571 900.184 133.695C900.184 180.344 877.167 215.557 846.66 215.557C840.968 215.557 836.7 215.086 829.92 212.515V225.366C829.92 236.204 832.055 239.417 832.682 240.145C834.733 242.459 835.277 245.586 834.189 248.413C833.017 251.326 830.297 253.254 827.033 253.425C822.639 253.682 813.265 256.723 810.001 257.88L809.749 257.966C809.749 257.966 800.543 260.493 794.851 264.563C794.6 264.734 794.349 264.948 794.14 265.077C792.801 266.105 791.252 267.261 788.281 267.561C787.988 267.561 787.653 267.604 787.361 267.604H787.402ZM787.402 259.765C787.402 259.765 787.528 259.765 787.612 259.765C788.49 259.679 788.658 259.551 789.662 258.78C789.955 258.565 790.248 258.351 790.541 258.137C797.028 253.511 806.36 250.812 807.699 250.426C809.498 249.784 820.546 245.971 826.656 245.628C827.033 245.628 827.158 245.5 827.158 245.457C823.936 241.859 822.304 235.133 822.304 225.366V211.316C822.304 209.003 823.434 206.861 825.275 205.533C827.117 204.248 829.502 203.948 831.594 204.762C837.955 207.289 841.554 207.717 846.702 207.717C872.857 207.717 892.568 175.889 892.568 133.652C892.568 96.0836 878.758 70.8524 858.168 70.8524C850.175 70.8524 841.471 74.0652 835.528 79.2485L835.277 79.4627C834.775 79.8482 834.189 80.3195 833.478 80.8763C831.427 82.6327 828.665 83.0182 826.238 81.8616C823.811 80.705 822.304 78.2633 822.304 75.5217V73.1656C805.146 82.3756 797.279 85.8026 785.352 88.9726C791.671 93.7275 792.55 100.881 792.55 106.707V234.619C792.55 239.203 792.173 254.539 787.444 259.551C787.444 259.551 787.402 259.593 787.361 259.636L787.402 259.765ZM840.048 203.776C834.273 203.776 829.544 201.849 824.689 197.479C823.183 196.151 822.304 194.181 822.304 192.168V96.2549C822.304 94.4129 823.015 92.6566 824.271 91.3286C829.879 85.5456 834.189 83.4037 840.299 83.4037C856.871 83.4037 864.948 103.623 864.948 145.218C864.948 159.697 864.948 203.734 840.006 203.734L840.048 203.776ZM829.962 191.825C833.352 194.781 836.198 195.98 840.048 195.98C851.514 195.98 857.331 178.931 857.331 145.261C857.331 120.629 854.36 91.243 840.299 91.243C836.867 91.243 834.398 92.0569 829.962 96.5976V191.825Z" fill="black"/>
<path d="M1014.93 192.725C1013.55 193.281 1012.04 193.538 1010.37 193.538C1005.06 193.538 1003.17 189.683 1003.17 179.831V94.6701C1003.17 76.3357 990.911 66.4832 968.522 66.4832C936.801 66.4832 907.214 84.8175 907.214 105.08C907.214 114.118 914.412 120.972 923.995 120.972C934.122 120.972 941.571 113.304 942.366 102.638L942.618 94.156C943.162 84.3035 947.681 78.8203 954.879 78.8203C962.077 78.8203 965.55 83.1897 965.55 93.3421V120.715C965.55 121.872 964.797 122.9 963.751 123.243C961.449 123.971 959.65 124.399 958.353 124.828C926.38 134.68 916.797 138.792 907.967 147.274C899.179 155.756 894.659 166.423 894.659 177.389C894.659 196.837 909.306 211.873 929.31 211.873C938.098 211.873 947.43 208.574 955.172 202.834C957.264 201.164 958.311 200.35 963.04 195.895C964.295 194.738 966.304 195.081 967.057 196.623C969.024 200.649 970.321 202.492 972.497 204.719C977.017 209.088 984.215 211.83 992.208 211.83C1004.01 211.83 1012.76 206.69 1018.07 196.451C1019.2 194.267 1017.15 191.782 1014.89 192.682L1014.93 192.725ZM965.592 180.045C965.592 180.773 965.299 181.501 964.755 182.015C957.097 189.041 953.666 190.797 948.016 190.797C937.638 190.797 930.942 182.872 930.942 170.278C930.942 154.771 943.287 140.72 962.161 133.652C963.835 133.009 965.592 134.295 965.592 136.137V180.045Z" fill="black"/>
<path d="M992.251 215.771C983.421 215.771 975.302 212.772 969.904 207.589C967.602 205.233 966.179 203.262 964.463 199.921C960.739 203.391 959.567 204.333 957.768 205.79L957.6 205.918C949.147 212.215 938.894 215.771 929.394 215.771C907.466 215.771 890.936 199.278 890.936 177.346C890.936 165.137 896.083 153.4 905.457 144.361C915.208 134.98 925.837 130.739 957.349 121.015C957.977 120.801 958.814 120.544 959.86 120.244C960.446 120.072 961.115 119.901 961.827 119.687V93.2562C961.827 83.4465 958.605 82.6325 955.006 82.6325C948.561 82.6325 946.845 88.9725 946.552 94.2843L946.259 102.852C945.297 115.789 936.174 124.827 924.08 124.827C911.985 124.827 903.448 116.303 903.448 105.036C903.448 82.7611 934.5 62.499 968.564 62.499C993.004 62.499 1007.02 74.1936 1007.02 94.627V179.787C1007.02 189.554 1008.82 189.554 1010.41 189.554C1011.63 189.554 1012.67 189.383 1013.64 188.997C1016.15 188.012 1018.91 188.698 1020.67 190.754C1022.47 192.853 1022.8 195.766 1021.54 198.25C1015.64 209.688 1005.52 215.685 992.293 215.685L992.251 215.771ZM964.798 191.311C965.175 191.311 965.551 191.311 965.97 191.439C967.937 191.825 969.611 193.067 970.531 194.909C972.456 198.807 973.544 200.264 975.26 202.02C979.11 205.704 985.471 207.974 992.293 207.974C1001.75 207.974 1008.66 204.462 1013.3 197.222C1012.38 197.394 1011.42 197.479 1010.41 197.479C999.407 197.479 999.407 185.142 999.407 179.873V94.6698C999.407 78.563 989.028 70.3811 968.564 70.3811C939.019 70.3811 911.065 87.259 911.065 105.079C911.065 112.019 916.505 117.074 924.038 117.074C932.073 117.074 937.931 111.205 938.601 102.423L938.852 94.0273C939.48 82.0328 945.506 74.9218 954.922 74.9218C966.891 74.9218 969.401 84.9458 969.401 93.3419V120.715C969.401 123.585 967.56 126.112 964.882 126.969C963.752 127.312 962.706 127.612 961.827 127.869C960.948 128.126 960.195 128.34 959.609 128.554C927.469 138.45 918.765 142.305 910.646 150.144C902.82 157.683 898.51 167.365 898.51 177.431C898.51 194.866 911.776 208.017 929.352 208.017C937.262 208.017 945.883 204.976 952.955 199.75L953.039 199.664C954.964 198.122 956.01 197.265 960.488 193.067C961.701 191.953 963.208 191.354 964.798 191.354V191.311ZM948.017 194.695C935.546 194.695 927.134 184.885 927.134 170.235C927.134 153.186 940.066 137.721 960.864 129.968C962.789 129.239 965.007 129.539 966.681 130.739C968.397 131.981 969.401 133.952 969.401 136.093V180.002C969.401 181.886 968.606 183.643 967.267 184.885C959.734 191.782 955.382 194.652 947.975 194.652L948.017 194.695ZM961.785 137.978C945.087 144.747 934.793 156.998 934.793 170.235C934.793 180.644 939.731 186.856 948.017 186.856C952.244 186.856 954.754 185.828 961.785 179.445V137.978Z" fill="black"/>
<path d="M370.508 50.7623C387.289 50.7623 395.031 44.4653 395.031 30.5003C395.031 19.0199 386.787 11.3521 373.981 11.3521C357.995 11.3521 349.709 17.9062 349.709 31.3571C349.709 43.3943 357.953 50.8052 370.508 50.8052V50.7623Z" fill="black"/>
<path d="M370.508 54.6602C355.778 54.6602 345.901 45.2788 345.901 31.3138C345.901 20.3903 350.756 7.41064 373.982 7.41064C388.88 7.41064 398.84 16.6635 398.84 30.4999C398.84 46.7781 389.549 54.6602 370.508 54.6602ZM373.982 15.207C355.652 15.207 353.56 24.3742 353.56 31.271C353.56 40.9951 359.921 46.8209 370.55 46.8209C388.754 46.8209 391.265 38.9389 391.265 30.4571C391.265 21.0329 384.653 15.207 374.024 15.207H373.982Z" fill="black"/>
<path d="M392.351 187.927V71.6234C392.351 69.4816 390.133 68.1108 388.291 69.096C369.543 79.2056 361.969 82.5041 348.535 85.9311C346.108 86.5736 345.606 89.9578 347.824 91.2429C353.097 94.2415 355.022 98.9965 355.022 106.836V188.441C355.022 195.295 353.683 199.493 349.623 203.134C347.657 204.89 348.828 208.146 351.423 208.146H395.699C398.21 208.146 399.465 204.933 397.582 203.177C393.564 199.407 392.393 195.295 392.393 187.841L392.351 187.927Z" fill="black"/>
<path d="M395.657 212.129H351.381C348.619 212.129 346.192 210.416 345.229 207.76C344.267 205.061 344.978 202.106 347.113 200.221C350.126 197.522 351.214 194.481 351.214 188.483V106.878C351.214 99.2104 349.205 96.5117 345.941 94.6697C343.555 93.2989 342.258 90.643 342.635 87.9014C343.011 85.117 344.936 82.8466 347.573 82.1612C360.462 78.8199 367.744 75.7356 386.45 65.626C388.501 64.5122 390.928 64.5979 392.937 65.7974C394.945 67.0396 396.117 69.1815 396.117 71.5804V187.884C396.117 194.566 397.038 197.479 400.051 200.306C402.06 202.191 402.729 205.104 401.767 207.717C400.762 210.33 398.377 212.044 395.615 212.044L395.657 212.129ZM353.934 204.29H393.188C389.338 199.749 388.501 194.566 388.501 187.926V73.3796C371.468 82.5039 363.475 85.9737 351.674 89.1437C357.951 93.8558 358.83 101.01 358.83 106.835V188.44C358.83 195.551 357.407 200.349 353.934 204.247V204.29Z" fill="black"/>
<path d="M518.191 188.484V87.7305C518.191 74.3224 509.403 66.0977 495.007 66.0977C488.353 66.0977 481.406 68.2824 471.572 73.2086C463.62 77.064 459.352 80.0626 451.819 85.1174C448.973 87.0022 446.797 87.8162 446.797 82.4615V71.3666C446.797 69.3533 444.705 68.0682 442.989 69.0106C423.781 79.3772 416.248 82.6328 402.438 86.1455C400.053 86.7452 399.718 90.0009 401.852 91.2003C407.167 94.1989 409.176 98.9967 409.176 106.922V187.97C409.176 195.552 407.962 199.664 403.568 203.477C401.685 205.105 402.731 208.232 405.2 208.232H450.48C452.907 208.232 453.953 205.19 452.154 203.562C448.011 199.75 446.756 195.766 446.756 188.527V101.139C446.756 100.282 447.174 99.4679 447.844 98.9538C458.599 91.1146 464.29 88.5444 470.484 88.5444C477.682 88.5444 480.611 92.0999 480.611 102.252V188.527C480.611 195.723 479.272 199.707 474.794 203.477C472.911 205.062 473.957 208.232 476.384 208.232H521.874C524.259 208.232 525.347 205.233 523.631 203.605C519.446 199.621 518.191 195.423 518.191 188.527V188.484Z" fill="black"/>
<path d="M521.873 212.13H476.384C473.664 212.13 471.278 210.416 470.358 207.803C469.437 205.147 470.19 202.277 472.324 200.435C475.714 197.565 476.76 194.781 476.76 188.484V102.209C476.76 92.4426 473.956 92.4426 470.441 92.4426C465.88 92.4426 461.318 93.9419 450.563 101.781V188.484C450.563 194.909 451.526 197.737 454.664 200.607C456.673 202.449 457.384 205.319 456.422 207.932C455.459 210.502 453.116 212.13 450.438 212.13H405.158C402.437 212.13 400.094 210.459 399.131 207.846C398.169 205.19 398.922 202.32 401.056 200.478C404.321 197.651 405.325 194.738 405.325 187.927V106.879C405.325 99.1252 403.274 96.4264 399.968 94.5844C397.583 93.2565 396.286 90.6006 396.62 87.859C396.955 85.1602 398.838 82.9755 401.433 82.333C414.825 78.906 421.897 75.9502 441.105 65.5408C443.114 64.4698 445.458 64.5127 447.425 65.7121C449.391 66.9116 450.521 69.0106 450.521 71.3666V81.262L451.651 80.491C458.138 76.1644 462.406 73.2943 469.855 69.696C480.485 64.3842 487.766 62.1995 494.964 62.1995C511.369 62.1995 521.957 72.2234 521.957 87.7305V188.527C521.957 194.738 522.961 197.737 526.183 200.735C528.15 202.577 528.778 205.447 527.816 207.975C526.853 210.502 524.509 212.13 521.873 212.13ZM479.48 204.291H519.027C515.219 199.621 514.382 194.524 514.382 188.484V87.6876C514.382 76.4214 507.31 69.953 495.006 69.953C489.106 69.953 482.787 71.8807 473.245 76.6785C466.256 80.0626 462.155 82.8042 455.92 87.0022L453.911 88.373C452.405 89.4011 449.224 91.5002 446.127 89.8295C442.989 88.0732 442.989 84.0036 442.989 82.4615V73.4228C425.831 82.6328 418.005 86.017 405.995 89.2298C412.188 93.9847 413.025 101.053 413.025 106.879V187.927C413.025 194.567 412.146 199.75 408.213 204.291H447.55C443.784 199.793 442.947 194.781 442.947 188.484V101.139C442.947 98.9967 443.951 97.0262 445.625 95.7839C457.008 87.4306 463.285 84.6462 470.483 84.6462C482.996 84.6462 484.419 94.713 484.419 102.252V188.527C484.419 194.824 483.54 199.836 479.48 204.334V204.291Z" fill="black"/>
<path d="M1158.51 198.122L1154.12 190.112H1151.65V201.592H1153.83V193.453L1158.39 201.592H1160.69V190.112H1158.51V198.122Z" fill="black"/>
<path d="M1160.69 205.49H1158.35C1157.51 205.49 1156.71 205.233 1156.09 204.719C1155.46 205.19 1154.66 205.49 1153.83 205.49H1151.65C1149.56 205.49 1147.84 203.734 1147.84 201.592V190.111C1147.84 187.969 1149.56 186.213 1151.65 186.213H1154.08C1154.87 186.213 1155.67 186.47 1156.3 186.941C1156.92 186.47 1157.68 186.213 1158.51 186.213H1160.69C1162.78 186.213 1164.5 187.969 1164.5 190.111V201.592C1164.5 203.734 1162.78 205.49 1160.69 205.49Z" fill="black"/>
<path d="M1169.73 201.592V197.265L1173.46 190.112H1170.82L1168.6 195.124L1166.26 190.112H1163.54L1167.39 197.265V201.592H1169.73Z" fill="black"/>
<path d="M1169.73 205.49H1167.39C1165.3 205.49 1163.58 203.734 1163.58 201.592V198.293L1160.19 191.996C1159.52 190.797 1159.56 189.297 1160.23 188.141C1160.9 186.984 1162.16 186.213 1163.54 186.213H1166.3C1167.14 186.213 1167.93 186.47 1168.56 186.984C1169.19 186.513 1169.98 186.213 1170.82 186.213H1173.46C1174.79 186.213 1176.05 186.941 1176.72 188.098C1177.43 189.255 1177.43 190.754 1176.8 191.953L1173.54 198.25V201.592C1173.54 203.734 1171.82 205.49 1169.73 205.49Z" fill="black"/>
<path d="M1167.93 183.258C1165.75 183.258 1163.58 183.857 1161.69 184.971L1162.87 187.07C1164.37 186.171 1166.13 185.656 1167.93 185.656C1173.37 185.656 1177.81 190.154 1177.81 195.638C1177.81 201.121 1173.37 205.619 1167.93 205.619C1165.88 205.619 1163.91 204.976 1162.24 203.777L1160.9 205.747C1162.95 207.204 1165.38 208.018 1167.93 208.018C1174.67 208.018 1180.15 202.449 1180.15 195.638C1180.15 188.826 1174.67 183.258 1167.93 183.258Z" fill="black"/>
<path d="M1167.93 211.958C1164.62 211.958 1161.4 210.93 1158.72 209.003C1157.01 207.76 1156.59 205.319 1157.76 203.562L1159.1 201.592C1159.69 200.735 1160.56 200.135 1161.57 199.964C1162.57 199.793 1163.58 200.007 1164.41 200.606C1165.46 201.335 1166.67 201.72 1167.93 201.72C1171.28 201.72 1173.96 198.979 1173.96 195.637C1173.96 192.296 1171.24 189.554 1167.93 189.554C1166.84 189.554 1165.75 189.854 1164.83 190.411C1163.95 190.925 1162.91 191.097 1161.95 190.84C1160.98 190.582 1160.1 189.94 1159.6 189.04L1158.43 186.984C1157.38 185.142 1157.97 182.743 1159.81 181.63C1162.28 180.13 1165.08 179.359 1167.97 179.359C1176.8 179.359 1184 186.684 1184 195.637C1184 204.59 1176.8 211.915 1167.97 211.915L1167.93 211.958Z" fill="black"/>
<path d="M123.349 106.45C122.512 105.936 121.675 105.465 120.838 105.037C120.587 104.908 120.336 104.78 120.085 104.651C119.499 104.351 118.913 104.052 118.369 103.752C118.118 103.623 117.867 103.495 117.616 103.366C116.946 103.023 116.318 102.724 115.691 102.424C115.607 102.381 115.481 102.338 115.356 102.295C114.644 101.995 114.017 101.696 113.347 101.396C113.054 101.267 112.803 101.181 112.51 101.053C112.175 100.924 111.841 100.753 111.506 100.625C111.213 100.496 110.878 100.368 110.585 100.282C110.376 100.196 110.167 100.111 109.999 100.068C108.535 99.5108 107.321 99.1253 106.484 98.8683C106.107 98.7397 106.107 98.1829 106.484 98.0544C107.405 97.7116 108.744 97.2404 110.334 96.5979H110.418C111.004 96.3409 111.59 96.0838 112.217 95.784C112.803 95.527 113.389 95.2271 114.017 94.9701L114.226 94.8844C114.812 94.5845 115.398 94.3275 115.984 93.9848L116.36 93.8135C116.946 93.5136 117.574 93.1709 118.16 92.8282L118.285 92.7425C118.829 92.4427 121.005 91.1147 123.558 88.9729C133.142 81.562 138.749 69.2677 138.749 56.6735C138.749 44.8933 133.686 32.2991 126.237 25.745C112.175 12.8082 94.055 8.13892 56.4332 8.13892C45.2178 8.13892 27.3904 9.25268 16.175 10.0666C14.9614 10.1523 13.4967 10.2808 11.8227 10.4093C8.89335 10.6235 7.63789 14.3075 9.77217 16.3637C13.7478 20.0905 14.8358 24.3742 14.8358 31.4424V188.055C14.8358 194.652 13.8315 198.808 10.2743 202.32C8.14008 204.419 9.39553 208.103 12.3249 208.275L30.2779 209.131C45.72 210.245 60.1159 210.759 66.5187 210.759C103.052 210.759 124.353 202.834 137.159 184.757C143.562 175.161 147.286 163.124 147.286 151.601C147.286 131.896 138.498 115.746 123.307 106.408L123.349 106.45ZM55.387 24.2886C55.387 22.5751 56.6425 21.1186 58.3164 20.9044C62.2083 20.3904 64.3426 20.219 67.3975 20.219C87.6522 20.219 98.0306 33.0702 98.0306 58.0015C98.0306 71.0669 95.1431 80.6196 89.4098 86.4883C88.9914 86.9167 88.531 87.3022 88.0707 87.7306C87.8615 87.9019 87.694 88.0733 87.4848 88.2446C87.0663 88.5873 86.606 88.8872 86.1875 89.187C85.9364 89.3584 85.6435 89.5726 85.3505 89.7439C84.932 90.0009 84.4717 90.258 84.0532 90.515C83.7184 90.6863 83.3837 90.8577 83.0489 91.029C82.6304 91.2432 82.1701 91.4146 81.7097 91.5859C81.2912 91.7573 80.9146 91.8858 80.4961 92.0143C80.0776 92.1428 79.6173 92.3142 79.157 92.4427C78.6548 92.5712 78.1526 92.6997 77.6923 92.7854C77.2738 92.871 76.8553 92.9567 76.4368 93.0424C75.8091 93.1281 75.1814 93.2137 74.5536 93.2994C74.177 93.2994 73.8422 93.3851 73.4656 93.4279C72.4612 93.5136 71.3731 93.5564 70.3269 93.5564H58.7349C56.8936 93.5564 55.4289 92.0143 55.4289 90.1295V24.2886H55.387ZM71.9172 199.022C67.6486 199.022 64.6774 198.379 58.1072 197.094C56.5588 196.794 55.387 195.381 55.387 193.753V108.507C55.387 106.622 56.8936 105.08 58.6931 105.08H70.578C71.7079 105.08 72.796 105.08 73.8422 105.165C74.2188 105.165 74.5955 105.208 74.9721 105.251C75.5998 105.251 76.2276 105.337 76.8134 105.38C77.2738 105.38 77.7341 105.465 78.1526 105.551C78.6129 105.594 79.0733 105.679 79.4917 105.722C79.9939 105.808 80.4543 105.894 80.9146 105.979C81.2494 106.065 81.5842 106.108 81.919 106.193C82.4211 106.322 82.9233 106.408 83.4255 106.579C83.6348 106.622 83.8021 106.707 84.0114 106.75C85.9364 107.35 87.6941 108.078 89.2843 109.021C90.0794 109.492 90.8745 110.006 91.6278 110.606C100.416 118.017 106.275 133.609 106.275 150.873C106.275 182.915 94.8083 199.065 71.8753 199.065L71.9172 199.022Z" fill="black"/>
<path d="M66.5619 214.7C59.9916 214.7 45.3447 214.143 30.07 213.029L12.2007 212.173C9.31312 212.044 6.8859 210.245 5.88154 207.503C4.87718 204.719 5.54675 201.592 7.63918 199.536C10.1501 197.051 11.0708 194.052 11.0708 188.055V31.4422C11.0708 25.0166 10.1082 21.9323 7.22069 19.2335C5.12827 17.263 4.37499 14.1787 5.33751 11.3943C6.30002 8.60988 8.72724 6.72504 11.5729 6.51085C13.2469 6.38234 14.7116 6.29667 15.8833 6.16816C22.0769 5.69695 43.1685 4.24048 56.4345 4.24048C94.8514 4.24048 113.809 9.08109 128.791 22.7462C137.035 29.9857 142.601 43.6079 142.601 56.6305C142.601 70.7668 136.365 84.0035 125.903 92.0569C123.057 94.4129 120.63 95.8266 120.212 96.0836C120.17 96.0836 120.044 96.1693 119.961 96.2121C119.458 96.512 118.789 96.8547 118.161 97.1974L117.784 97.4116C117.199 97.7114 116.613 98.0113 116.069 98.2683C116.362 98.3968 116.696 98.5253 116.989 98.6967L117.24 98.8252C117.952 99.1679 118.621 99.4677 119.333 99.8104L120.086 100.196C120.672 100.496 121.3 100.839 121.927 101.138L122.723 101.567C123.56 102.038 124.438 102.509 125.317 103.066C141.722 113.133 151.18 130.825 151.18 151.601C151.18 163.766 147.246 176.661 140.383 186.941C126.782 206.133 104.058 214.657 66.6037 214.657L66.5619 214.7ZM13.6235 204.419L30.4885 205.233C45.7213 206.304 60.1172 206.861 66.5619 206.861C101.798 206.861 122.011 199.578 134.105 182.444C140.048 173.533 143.521 162.267 143.521 151.601C143.521 133.395 135.654 118.53 121.425 109.792C120.63 109.32 119.835 108.849 119.04 108.421L118.328 108.035C117.743 107.735 117.199 107.435 116.655 107.178L115.943 106.836C115.357 106.536 114.729 106.236 114.144 105.979L113.809 105.808C113.139 105.508 112.511 105.208 111.884 104.951L111.256 104.694L112.47 100.967L111.047 104.608L108.745 103.709C107.532 103.237 106.318 102.852 105.397 102.552C103.64 101.995 102.426 100.367 102.384 98.5253C102.342 96.6405 103.472 94.9698 105.188 94.3273C106.067 94.0274 107.364 93.5134 108.871 92.9136H108.996C109.498 92.6566 110.001 92.4424 110.545 92.1854L110.796 92.0569C111.298 91.8427 111.842 91.5857 112.344 91.3287L112.512 91.243C113.097 90.9431 113.683 90.6861 114.227 90.3862L114.478 90.2577C115.106 89.915 115.65 89.6152 116.194 89.3153C116.529 89.1011 118.58 87.9017 121.09 85.8455C129.628 79.2914 134.859 68.068 134.859 56.5876C134.859 45.9212 130.255 34.3979 123.643 28.6149C110.21 16.3634 92.5916 12.0369 56.309 12.0369C45.9724 12.0369 28.8564 13.0221 16.3437 13.9645C15.3811 14.0502 14.2931 14.1359 13.0376 14.2216C17.5991 18.9765 18.5616 24.5882 18.5616 31.4422V188.055C18.5616 194.566 17.6828 199.878 13.498 204.419H13.6235ZM115.566 98.0541L115.818 98.1398L114.102 94.8842L115.608 98.0541H115.566ZM71.9185 202.92C67.5662 202.92 64.3439 202.277 58.5269 201.121L57.397 200.906C54.0492 200.264 51.5801 197.222 51.5801 193.71V108.506C51.5801 104.48 54.8024 101.181 58.7362 101.181H70.6212C71.8348 101.181 72.9647 101.181 74.0527 101.267L75.2663 101.353C75.9359 101.353 76.6055 101.438 77.2332 101.481C77.7354 101.524 78.2376 101.567 78.6979 101.652C79.1583 101.695 79.6604 101.781 80.1626 101.867C80.6648 101.952 81.2088 102.038 81.711 102.124C82.0458 102.209 82.3806 102.252 82.7572 102.338C83.4686 102.509 83.9708 102.638 84.5149 102.766L85.1844 102.98C87.4861 103.666 89.453 104.523 91.2943 105.636C92.3824 106.279 93.2612 106.879 94.0563 107.521C104.016 115.917 110.168 132.495 110.168 150.872C110.168 174.647 103.556 202.963 71.9603 202.963L71.9185 202.92ZM59.1965 193.324L59.9498 193.453C65.6412 194.566 68.2776 195.081 71.9185 195.081C102.468 195.081 102.468 161.753 102.468 150.787C102.468 134.937 97.2786 120.329 89.2019 113.561C88.7416 113.219 88.1557 112.79 87.3606 112.319C86.0633 111.548 84.6404 110.948 82.9665 110.434L82.4643 110.263C82.0876 110.134 81.6273 110.049 81.2088 109.963C80.8322 109.877 80.5393 109.834 80.2882 109.749C79.8697 109.663 79.4093 109.577 78.9909 109.535C78.5724 109.449 78.1957 109.406 77.7772 109.363C77.3588 109.32 76.9403 109.277 76.5218 109.235C75.9359 109.192 75.3919 109.149 74.806 109.106L73.7179 109.02C72.7136 109.02 71.7092 108.935 70.6212 108.935H59.2384V193.239L59.1965 193.324ZM70.2864 97.4972H58.6943C54.7606 97.4972 51.5382 94.1988 51.5382 90.1721V24.2883C51.5382 20.6043 54.2165 17.4772 57.7737 17.006C62.0004 16.4491 64.2183 16.2778 67.357 16.2778C83.092 16.2778 101.84 23.5173 101.84 57.9584C101.84 72.0519 98.576 82.547 92.1313 89.2296C91.6291 89.7437 91.0851 90.2149 90.5829 90.6861L90.4155 90.8146C90.4155 90.8146 90.0807 91.1145 89.9133 91.2858C89.4111 91.7142 88.8671 92.0569 88.3649 92.4424C87.9883 92.6995 87.6953 92.9136 87.3606 93.1278C86.9002 93.4277 86.3562 93.7276 85.854 93.9846C85.4774 94.1988 85.0589 94.4129 84.6823 94.5843C84.1801 94.7985 83.6779 95.0555 83.1339 95.2697C82.6735 95.441 82.2132 95.6124 81.711 95.7837C81.2088 95.9551 80.7066 96.1264 80.2045 96.2549C79.6604 96.4263 79.0746 96.5548 78.5305 96.6833H78.2376C77.8609 96.8118 77.4843 96.8975 77.0658 96.9832C76.3962 97.1117 75.6848 97.1974 75.0153 97.283H74.6386C74.3457 97.3687 74.0946 97.4116 73.8016 97.4116C72.6299 97.4972 71.5 97.5401 70.3282 97.5401L70.2864 97.4972ZM59.1965 89.658H70.2864C71.207 89.658 72.1696 89.658 73.1321 89.5295C73.2995 89.5295 73.4669 89.5295 73.6342 89.4867H74.0946C74.6386 89.3581 75.1826 89.3153 75.7267 89.1868C76.0196 89.144 76.2707 89.0583 76.5218 89.0154L76.8147 88.9298C77.2332 88.8441 77.6936 88.7156 78.112 88.6299C78.4887 88.5442 78.8653 88.4157 79.2419 88.2872C79.6186 88.1587 79.9534 88.0302 80.2882 87.9017C80.6648 87.7303 81.0414 87.6018 81.3762 87.4305C81.6692 87.302 81.9621 87.1306 82.2132 87.0021C82.5898 86.7879 82.9665 86.6166 83.3012 86.3595C83.5105 86.231 83.6779 86.1025 83.8453 85.974C84.3056 85.6313 84.6823 85.3743 85.0589 85.1173L85.5192 84.6889C85.8959 84.3462 86.2725 84.0463 86.6073 83.6608C91.5872 78.5203 94.0982 69.8672 94.0982 57.9156C94.0982 35.1262 85.31 24.0313 67.2733 24.0313C64.595 24.0313 62.7118 24.1598 59.1128 24.631V89.5723L59.1965 89.658Z" fill="black"/>
<path d="M167.166 46.0929C183.947 46.0929 191.689 39.7958 191.689 25.8309C191.689 14.3505 183.445 6.68262 170.639 6.68262C154.653 6.68262 146.367 13.2367 146.367 26.6876C146.367 38.7249 154.611 46.1358 167.166 46.1358V46.0929Z" fill="#009818"/>
<path d="M194.242 198.594C190.225 194.824 189.053 190.712 189.053 183.258V66.9975C189.053 64.8556 186.835 63.4848 184.994 64.4701C166.245 74.5797 158.671 77.8781 145.238 81.3051C142.81 81.9477 142.308 85.3318 144.526 86.6169C149.799 89.6155 151.724 94.3705 151.724 102.21V183.815C151.724 190.669 150.385 194.867 146.326 198.508C144.359 200.264 145.53 203.52 148.125 203.52H192.401C194.912 203.52 196.167 200.307 194.284 198.551L194.242 198.594Z" fill="#009818"/>
<path d="M288.401 67.9827C289.74 74.8367 293.464 78.3922 299.867 78.3922C306.27 78.3922 311.082 72.909 311.082 66.055C311.082 57.5733 304.428 50.9763 295.891 50.9763C287.898 50.9763 279.905 57.5304 274.591 69.0537C267.937 65.4982 265.007 64.3844 258.06 63.3135C253.792 62.4995 250.067 61.9427 246.343 61.9427C217.551 61.9427 195.957 83.8325 195.957 112.319C195.957 135.58 209.809 153.957 232.198 160.254C214.078 172.034 207.131 179.402 207.131 186.556C207.131 193.71 212.446 198.893 225.795 202.449C204.996 210.374 190.894 222.968 190.894 233.677C190.894 250.384 211.692 259.422 247.933 259.422C284.174 259.422 308.153 244.344 308.153 221.083C308.153 202.192 292.962 190.155 255.926 180.002C243.413 176.447 240.191 174.262 240.191 170.706C240.191 167.708 241.53 165.78 245.506 161.925C276.139 160.554 296.143 140.849 296.143 110.991C296.143 96.4695 291.623 84.6893 282.291 74.5797C284.425 71.2812 284.969 70.7243 288.401 67.9827V67.9827ZM248.686 209.817C266.807 214.743 274.8 221.597 274.8 231.45C274.8 242.116 261.743 248.97 243.079 248.97C227.344 248.97 215.877 242.416 215.877 232.521C215.877 228.965 217.76 225.11 220.397 221.554C224.665 215.514 227.344 213.629 238.266 206.775C242.786 207.889 246.259 209.26 248.644 209.774L248.686 209.817ZM245.506 151.216C234.332 151.216 229.52 140.249 229.52 112.319C229.52 84.3894 234.583 73.423 245.757 73.423C256.93 73.423 261.743 85.2033 261.743 111.206C261.743 139.949 257.223 151.173 245.506 151.173V151.216Z" fill="#009818"/>
<path d="M655.956 6.38257H606.533C604.022 6.38257 602.892 9.59536 604.817 11.266C610.006 15.8068 610.927 19.3194 610.927 27.2015V176.961C610.927 184.371 610.425 188.227 608.709 191.183C608.583 191.354 608.458 191.525 608.332 191.697C605.905 194.567 601.469 196.666 597.326 196.666C588.245 196.666 584.813 191.482 584.813 177.218C584.813 164.067 584.018 159.44 581.34 154.214C578.41 149.031 573.347 145.989 566.944 145.989C555.226 145.989 547.484 154.214 547.484 167.879C547.484 191.44 568.283 207.846 598.121 207.846C620.761 207.846 640.514 198.808 646.623 185.1C649.804 178.803 651.436 170.321 651.436 159.911V27.2015C651.436 19.2766 652.231 15.9353 657.671 11.3089C659.596 9.6382 658.508 6.38257 655.956 6.38257V6.38257Z" fill="#009818"/>
<path d="M777.316 188.484C775.935 189.041 774.429 189.298 772.755 189.298C767.44 189.298 765.557 185.442 765.557 175.59V90.4294C765.557 72.095 753.295 62.2424 730.907 62.2424C699.185 62.2424 669.598 80.5768 669.598 100.839C669.598 109.877 676.796 116.731 686.38 116.731C696.507 116.731 703.956 109.064 704.751 98.3971L705.002 89.9153C705.546 80.0627 710.066 74.5796 717.264 74.5796C724.462 74.5796 727.935 78.949 727.935 89.1014V116.474C727.935 117.631 727.182 118.659 726.136 119.002C723.834 119.73 722.035 120.158 720.737 120.587C688.765 130.439 679.182 134.552 670.352 143.034C661.564 151.515 657.044 162.182 657.044 173.148C657.044 192.596 671.691 207.632 691.694 207.632C700.483 207.632 709.815 204.334 717.557 198.593C719.607 196.923 720.695 196.109 725.424 191.654C726.68 190.497 728.689 190.84 729.442 192.382C731.409 196.409 732.706 198.251 734.882 200.478C739.402 204.848 746.6 207.589 754.593 207.589C766.394 207.589 775.14 202.449 780.455 192.211C781.585 190.026 779.534 187.541 777.275 188.441L777.316 188.484ZM727.977 175.804C727.977 176.532 727.684 177.261 727.14 177.775C719.482 184.8 716.05 186.556 710.401 186.556C700.022 186.556 693.327 178.631 693.327 166.037C693.327 150.53 705.672 136.479 724.546 129.411C726.219 128.769 727.977 130.054 727.977 131.896V175.804V175.804Z" fill="#009818"/>
<path d="M1129.56 184.114V83.3184C1129.56 69.9103 1120.77 61.6855 1106.37 61.6855C1099.72 61.6855 1092.77 63.8702 1082.94 68.7965C1074.98 72.6519 1070.72 75.6505 1063.18 80.7053C1060.34 82.5901 1058.16 83.404 1058.16 78.0494V66.9545C1058.16 64.9412 1056.07 63.6561 1054.35 64.5985C1035.14 74.9651 1027.61 78.2207 1013.8 81.7334C1011.42 82.3331 1011.08 85.5887 1013.22 86.7882C1018.57 89.7868 1020.54 94.5846 1020.54 102.509V183.558C1020.54 191.14 1019.33 195.252 1014.93 199.065C1013.05 200.693 1014.1 203.82 1016.56 203.82H1061.84C1064.27 203.82 1065.32 200.778 1063.52 199.15C1059.38 195.338 1058.12 191.354 1058.12 184.114V96.7693C1058.12 95.9125 1058.54 95.0986 1059.21 94.5846C1069.96 86.7454 1075.65 84.1751 1081.85 84.1751C1089.05 84.1751 1091.98 87.7306 1091.98 97.883V184.157C1091.98 191.354 1090.64 195.338 1086.16 199.108C1084.28 200.693 1085.32 203.862 1087.75 203.862H1133.24C1135.62 203.862 1136.71 200.864 1135 199.236C1130.81 195.252 1129.56 191.054 1129.56 184.157V184.114Z" fill="#009818"/>
<path d="M854.025 62.7996C845.488 62.7996 835.863 66.098 828.916 72.1381C828.288 72.6093 827.619 73.1233 826.907 73.7659C824.94 75.4366 821.969 74.0229 821.969 71.4099V67.683C821.969 65.3698 819.542 63.8705 817.575 64.9414C799.204 74.8368 791.587 78.1353 778.489 81.5623C775.894 82.2477 775.392 85.8032 777.735 87.2168C782.715 90.2583 784.599 94.9704 784.599 102.638V230.55C784.599 236.805 783.803 249.356 780.581 252.783C778.154 255.353 779.619 259.894 783.845 259.465C786.147 259.251 786.942 258.352 788.574 257.152C794.935 252.612 804.686 249.998 804.686 249.998C804.686 249.998 816.822 245.715 822.722 245.372C826.447 245.158 828.037 241.217 825.777 238.647C822.722 235.22 822.011 227.552 822.011 221.212V207.161C822.011 205.019 824.145 203.52 826.07 204.291C832.766 206.947 836.7 207.504 842.559 207.504C870.89 207.504 892.233 173.748 892.233 129.54C892.233 89.7442 877 62.8424 854.025 62.8424V62.7996ZM835.863 195.638C830.925 195.638 827.158 194.01 823.015 190.326C822.346 189.726 821.969 188.87 821.969 187.97V92.0146C821.969 91.2007 822.262 90.4296 822.806 89.8727C827.912 84.5609 831.301 83.1044 836.114 83.1044C850.008 83.1044 856.955 102.338 856.955 141.02C856.955 177.518 850.008 195.638 835.863 195.638Z" fill="#009818"/>
<path d="M1010.83 188.484C1009.45 189.041 1007.94 189.298 1006.27 189.298C1000.95 189.298 999.072 185.442 999.072 175.59V90.4294C999.072 72.095 986.81 62.2424 964.421 62.2424C932.7 62.2424 903.113 80.5768 903.113 100.839C903.113 109.877 910.311 116.731 919.894 116.731C930.022 116.731 937.471 109.064 938.266 98.3971L938.517 89.9153C939.061 80.0627 943.581 74.5796 950.779 74.5796C957.976 74.5796 961.45 78.949 961.45 89.1014V116.474C961.45 117.631 960.697 118.659 959.65 119.002C957.349 119.73 955.549 120.158 954.252 120.587C922.28 130.439 912.696 134.552 903.866 143.034C895.078 151.515 890.559 162.182 890.559 173.148C890.559 192.596 905.206 207.632 925.209 207.632C933.997 207.632 943.33 204.334 951.072 198.593C953.164 196.923 954.21 196.109 958.939 191.654C960.195 190.497 962.203 190.84 962.956 192.382C964.923 196.409 966.221 198.251 968.397 200.478C972.916 204.848 980.114 207.589 988.107 207.589C999.909 207.589 1008.66 202.449 1013.97 192.211C1015.1 190.026 1013.05 187.541 1010.79 188.441L1010.83 188.484ZM961.492 175.804C961.492 176.532 961.199 177.261 960.655 177.775C952.997 184.8 949.565 186.556 943.915 186.556C933.537 186.556 926.841 178.631 926.841 166.037C926.841 150.53 939.187 136.479 958.06 129.411C959.734 128.769 961.492 130.054 961.492 131.896V175.804V175.804Z" fill="#009818"/>
<path d="M366.364 46.5211C383.145 46.5211 390.887 40.2241 390.887 26.2591C390.887 14.7787 382.643 7.11084 369.838 7.11084C353.851 7.11084 345.565 13.6649 345.565 27.1158C345.565 39.1531 353.81 46.564 366.364 46.564V46.5211Z" fill="#009818"/>
<path d="M388.209 183.686V67.3832C388.209 65.2413 385.991 63.8705 384.15 64.8558C365.402 74.9654 357.827 78.2639 344.394 81.6909C341.967 82.3334 341.464 85.7176 343.682 87.0027C348.955 90.0013 350.88 94.7562 350.88 102.595V184.2C350.88 191.054 349.541 195.252 345.482 198.894C343.515 200.65 344.687 203.906 347.281 203.906H391.557C394.068 203.906 395.323 200.693 393.44 198.936C389.423 195.167 388.251 191.054 388.251 183.601L388.209 183.686Z" fill="#009818"/>
<path d="M514.047 184.243V83.49C514.047 70.0819 505.259 61.8572 490.863 61.8572C484.209 61.8572 477.263 64.0419 467.428 68.9682C459.477 72.8235 455.208 75.8221 447.676 80.8769C444.83 82.7618 442.654 83.5757 442.654 78.221V67.1262C442.654 65.1128 440.561 63.8277 438.846 64.7701C419.637 75.1367 412.104 78.3924 398.294 81.905C395.909 82.5048 395.574 85.7604 397.709 86.9598C403.023 89.9584 405.032 94.7562 405.032 102.681V183.729C405.032 191.311 403.818 195.424 399.424 199.236C397.541 200.864 398.587 203.991 401.056 203.991H446.336C448.764 203.991 449.81 200.95 448.01 199.322C443.867 195.509 442.612 191.526 442.612 184.286V96.8981C442.612 96.0413 443.03 95.2274 443.7 94.7134C454.455 86.8742 460.146 84.3039 466.34 84.3039C473.538 84.3039 476.467 87.8594 476.467 98.0118V184.286C476.467 191.483 475.128 195.467 470.65 199.236C468.767 200.821 469.813 203.991 472.241 203.991H517.73C520.115 203.991 521.203 200.993 519.488 199.365C515.303 195.381 514.047 191.183 514.047 184.286V184.243Z" fill="#009818"/>
<path d="M1154.41 193.881L1149.98 185.871H1147.51V197.351H1149.68V189.212L1154.25 197.351H1156.55V185.871H1154.41V193.881Z" fill="#009818"/>
<path d="M1165.59 197.351V193.024L1169.31 185.871H1166.67L1164.46 190.883L1162.11 185.871H1159.39L1163.24 193.024V197.351H1165.59Z" fill="#009818"/>
<path d="M1163.79 179.06C1161.61 179.06 1159.44 179.659 1157.55 180.773L1158.72 182.872C1160.23 181.973 1161.99 181.458 1163.79 181.458C1169.23 181.458 1173.66 185.956 1173.66 191.44C1173.66 196.923 1169.23 201.421 1163.79 201.421C1161.74 201.421 1159.77 200.778 1158.1 199.579L1156.76 201.549C1158.81 203.006 1161.23 203.82 1163.79 203.82C1170.52 203.82 1176.01 198.251 1176.01 191.44C1176.01 184.628 1170.52 179.06 1163.79 179.06V179.06Z" fill="#009818"/>
<path d="M119.208 102.21C118.371 101.696 117.534 101.224 116.697 100.796C116.446 100.668 116.194 100.539 115.943 100.411C115.357 100.111 114.772 99.8108 114.228 99.511C113.976 99.3825 113.725 99.254 113.474 99.1254C112.805 98.7827 112.177 98.4829 111.549 98.183C111.466 98.1402 111.34 98.0974 111.214 98.0545C110.503 97.7547 109.875 97.4548 109.206 97.1549C108.913 97.0264 108.662 96.9407 108.369 96.8122C108.034 96.6837 107.699 96.5124 107.364 96.3839C107.071 96.2554 106.737 96.1268 106.444 96.0412C106.234 95.9555 106.025 95.8698 105.858 95.827C104.393 95.2701 103.18 94.8846 102.343 94.6275C101.966 94.499 101.966 93.9421 102.343 93.8136C103.263 93.4709 104.602 92.9997 106.193 92.3572H106.276C106.862 92.1001 107.448 91.8431 108.076 91.5433C108.662 91.2862 109.248 90.9864 109.875 90.7293L110.085 90.6437C110.67 90.3438 111.256 90.0868 111.842 89.7441L112.219 89.5727C112.805 89.2729 113.432 88.9302 114.018 88.5875L114.144 88.5018C114.688 88.2019 116.864 86.874 119.417 84.7321C129 77.3213 134.608 65.027 134.608 52.4328C134.608 40.6526 129.544 28.0584 122.095 21.5043C108.034 8.56746 89.9136 3.89819 52.3336 3.89819C41.1182 3.89819 23.2908 5.01196 12.0754 5.82587C10.8618 5.91155 9.39707 6.04006 7.72313 6.16857C4.79374 6.38276 3.53828 10.0668 5.67256 12.1229C9.64816 15.8498 10.7362 20.1335 10.7362 27.2017V183.815C10.7362 190.412 9.73186 194.567 6.17474 198.08C4.04047 200.179 5.29592 203.863 8.22532 204.034L26.1783 204.891C41.6204 206.004 56.0163 206.518 62.4191 206.518C98.9528 206.518 120.254 198.594 133.059 180.516C139.462 170.921 143.187 158.883 143.187 147.36C143.187 127.655 134.399 111.505 119.208 102.167V102.21ZM51.2456 20.0478C51.2456 18.3344 52.501 16.8779 54.175 16.6637C58.0669 16.1497 60.2011 15.9783 63.2561 15.9783C83.5107 15.9783 93.8892 28.8295 93.8892 53.7608C93.8892 66.8261 91.0016 76.3789 85.2684 82.2476C84.8499 82.6759 84.3896 83.0615 83.9292 83.4898C83.72 83.6612 83.5526 83.8325 83.3433 84.0039C82.9249 84.3466 82.4645 84.6465 82.046 84.9463C81.795 85.1177 81.502 85.3318 81.2091 85.5032C80.7906 85.7602 80.3303 86.0172 79.9118 86.2743C79.577 86.4456 79.2422 86.617 78.9074 86.7883C78.4889 87.0025 78.0286 87.1738 77.5683 87.3452C77.1498 87.5165 76.7731 87.6451 76.3546 87.7736C75.9362 87.9021 75.4758 88.0734 75.0155 88.2019C74.5133 88.3305 74.0111 88.459 73.5508 88.5446C73.1323 88.6303 72.7138 88.716 72.2953 88.8017C71.6676 88.8873 71.0399 88.973 70.4122 89.0587C70.0355 89.0587 69.7007 89.1444 69.3241 89.1872C68.3197 89.2729 67.2317 89.3157 66.1855 89.3157H54.5934C52.7521 89.3157 51.2874 87.7736 51.2874 85.8887V20.0478H51.2456ZM67.7757 194.781C63.5072 194.781 60.5359 194.139 53.9657 192.853C52.4173 192.554 51.2456 191.14 51.2456 189.512V104.266C51.2456 102.381 52.7521 100.839 54.5516 100.839H66.4366C67.5665 100.839 68.6545 100.839 69.7007 100.925C70.0774 100.925 70.454 100.967 70.8307 101.01C71.4584 101.01 72.0861 101.096 72.672 101.139C73.1323 101.139 73.5927 101.224 74.0111 101.31C74.4715 101.353 74.9318 101.439 75.3503 101.482C75.8525 101.567 76.3128 101.653 76.7731 101.739C77.1079 101.824 77.4427 101.867 77.7775 101.953C78.2797 102.081 78.7819 102.167 79.284 102.338C79.4933 102.381 79.6607 102.467 79.8699 102.51C81.795 103.109 83.5526 103.838 85.1428 104.78C85.938 105.251 86.7331 105.765 87.4863 106.365C96.2745 113.776 102.133 129.369 102.133 146.632C102.133 178.674 90.6668 194.824 67.7339 194.824L67.7757 194.781Z" fill="#009818"/>
</svg>
