<svg width="161" height="16" viewBox="0 0 161 16" fill="none" xmlns="http://www.w3.org/2000/svg">
<path d="M10.088 7.21875C10.616 6.31675 10.77 5.81075 10.77 4.97475C10.77 2.81875 9.406 1.05875 7.382 0.574753C6.788 0.442753 6.26 0.398753 4.698 0.398753H2.63C1.2 0.398753 0.166 1.43275 0.144 2.88475V3.58875V11.9048C0.144 12.8508 0.166 13.0268 0.188 13.2028C0.276 13.5988 0.496 14.0388 0.782 14.3468C1.31 14.9188 1.794 15.0728 2.85 15.0728H6.7C8.592 15.0728 9.274 14.8748 10.22 13.9948C11.188 13.1148 11.694 11.9928 11.694 10.7168C11.694 9.30875 11.254 8.34075 10.088 7.21875ZM4.962 4.95275H5.49C6.172 4.95275 6.436 5.10675 6.436 5.52475C6.436 5.92075 6.216 6.07475 5.534 6.07475H4.962V4.95275ZM4.962 9.37475H5.754C6.524 9.37475 6.832 9.55075 6.832 9.99075C6.832 10.4308 6.612 10.5628 5.776 10.5628H4.962V9.37475ZM18.7606 3.30275C18.7606 2.11475 18.6066 1.60875 18.1226 1.05875C17.6826 0.574753 17.0226 0.288753 16.3186 0.288753C15.6146 0.288753 14.9766 0.574753 14.5366 1.08075C14.0306 1.63075 13.9206 2.07075 13.9206 3.30275V12.3888C13.9206 13.4008 14.0746 13.9068 14.5366 14.4128C14.9546 14.8748 15.6806 15.1828 16.3406 15.1828C16.9786 15.1828 17.6826 14.8748 18.1446 14.3688C18.5846 13.8848 18.7606 13.3128 18.7606 12.3888V3.30275ZM30.25 10.0348C29.546 10.4528 29.194 10.5848 28.578 10.5848C26.994 10.5848 25.696 9.28675 25.696 7.70275C25.696 6.16275 26.994 4.82075 28.49 4.82075C28.974 4.82075 29.502 4.97475 30.03 5.21675L31.108 5.78875C31.24 5.85475 31.526 5.89875 31.746 5.89875C33.088 5.89875 34.21 4.79875 34.21 3.47875C34.21 2.59875 33.704 1.85075 32.692 1.21275C31.46 0.464753 30.008 0.0467533 28.578 0.0467533C24.31 0.0467533 20.834 3.47875 20.834 7.72475C20.834 11.9928 24.31 15.4468 28.6 15.4468C29.81 15.4468 30.976 15.1608 32.076 14.5888C33.352 13.9288 34.254 13.0488 34.496 12.2788C34.606 11.9268 34.606 11.8828 34.65 10.6728L34.672 9.41875C34.694 8.47275 34.496 7.81275 34.056 7.28475C33.572 6.71275 33.11 6.58075 31.416 6.53675L29.832 6.51475C28.292 6.49275 27.478 7.10875 27.478 8.27475C27.478 9.37475 28.248 10.0348 29.546 10.0348H30.25ZM43.6114 4.51275C41.8294 4.51275 40.3774 5.96475 40.3774 7.74675C40.3774 9.52875 41.8294 11.0028 43.6114 11.0028C45.4154 11.0028 46.8674 9.52875 46.8674 7.74675C46.8674 5.96475 45.4154 4.51275 43.6114 4.51275ZM57.8167 3.30275C57.8167 2.11475 57.6627 1.60875 57.1787 1.05875C56.7387 0.574753 56.0787 0.288753 55.3747 0.288753C54.6707 0.288753 54.0327 0.574753 53.5927 1.08075C53.0867 1.63075 52.9767 2.07075 52.9767 3.30275V12.3888C52.9767 13.4008 53.1307 13.9068 53.5927 14.4128C54.0107 14.8748 54.7367 15.1828 55.3967 15.1828C56.0347 15.1828 56.7387 14.8748 57.2007 14.3688C57.6407 13.8848 57.8167 13.3128 57.8167 12.3888V3.30275ZM68.492 5.98675L64.642 1.25675C64.092 0.574753 63.542 0.288753 62.838 0.288753C61.32 0.288753 60.308 1.32275 60.308 2.88475V12.1688C60.308 13.2468 60.418 13.6868 60.814 14.2368C61.276 14.8308 62.002 15.1828 62.75 15.1828C63.476 15.1828 64.158 14.8528 64.62 14.3028C65.038 13.7748 65.17 13.3348 65.17 12.3668V9.28675L68.998 14.1928C69.504 14.8528 70.142 15.1828 70.912 15.1828C71.66 15.1828 72.364 14.8528 72.804 14.2808C73.222 13.7308 73.332 13.2468 73.332 12.0808V3.10475C73.332 2.20275 73.178 1.69675 72.76 1.16875C72.298 0.618754 71.638 0.288753 70.912 0.288753C70.12 0.288753 69.35 0.706753 68.932 1.34475C68.58 1.85075 68.492 2.29075 68.492 3.25875V5.98675ZM82.7103 4.51275C80.9283 4.51275 79.4763 5.96475 79.4763 7.74675C79.4763 9.52875 80.9283 11.0028 82.7103 11.0028C84.5143 11.0028 85.9663 9.52875 85.9663 7.74675C85.9663 5.96475 84.5143 4.51275 82.7103 4.51275ZM98.0376 8.91275C98.0376 9.66075 98.0376 9.81475 97.9716 9.99075C97.8176 10.3428 97.5096 10.5628 97.1136 10.5628C96.5636 10.5628 96.1896 10.1448 96.2116 9.48475V8.67075C96.2556 7.10875 95.2436 6.03075 93.7476 6.03075C93.0656 6.03075 92.4716 6.29475 92.0536 6.80075C91.5256 7.39475 91.3276 8.09875 91.3276 9.41875C91.3276 11.1568 91.8116 12.4548 92.8456 13.5768C93.9456 14.7648 95.4856 15.4468 97.1136 15.4468C99.0276 15.4468 100.832 14.4788 101.91 12.8728C102.68 11.7288 102.9 10.8268 102.9 8.60475V3.52275C102.9 2.18075 102.834 1.89475 102.504 1.36675C102.086 0.706753 101.294 0.288753 100.48 0.288753C99.7096 0.288753 98.9176 0.684753 98.4996 1.30075C98.1036 1.85075 98.0376 2.15875 98.0376 3.52275V8.91275ZM109.409 13.1588H113.897C114.579 14.6548 115.239 15.1828 116.361 15.1828C117.703 15.1828 118.803 14.1048 118.803 12.7848C118.803 12.4108 118.715 11.9928 118.517 11.6188L113.897 1.76275C113.457 0.838754 112.621 0.288753 111.631 0.288753C110.663 0.288753 109.827 0.838754 109.409 1.74075L104.811 11.4868C104.613 11.9048 104.503 12.3448 104.503 12.7628C104.503 14.1268 105.559 15.1828 106.901 15.1828C108.067 15.1828 108.793 14.5888 109.409 13.1588ZM110.883 9.66075L111.631 7.90075L112.379 9.66075H110.883ZM125.415 10.9588H126.229C127.659 10.9588 128.649 10.6508 129.639 9.90275C130.981 8.89075 131.773 7.32875 131.773 5.70075C131.773 4.07275 131.003 2.51075 129.705 1.52075C128.583 0.662753 127.571 0.398753 125.217 0.398753H123.193C122.291 0.398753 121.719 0.618754 121.213 1.12475C120.707 1.65275 120.553 2.13675 120.553 3.19275V11.7728C120.553 13.2468 120.597 13.4888 120.971 14.0828C121.411 14.7648 122.181 15.1828 122.995 15.1828C124.447 15.1828 125.415 14.0608 125.415 12.3888V10.9588ZM125.415 4.88675C125.569 4.88675 125.767 4.88675 125.855 4.88675C126.581 4.88675 127.021 5.17275 127.021 5.65675C127.021 6.31675 126.581 6.53675 125.415 6.47075V4.88675ZM136.683 13.1588H141.171C141.853 14.6548 142.513 15.1828 143.635 15.1828C144.977 15.1828 146.077 14.1048 146.077 12.7848C146.077 12.4108 145.989 11.9928 145.791 11.6188L141.171 1.76275C140.731 0.838754 139.895 0.288753 138.905 0.288753C137.937 0.288753 137.101 0.838754 136.683 1.74075L132.085 11.4868C131.887 11.9048 131.777 12.3448 131.777 12.7628C131.777 14.1268 132.833 15.1828 134.175 15.1828C135.341 15.1828 136.067 14.5888 136.683 13.1588ZM138.157 9.66075L138.905 7.90075L139.653 9.66075H138.157ZM156.011 5.98675L152.161 1.25675C151.611 0.574753 151.061 0.288753 150.357 0.288753C148.839 0.288753 147.827 1.32275 147.827 2.88475V12.1688C147.827 13.2468 147.937 13.6868 148.333 14.2368C148.795 14.8308 149.521 15.1828 150.269 15.1828C150.995 15.1828 151.677 14.8528 152.139 14.3028C152.557 13.7748 152.689 13.3348 152.689 12.3668V9.28675L156.517 14.1928C157.023 14.8528 157.661 15.1828 158.431 15.1828C159.179 15.1828 159.883 14.8528 160.323 14.2808C160.741 13.7308 160.851 13.2468 160.851 12.0808V3.10475C160.851 2.20275 160.697 1.69675 160.279 1.16875C159.817 0.618754 159.157 0.288753 158.431 0.288753C157.639 0.288753 156.869 0.706753 156.451 1.34475C156.099 1.85075 156.011 2.29075 156.011 3.25875V5.98675Z" fill="black"/>
</svg>
