<svg width="375" height="246" viewBox="0 0 375 246" fill="none" xmlns="http://www.w3.org/2000/svg">
<rect width="375" height="246" fill="#F6ED08"/>
<path d="M19.7515 0H0V19.7719H19.7515V0Z" fill="#E8E8E8"/>
<path d="M59.2544 0H39.5029V19.7719H59.2544V0Z" fill="#E8E8E8"/>
<path d="M98.7466 0H78.9951V19.7719H98.7466V0Z" fill="#E8E8E8"/>
<path d="M138.25 0H118.498V19.7719H138.25V0Z" fill="#E8E8E8"/>
<path d="M177.743 0H157.991V19.7719H177.743V0Z" fill="#E8E8E8"/>
<path d="M217.246 0H197.494V19.7719H217.246V0Z" fill="#E8E8E8"/>
<path d="M256.749 0H236.997V19.7719H256.749V0Z" fill="#E8E8E8"/>
<path d="M296.241 0H276.489V19.7719H296.241V0Z" fill="#E8E8E8"/>
<path d="M335.744 0H315.992V19.7719H335.744V0Z" fill="#E8E8E8"/>
<path d="M375.247 0H355.495V19.7719H375.247V0Z" fill="#E8E8E8"/>
<path d="M39.5034 19.772H19.752V39.5439H39.5034V19.772Z" fill="#E8E8E8"/>
<path d="M78.9956 19.772H59.2441V39.5439H78.9956V19.772Z" fill="#E8E8E8"/>
<path d="M118.499 19.772H98.7471V39.5439H118.499V19.772Z" fill="#E8E8E8"/>
<path d="M158.001 19.772H138.25V39.5439H158.001V19.772Z" fill="#E8E8E8"/>
<path d="M197.494 19.772H177.742V39.5439H197.494V19.772Z" fill="#E8E8E8"/>
<path d="M236.997 19.772H217.245V39.5439H236.997V19.772Z" fill="#E8E8E8"/>
<path d="M276.49 19.772H256.738V39.5439H276.49V19.772Z" fill="#E8E8E8"/>
<path d="M315.993 19.772H296.241V39.5439H315.993V19.772Z" fill="#E8E8E8"/>
<path d="M355.496 19.772H335.744V39.5439H355.496V19.772Z" fill="#E8E8E8"/>
<path d="M19.7515 39.5439H0V59.3158H19.7515V39.5439Z" fill="#E8E8E8"/>
<path d="M59.2544 39.5439H39.5029V59.3158H59.2544V39.5439Z" fill="#E8E8E8"/>
<path d="M98.7466 39.5439H78.9951V59.3158H98.7466V39.5439Z" fill="#E8E8E8"/>
<path d="M138.25 39.5439H118.498V59.3158H138.25V39.5439Z" fill="#E8E8E8"/>
<path d="M177.743 39.5439H157.991V59.3158H177.743V39.5439Z" fill="#E8E8E8"/>
<path d="M217.246 39.5439H197.494V59.3158H217.246V39.5439Z" fill="#E8E8E8"/>
<path d="M256.749 39.5439H236.997V59.3158H256.749V39.5439Z" fill="#E8E8E8"/>
<path d="M296.241 39.5439H276.489V59.3158H296.241V39.5439Z" fill="#E8E8E8"/>
<path d="M335.744 39.5439H315.992V59.3158H335.744V39.5439Z" fill="#E8E8E8"/>
<path d="M375.247 39.5439H355.495V59.3158H375.247V39.5439Z" fill="#E8E8E8"/>
<path d="M39.5034 59.3057H19.752V79.0776H39.5034V59.3057Z" fill="#E8E8E8"/>
<path d="M78.9956 59.3057H59.2441V79.0776H78.9956V59.3057Z" fill="#E8E8E8"/>
<path d="M118.499 59.3057H98.7471V79.0776H118.499V59.3057Z" fill="#E8E8E8"/>
<path d="M158.001 59.3057H138.25V79.0776H158.001V59.3057Z" fill="#E8E8E8"/>
<path d="M197.494 59.3057H177.742V79.0776H197.494V59.3057Z" fill="#E8E8E8"/>
<path d="M236.997 59.3057H217.245V79.0776H236.997V59.3057Z" fill="#E8E8E8"/>
<path d="M276.49 59.3057H256.738V79.0776H276.49V59.3057Z" fill="#E8E8E8"/>
<path d="M315.993 59.3057H296.241V79.0776H315.993V59.3057Z" fill="#E8E8E8"/>
<path d="M355.496 59.3057H335.744V79.0776H355.496V59.3057Z" fill="#E8E8E8"/>
<path d="M19.7515 79.2217H0V98.9936H19.7515V79.2217Z" fill="#E8E8E8"/>
<path d="M59.2544 79.2217H39.5029V98.9936H59.2544V79.2217Z" fill="#E8E8E8"/>
<path d="M98.7466 79.2217H78.9951V98.9936H98.7466V79.2217Z" fill="#E8E8E8"/>
<path d="M138.25 79.2217H118.498V98.9936H138.25V79.2217Z" fill="#E8E8E8"/>
<path d="M177.743 79.2217H157.991V98.9936H177.743V79.2217Z" fill="#E8E8E8"/>
<path d="M217.246 79.2217H197.494V98.9936H217.246V79.2217Z" fill="#E8E8E8"/>
<path d="M256.749 79.2217H236.997V98.9936H256.749V79.2217Z" fill="#E8E8E8"/>
<path d="M296.241 79.2217H276.489V98.9936H296.241V79.2217Z" fill="#E8E8E8"/>
<path d="M335.744 79.2217H315.992V98.9936H335.744V79.2217Z" fill="#E8E8E8"/>
<path d="M375.247 79.2217H355.495V98.9936H375.247V79.2217Z" fill="#E8E8E8"/>
<path d="M39.5034 98.9937H19.752V118.766H39.5034V98.9937Z" fill="#E8E8E8"/>
<path d="M78.9956 98.9937H59.2441V118.766H78.9956V98.9937Z" fill="#E8E8E8"/>
<path d="M118.499 98.9937H98.7471V118.766H118.499V98.9937Z" fill="#E8E8E8"/>
<path d="M158.001 98.9937H138.25V118.766H158.001V98.9937Z" fill="#E8E8E8"/>
<path d="M197.494 98.9937H177.742V118.766H197.494V98.9937Z" fill="#E8E8E8"/>
<path d="M236.997 98.9937H217.245V118.766H236.997V98.9937Z" fill="#E8E8E8"/>
<path d="M276.49 98.9937H256.738V118.766H276.49V98.9937Z" fill="#E8E8E8"/>
<path d="M315.993 98.9937H296.241V118.766H315.993V98.9937Z" fill="#E8E8E8"/>
<path d="M355.496 98.9937H335.744V118.766H355.496V98.9937Z" fill="#E8E8E8"/>
<path d="M19.7515 118.765H0V138.537H19.7515V118.765Z" fill="#E8E8E8"/>
<path d="M59.2544 118.765H39.5029V138.537H59.2544V118.765Z" fill="#E8E8E8"/>
<path d="M98.7466 118.765H78.9951V138.537H98.7466V118.765Z" fill="#E8E8E8"/>
<path d="M138.25 118.765H118.498V138.537H138.25V118.765Z" fill="#E8E8E8"/>
<path d="M177.743 118.765H157.991V138.537H177.743V118.765Z" fill="#E8E8E8"/>
<path d="M217.246 118.765H197.494V138.537H217.246V118.765Z" fill="#E8E8E8"/>
<path d="M256.749 118.765H236.997V138.537H256.749V118.765Z" fill="#E8E8E8"/>
<path d="M296.241 118.765H276.489V138.537H296.241V118.765Z" fill="#E8E8E8"/>
<path d="M335.744 118.765H315.992V138.537H335.744V118.765Z" fill="#E8E8E8"/>
<path d="M375.247 118.765H355.495V138.537H375.247V118.765Z" fill="#E8E8E8"/>
<path d="M39.5034 138.537H19.752V158.309H39.5034V138.537Z" fill="#E8E8E8"/>
<path d="M78.9956 138.537H59.2441V158.309H78.9956V138.537Z" fill="#E8E8E8"/>
<path d="M118.499 138.537H98.7471V158.309H118.499V138.537Z" fill="#E8E8E8"/>
<path d="M158.001 138.537H138.25V158.309H158.001V138.537Z" fill="#E8E8E8"/>
<path d="M197.494 138.537H177.742V158.309H197.494V138.537Z" fill="#E8E8E8"/>
<path d="M236.997 138.537H217.245V158.309H236.997V138.537Z" fill="#E8E8E8"/>
<path d="M276.49 138.537H256.738V158.309H276.49V138.537Z" fill="#E8E8E8"/>
<path d="M315.993 138.537H296.241V158.309H315.993V138.537Z" fill="#E8E8E8"/>
<path d="M355.496 138.537H335.744V158.309H355.496V138.537Z" fill="#E8E8E8"/>
<path d="M19.7515 158.618H0V178.39H19.7515V158.618Z" fill="#E8E8E8"/>
<path d="M59.2544 158.618H39.5029V178.39H59.2544V158.618Z" fill="#E8E8E8"/>
<path d="M98.7466 158.618H78.9951V178.39H98.7466V158.618Z" fill="#E8E8E8"/>
<path d="M138.25 158.618H118.498V178.39H138.25V158.618Z" fill="#E8E8E8"/>
<path d="M177.743 158.618H157.991V178.39H177.743V158.618Z" fill="#E8E8E8"/>
<path d="M217.246 158.618H197.494V178.39H217.246V158.618Z" fill="#E8E8E8"/>
<path d="M256.749 158.618H236.997V178.39H256.749V158.618Z" fill="#E8E8E8"/>
<path d="M296.241 158.618H276.489V178.39H296.241V158.618Z" fill="#E8E8E8"/>
<path d="M335.744 158.618H315.992V178.39H335.744V158.618Z" fill="#E8E8E8"/>
<path d="M375.247 158.618H355.495V178.39H375.247V158.618Z" fill="#E8E8E8"/>
<path d="M39.5034 178.39H19.752V198.162H39.5034V178.39Z" fill="#E8E8E8"/>
<path d="M78.9956 178.39H59.2441V198.162H78.9956V178.39Z" fill="#E8E8E8"/>
<path d="M118.499 178.39H98.7471V198.162H118.499V178.39Z" fill="#E8E8E8"/>
<path d="M158.001 178.39H138.25V198.162H158.001V178.39Z" fill="#E8E8E8"/>
<path d="M197.494 178.39H177.742V198.162H197.494V178.39Z" fill="#E8E8E8"/>
<path d="M236.997 178.39H217.245V198.162H236.997V178.39Z" fill="#E8E8E8"/>
<path d="M276.49 178.39H256.738V198.162H276.49V178.39Z" fill="#E8E8E8"/>
<path d="M315.993 178.39H296.241V198.162H315.993V178.39Z" fill="#E8E8E8"/>
<path d="M355.496 178.39H335.744V198.162H355.496V178.39Z" fill="#E8E8E8"/>
<path d="M19.7515 198.162H0V217.934H19.7515V198.162Z" fill="#E8E8E8"/>
<path d="M59.2544 198.162H39.5029V217.934H59.2544V198.162Z" fill="#E8E8E8"/>
<path d="M98.7466 198.162H78.9951V217.934H98.7466V198.162Z" fill="#E8E8E8"/>
<path d="M138.25 198.162H118.498V217.934H138.25V198.162Z" fill="#E8E8E8"/>
<path d="M177.743 198.162H157.991V217.934H177.743V198.162Z" fill="#E8E8E8"/>
<path d="M217.246 198.162H197.494V217.934H217.246V198.162Z" fill="#E8E8E8"/>
<path d="M256.749 198.162H236.997V217.934H256.749V198.162Z" fill="#E8E8E8"/>
<path d="M296.241 198.162H276.489V217.934H296.241V198.162Z" fill="#E8E8E8"/>
<path d="M335.744 198.162H315.992V217.934H335.744V198.162Z" fill="#E8E8E8"/>
<path d="M375.247 198.162H355.495V217.934H375.247V198.162Z" fill="#E8E8E8"/>
<path d="M39.5034 217.934H19.752V237.706H39.5034V217.934Z" fill="#E8E8E8"/>
<path d="M78.9956 217.934H59.2441V237.706H78.9956V217.934Z" fill="#E8E8E8"/>
<path d="M118.499 217.934H98.7471V237.706H118.499V217.934Z" fill="#E8E8E8"/>
<path d="M158.001 217.934H138.25V237.706H158.001V217.934Z" fill="#E8E8E8"/>
<path d="M197.494 217.934H177.742V237.706H197.494V217.934Z" fill="#E8E8E8"/>
<path d="M236.997 217.934H217.245V237.706H236.997V217.934Z" fill="#E8E8E8"/>
<path d="M276.49 217.934H256.738V237.706H276.49V217.934Z" fill="#E8E8E8"/>
<path d="M315.993 217.934H296.241V237.706H315.993V217.934Z" fill="#E8E8E8"/>
<path d="M355.496 217.934H335.744V237.706H355.496V217.934Z" fill="#E8E8E8"/>
<path d="M19.7515 237.84H0V257.612H19.7515V237.84Z" fill="#E8E8E8"/>
<path d="M59.2544 237.84H39.5029V257.612H59.2544V237.84Z" fill="#E8E8E8"/>
<path d="M98.7466 237.84H78.9951V257.612H98.7466V237.84Z" fill="#E8E8E8"/>
<path d="M138.25 237.84H118.498V257.612H138.25V237.84Z" fill="#E8E8E8"/>
<path d="M177.743 237.84H157.991V257.612H177.743V237.84Z" fill="#E8E8E8"/>
<path d="M217.246 237.84H197.494V257.612H217.246V237.84Z" fill="#E8E8E8"/>
<path d="M256.749 237.84H236.997V257.612H256.749V237.84Z" fill="#E8E8E8"/>
<path d="M296.241 237.84H276.489V257.612H296.241V237.84Z" fill="#E8E8E8"/>
<path d="M335.744 237.84H315.992V257.612H335.744V237.84Z" fill="#E8E8E8"/>
<path d="M375.247 237.84H355.495V257.612H375.247V237.84Z" fill="#E8E8E8"/>
</svg>
