<svg width="158" height="158" viewBox="0 0 158 158" fill="none" xmlns="http://www.w3.org/2000/svg">
<circle cx="79" cy="79" r="77.5" fill="white" stroke="black" stroke-width="3"/>
<path d="M59.189 67.18V65.04C59.189 64.24 59.029 63.74 58.609 63.3C58.209 62.84 57.589 62.56 56.949 62.56C55.629 62.56 54.749 63.56 54.749 65.02V73.58C54.749 75.12 55.609 76.1 56.989 76.1C58.309 76.1 59.189 75.1 59.189 73.56V71.26L62.489 75.44C62.809 75.84 63.409 76.1 64.029 76.1C65.229 76.1 66.229 75.08 66.229 73.86C66.229 73.4 66.089 73 65.809 72.66L63.089 69.18L65.329 65.92C65.549 65.6 65.669 65.18 65.669 64.76C65.669 63.58 64.649 62.56 63.449 62.56C62.709 62.56 62.069 62.92 61.629 63.58L59.189 67.18ZM71.9805 71.88V70.88H73.5605C74.2605 70.88 74.5805 70.8 74.9205 70.54C75.2805 70.24 75.5005 69.78 75.5005 69.28C75.5005 68.34 74.8005 67.7 73.7205 67.7H71.9805V66.78H74.1805C75.0005 66.78 75.4605 66.64 75.8605 66.3C76.3205 65.92 76.5805 65.32 76.5805 64.68C76.5805 63.76 75.9805 63 75.0605 62.76C74.7605 62.68 74.6405 62.66 73.3805 62.66H70.7405C69.4405 62.66 69.3405 62.68 68.8405 62.88C68.3805 63.08 67.9605 63.48 67.7805 63.98C67.6005 64.4 67.5805 64.54 67.5805 65.66V72.9C67.5805 73.82 67.6005 73.94 67.6605 74.22C67.8005 75 68.2405 75.54 68.9205 75.82C69.3005 75.96 69.5805 76 70.6005 76H74.0205C75.0205 76 75.4005 75.9 75.8405 75.54C76.2805 75.16 76.5605 74.56 76.5605 73.94C76.5605 73.34 76.3005 72.78 75.8405 72.38C75.3805 72 74.9605 71.88 74.0005 71.88H71.9805ZM82.5079 71.88V70.88H84.0879C84.7879 70.88 85.1079 70.8 85.4479 70.54C85.8079 70.24 86.0279 69.78 86.0279 69.28C86.0279 68.34 85.3279 67.7 84.2479 67.7H82.5079V66.78H84.7079C85.5279 66.78 85.9879 66.64 86.3879 66.3C86.8479 65.92 87.1079 65.32 87.1079 64.68C87.1079 63.76 86.5079 63 85.5879 62.76C85.2879 62.68 85.1679 62.66 83.9079 62.66H81.2679C79.9679 62.66 79.8679 62.68 79.3679 62.88C78.9079 63.08 78.4879 63.48 78.3079 63.98C78.1279 64.4 78.1079 64.54 78.1079 65.66V72.9C78.1079 73.82 78.1279 73.94 78.1879 74.22C78.3279 75 78.7679 75.54 79.4479 75.82C79.8279 75.96 80.1079 76 81.1279 76H84.5479C85.5479 76 85.9279 75.9 86.3679 75.54C86.8079 75.16 87.0879 74.56 87.0879 73.94C87.0879 73.34 86.8279 72.78 86.3679 72.38C85.9079 72 85.4879 71.88 84.5279 71.88H82.5079ZM93.0752 72.26H93.8152C95.1152 72.26 96.0152 71.98 96.9152 71.3C98.1352 70.38 98.8552 68.96 98.8552 67.48C98.8552 66 98.1552 64.58 96.9752 63.68C95.9552 62.9 95.0352 62.66 92.8952 62.66H91.0552C90.2352 62.66 89.7152 62.86 89.2552 63.32C88.7952 63.8 88.6552 64.24 88.6552 65.2V73C88.6552 74.34 88.6952 74.56 89.0352 75.1C89.4352 75.72 90.1352 76.1 90.8752 76.1C92.1952 76.1 93.0752 75.08 93.0752 73.56V72.26ZM93.0752 66.74C93.2152 66.74 93.3952 66.74 93.4752 66.74C94.1352 66.74 94.5352 67 94.5352 67.44C94.5352 68.04 94.1352 68.24 93.0752 68.18V66.74ZM31.1663 96.34C32.8063 96.34 34.0063 95.9 34.9063 95C35.7063 94.18 36.1663 93.02 36.1663 91.82C36.1663 90.56 35.6463 89.36 34.8263 88.68C34.2063 88.16 33.1263 87.62 31.9863 87.28C30.9463 86.94 30.6663 86.76 30.6663 86.36C30.6663 86.08 30.9063 85.84 31.1863 85.84C31.4263 85.84 31.6463 85.94 32.1063 86.32C32.8463 86.88 33.3263 87.08 33.9263 87.08C34.9263 87.08 35.6463 86.32 35.6463 85.26C35.6463 83.62 33.7663 82.34 31.3663 82.34C28.4663 82.34 26.4663 84.12 26.4663 86.72C26.4663 88.58 27.4263 89.84 29.3663 90.52C29.7263 90.66 30.0863 90.78 30.4463 90.9C31.1463 91.16 31.2063 91.2 31.3263 91.28C31.5663 91.44 31.6663 91.6 31.6663 91.84C31.6663 92.18 31.4463 92.42 31.1063 92.42C30.7863 92.42 30.6663 92.34 29.7063 91.6C29.1463 91.14 28.6863 90.96 28.1463 90.96C27.0263 90.96 26.1463 91.84 26.1463 92.96C26.1463 94.86 28.3263 96.34 31.1663 96.34ZM50.5954 92.12C50.5954 90.98 49.5554 89.96 48.3954 89.96C47.8354 89.96 47.2354 90.22 46.8754 90.6L46.4154 91.08C45.8954 91.64 45.1754 91.96 44.4554 91.96C43.0154 91.96 41.8554 90.8 41.8554 89.36C41.8554 87.9 43.0154 86.76 44.4754 86.76C45.1954 86.76 45.8954 87.04 46.3754 87.56L47.0154 88.26C47.3154 88.58 47.8754 88.8 48.3954 88.8C49.6154 88.8 50.5954 87.8 50.5954 86.6C50.5954 85.72 50.0554 84.82 48.9754 83.96C47.6954 82.9 46.1354 82.34 44.5154 82.34C40.6154 82.34 37.4354 85.48 37.4354 89.36C37.4354 93.22 40.5954 96.34 44.4954 96.34C46.1954 96.34 47.8554 95.7 49.1554 94.58C50.0954 93.76 50.5954 92.92 50.5954 92.12ZM60.9118 90.86C61.9318 89.72 62.3318 88.74 62.3318 87.46C62.3318 85.3 60.8918 83.44 58.8318 82.86C58.2518 82.72 57.7718 82.66 56.6918 82.66H54.8518C53.7918 82.66 53.3518 82.8 52.8518 83.24C52.3318 83.7 52.1318 84.24 52.1318 85.2V93.42C52.1318 94.26 52.2918 94.84 52.6518 95.3C53.0518 95.8 53.7118 96.1 54.3718 96.1C55.5918 96.1 56.5318 95.14 56.5318 93.88V92.06L58.3518 95.08C58.7518 95.74 59.3918 96.1 60.1718 96.1C61.4118 96.1 62.3718 95.16 62.3718 93.94C62.3718 93.48 62.2318 92.96 61.9518 92.52L60.9118 90.86ZM56.5318 86.74C56.7318 86.76 56.8918 86.76 56.9918 86.76C57.6518 86.74 58.0118 87 58.0118 87.48C58.0118 87.96 57.6718 88.2 57.0118 88.18C56.9318 88.18 56.8318 88.18 56.7118 88.18H56.5318V86.74ZM63.783 89.26C63.783 93.2 66.903 96.34 70.823 96.34C74.683 96.34 77.843 93.18 77.843 89.32C77.843 85.46 74.703 82.34 70.803 82.34C66.903 82.34 63.783 85.42 63.783 89.26ZM68.203 89.32C68.203 87.9 69.383 86.76 70.823 86.76C72.263 86.76 73.443 87.92 73.443 89.34C73.443 90.78 72.263 91.98 70.823 91.98C69.383 91.98 68.203 90.78 68.203 89.32ZM83.9341 91.88V85.56C83.9341 84.3 83.8341 83.9 83.4341 83.36C83.0541 82.88 82.3941 82.56 81.7141 82.56C80.3941 82.56 79.5341 83.54 79.5341 85.04V92.56C79.5341 94.4 79.5941 94.7 80.1341 95.3C80.5341 95.78 81.1141 96 81.9941 96H86.1941C86.9541 96 87.4141 95.86 87.8141 95.5C88.2341 95.12 88.4941 94.5 88.4941 93.92C88.4941 93.28 88.1741 92.66 87.6541 92.28C87.2541 92 86.8341 91.88 86.0941 91.88H83.9341ZM94.3052 91.88V85.56C94.3052 84.3 94.2052 83.9 93.8052 83.36C93.4252 82.88 92.7652 82.56 92.0852 82.56C90.7652 82.56 89.9052 83.54 89.9052 85.04V92.56C89.9052 94.4 89.9652 94.7 90.5052 95.3C90.9052 95.78 91.4852 96 92.3652 96H96.5652C97.3252 96 97.7852 95.86 98.1852 95.5C98.6052 95.12 98.8652 94.5 98.8652 93.92C98.8652 93.28 98.5452 92.66 98.0252 92.28C97.6252 92 97.2052 91.88 96.4652 91.88H94.3052ZM104.676 85.3C104.676 84.22 104.536 83.76 104.096 83.26C103.696 82.82 103.096 82.56 102.456 82.56C101.816 82.56 101.236 82.82 100.836 83.28C100.376 83.78 100.276 84.18 100.276 85.3V93.56C100.276 94.48 100.416 94.94 100.836 95.4C101.216 95.82 101.876 96.1 102.476 96.1C103.056 96.1 103.696 95.82 104.116 95.36C104.516 94.92 104.676 94.4 104.676 93.56V85.3ZM114.181 87.74L110.681 83.44C110.181 82.82 109.681 82.56 109.041 82.56C107.661 82.56 106.741 83.5 106.741 84.92V93.36C106.741 94.34 106.841 94.74 107.201 95.24C107.621 95.78 108.281 96.1 108.961 96.1C109.621 96.1 110.241 95.8 110.661 95.3C111.041 94.82 111.161 94.42 111.161 93.54V90.74L114.641 95.2C115.101 95.8 115.681 96.1 116.381 96.1C117.061 96.1 117.701 95.8 118.101 95.28C118.481 94.78 118.581 94.34 118.581 93.28V85.12C118.581 84.3 118.441 83.84 118.061 83.36C117.641 82.86 117.041 82.56 116.381 82.56C115.661 82.56 114.961 82.94 114.581 83.52C114.261 83.98 114.181 84.38 114.181 85.26V87.74ZM128.847 91.42C128.207 91.8 127.887 91.92 127.327 91.92C125.887 91.92 124.707 90.74 124.707 89.3C124.707 87.9 125.887 86.68 127.247 86.68C127.687 86.68 128.167 86.82 128.647 87.04L129.627 87.56C129.747 87.62 130.007 87.66 130.207 87.66C131.427 87.66 132.447 86.66 132.447 85.46C132.447 84.66 131.987 83.98 131.067 83.4C129.947 82.72 128.627 82.34 127.327 82.34C123.447 82.34 120.287 85.46 120.287 89.32C120.287 93.2 123.447 96.34 127.347 96.34C128.447 96.34 129.507 96.08 130.507 95.56C131.667 94.96 132.487 94.16 132.707 93.46C132.807 93.14 132.807 93.1 132.847 92L132.867 90.86C132.887 90 132.707 89.4 132.307 88.92C131.867 88.4 131.447 88.28 129.907 88.24L128.467 88.22C127.067 88.2 126.327 88.76 126.327 89.82C126.327 90.82 127.027 91.42 128.207 91.42H128.847Z" fill="black"/>
</svg>
